<svg width="36" height="36" viewBox="0 0 36 36" fill="none" xmlns="http://www.w3.org/2000/svg">
<circle cx="18" cy="18" r="18" fill="#651FFF"/>
<path d="M14.9687 18.4688C15.1156 18.3219 15.3062 18.25 15.5 18.25C15.6937 18.25 15.8837 18.3233 16.0303 18.4697L17.25 19.6906V16.25C17.25 15.8375 17.5875 15.5 18 15.5C18.4125 15.5 18.75 15.8359 18.75 16.25V19.6906L19.9697 18.4709C20.2626 18.178 20.7372 18.178 21.0303 18.4709C21.3234 18.7639 21.3233 19.2384 21.0303 19.5316L18.5303 22.0316C18.2373 22.3245 17.7628 22.3245 17.4697 22.0316L14.9697 19.5316C14.6781 19.2375 14.6781 18.7625 14.9687 18.4688Z" fill="white"/>
<path opacity="0.4" d="M24.5 13H18.5L16.5 11H11.5C10.6719 11 10 11.6719 10 12.5V23.5C10 24.3281 10.6719 25 11.5 25H24.5C25.3281 25 26 24.3281 26 23.5V14.5C26 13.6719 25.3281 13 24.5 13ZM14.9688 18.4688C15.1156 18.3219 15.3063 18.25 15.5 18.25C15.6937 18.25 15.8837 18.3233 16.0303 18.4697L17.25 19.6906V16.25C17.25 15.8375 17.5875 15.5 18 15.5C18.4125 15.5 18.75 15.8359 18.75 16.25V19.6906L19.9697 18.4709C20.2627 18.178 20.7372 18.178 21.0303 18.4709C21.3234 18.7639 21.3233 19.2384 21.0303 19.5316L18.5303 22.0316C18.2373 22.3245 17.7628 22.3245 17.4697 22.0316L14.9697 19.5316C14.6781 19.2375 14.6781 18.7625 14.9688 18.4688Z" fill="white"/>
</svg>
