<svg width="651" height="577" viewBox="0 0 651 577" fill="none" xmlns="http://www.w3.org/2000/svg">
<path d="M490.525 81.0544H46.5839V352.514H490.525V81.0544Z" fill="white" stroke="#E0E0E0" stroke-miterlimit="10"/>
<path d="M46.5838 116.181H490.525" stroke="#E0E0E0" stroke-miterlimit="10"/>
<path d="M78.0313 99.72C78.0313 104.423 74.2106 108.097 69.6551 108.097C64.9527 108.097 61.2789 104.276 61.2789 99.72C61.2789 95.0168 65.0996 91.3425 69.6551 91.3425C74.2106 91.3425 78.0313 95.1638 78.0313 99.72Z" fill="#E0E0E0"/>
<path d="M112.271 99.72C112.271 104.423 108.45 108.097 103.895 108.097C99.1923 108.097 95.5185 104.276 95.5185 99.72C95.5185 95.0168 99.3392 91.3425 103.895 91.3425C108.597 91.3425 112.271 95.1638 112.271 99.72Z" fill="#F0F0F0"/>
<path d="M146.658 99.72C146.658 104.423 142.837 108.097 138.281 108.097C133.579 108.097 129.905 104.276 129.905 99.72C129.905 95.0168 133.726 91.3425 138.281 91.3425C142.984 91.3425 146.658 95.1638 146.658 99.72Z" fill="#F5F5F5"/>
<path d="M95.8125 184.23H72.1533V190.697H95.8125V184.23Z" fill="#E6E6E6"/>
<path d="M273.771 184.23H113.153V190.697H273.771V184.23Z" fill="#E6E6E6"/>
<path d="M333.287 184.23H288.319V190.697H333.287V184.23Z" fill="#E6E6E6"/>
<path d="M436.005 271.532H391.038V277.999H436.005V271.532Z" fill="#E6E6E6"/>
<path d="M420.723 184.23H342.985V190.697H420.723V184.23Z" fill="#E6E6E6"/>
<path d="M119.472 201.573H95.8127V208.039H119.472V201.573Z" fill="#E6E6E6"/>
<path d="M240.56 201.573H136.224V208.039H240.56V201.573Z" fill="#E6E6E6"/>
<path d="M380.458 271.532H276.122V277.999H380.458V271.532Z" fill="#E6E6E6"/>
<path d="M209.406 254.042H113.153V260.509H209.406V254.042Z" fill="#E6E6E6"/>
<path d="M181.779 219.062H136.224V225.529H181.779V219.062Z" fill="#E6E6E6"/>
<path d="M363.852 236.552H318.297V243.019H363.852V236.552Z" fill="#E6E6E6"/>
<path d="M348.716 219.062H195.005V225.529H348.716V219.062Z" fill="#E6E6E6"/>
<path d="M266.864 271.532H113.153V277.999H266.864V271.532Z" fill="#E6E6E6"/>
<path d="M461.281 201.573H337.989V208.039H461.281V201.573Z" fill="#E6E6E6"/>
<path d="M328.143 201.573H251.581V208.039H328.143V201.573Z" fill="#E6E6E6"/>
<path d="M434.095 219.062H357.533V225.529H434.095V219.062Z" fill="#E6E6E6"/>
<path d="M119.472 219.062H95.8127V225.529H119.472V219.062Z" fill="#E6E6E6"/>
<path d="M95.8125 236.552H72.1533V243.019H95.8125V236.552Z" fill="#E6E6E6"/>
<path d="M179.134 236.552H113.153V243.019H179.134V236.552Z" fill="#E6E6E6"/>
<path d="M202.205 289.022H136.224V295.488H202.205V289.022Z" fill="#E6E6E6"/>
<path d="M392.36 306.511H286.114V312.978H392.36V306.511Z" fill="#E6E6E6"/>
<path d="M316.828 289.022H213.521V295.488H316.828V289.022Z" fill="#E6E6E6"/>
<path d="M273.918 306.511H188.833V312.978H273.918V306.511Z" fill="#E6E6E6"/>
<path d="M461.428 289.022H329.024V295.488H461.428V289.022Z" fill="#E6E6E6"/>
<path d="M176.783 306.511H136.224V312.978H176.783V306.511Z" fill="#E6E6E6"/>
<path d="M333.139 254.042H218.958V260.509H333.139V254.042Z" fill="#E6E6E6"/>
<path d="M439.092 254.042H342.985V260.509H439.092V254.042Z" fill="#E6E6E6"/>
<path d="M307.423 236.552H193.388V243.019H307.423V236.552Z" fill="#E6E6E6"/>
<path d="M95.8125 254.042H72.1533V260.509H95.8125V254.042Z" fill="#E6E6E6"/>
<path d="M95.8125 271.532H72.1533V277.999H95.8125V271.532Z" fill="#E6E6E6"/>
<path d="M119.472 289.022H95.8127V295.488H119.472V289.022Z" fill="#E6E6E6"/>
<path d="M119.472 306.511H95.8127V312.978H119.472V306.511Z" fill="#E6E6E6"/>
<path d="M83.3703 154.646L72.1611 150.379V148.456L83.3703 144.167V146.311L74.9468 149.406L83.3703 152.546V154.646ZM95.2664 140.121L87.7494 155.354H85.5606L93.0776 140.121H95.2664ZM108.642 150.379L97.4546 154.668V152.546L105.856 149.406L97.4546 146.311V144.167L108.642 148.456V150.379Z" fill="#E0E0E0"/>
<path d="M16.3115 324.736H68.1854C74.7983 324.736 80.2355 330.174 80.2355 336.788V357.952V365.301V388.522L68.0385 377.353H16.3115C9.6987 377.353 4.26149 371.915 4.26149 365.301V336.788C4.26149 330.027 9.6987 324.736 16.3115 324.736Z" fill="white" stroke="#EAEAEA" stroke-miterlimit="10"/>
<path d="M54.0781 351.926C54.0781 354.866 56.4293 357.07 59.2214 357.07C62.1604 357.07 64.3647 354.719 64.3647 351.926C64.3647 349.134 62.0135 346.782 59.2214 346.782C56.4293 346.635 54.0781 348.987 54.0781 351.926Z" fill="#EAEAEA"/>
<path d="M41.146 357.07C43.9866 357.07 46.2893 354.767 46.2893 351.926C46.2893 349.085 43.9866 346.782 41.146 346.782C38.3054 346.782 36.0027 349.085 36.0027 351.926C36.0027 354.767 38.3054 357.07 41.146 357.07Z" fill="#EAEAEA"/>
<path d="M23.0711 357.07C25.9117 357.07 28.2144 354.767 28.2144 351.926C28.2144 349.085 25.9117 346.782 23.0711 346.782C20.2306 346.782 17.9278 349.085 17.9278 351.926C17.9278 354.767 20.2306 357.07 23.0711 357.07Z" fill="#EAEAEA"/>
<path d="M557.387 40.6367C557.387 46.8096 552.685 51.8067 546.66 52.2476H481.119C473.625 52.2476 467.453 46.2217 467.453 38.5791C467.453 31.5243 472.89 25.6454 479.797 25.0575C480.238 12.7118 490.377 2.86455 502.721 2.86455C512.567 2.86455 521.09 9.1844 524.176 17.8558C525.94 16.974 527.997 16.3861 530.201 16.3861C537.402 16.3861 543.28 21.9711 543.721 29.1728C544.309 29.0258 544.896 29.0258 545.631 29.0258C552.244 29.0258 557.387 34.1699 557.387 40.6367Z" fill="#00E5FF"/>
<path d="M597.799 348.399H541.37C535.639 348.399 531.083 343.843 531.083 338.111V305.777C531.083 300.045 535.639 295.488 541.37 295.488H597.799C603.53 295.488 608.086 300.045 608.086 305.777V338.111C608.086 343.696 603.383 348.399 597.799 348.399Z" fill="#00E5FF"/>
<path d="M554.529 314.71L544.638 310.944V309.247L554.529 305.462V307.355L547.096 310.086L554.529 312.856V314.71ZM565.027 301.892L558.393 315.334H556.462L563.095 301.892H565.027ZM576.829 310.944L566.958 314.729V312.856L574.371 310.086L566.958 307.355V305.462L576.829 309.247V310.944Z" fill="white"/>
<path d="M505.281 244.604V248.664C505.281 249.426 505.53 250.071 506.028 250.6C506.526 251.129 507.117 251.394 507.801 251.394H509.364V253.237H507.871C506.58 253.237 505.491 252.817 504.604 251.977C503.718 251.137 503.274 250.033 503.274 248.664V244.604C503.274 244.293 503.127 244.02 502.831 243.787C502.551 243.538 502.224 243.414 501.851 243.414V241.524C502.224 241.524 502.551 241.407 502.831 241.174C503.127 240.925 503.274 240.645 503.274 240.334V236.227C503.259 234.858 503.694 233.762 504.581 232.937C505.468 232.097 506.564 231.677 507.871 231.677H509.364V233.52H507.801C507.101 233.52 506.502 233.785 506.004 234.314C505.522 234.843 505.281 235.48 505.281 236.227V240.334C505.281 240.769 505.18 241.189 504.978 241.594C504.776 241.998 504.496 242.294 504.138 242.48C504.464 242.667 504.737 242.97 504.954 243.39C505.172 243.795 505.281 244.199 505.281 244.604ZM515.277 248.664V244.604C515.277 244.199 515.386 243.795 515.603 243.39C515.821 242.97 516.093 242.667 516.42 242.48C516.062 242.294 515.782 241.998 515.58 241.594C515.378 241.189 515.277 240.769 515.277 240.334V236.227C515.277 235.48 515.028 234.843 514.53 234.314C514.048 233.785 513.457 233.52 512.757 233.52H511.194V231.677H512.687C513.994 231.677 515.09 232.097 515.977 232.937C516.863 233.762 517.299 234.858 517.283 236.227V240.334C517.283 240.645 517.423 240.925 517.703 241.174C517.999 241.407 518.333 241.524 518.707 241.524V243.414C518.333 243.414 517.999 243.538 517.703 243.787C517.423 244.02 517.283 244.293 517.283 244.604V248.664C517.283 250.033 516.84 251.137 515.953 251.977C515.067 252.817 513.978 253.237 512.687 253.237H511.194V251.394H512.757C513.441 251.394 514.032 251.129 514.53 250.6C515.028 250.071 515.277 249.426 515.277 248.664Z" fill="#E6E6E6"/>
<path d="M66.1396 11.9947V15.1823C66.1396 15.7807 66.335 16.2876 66.7258 16.7028C67.1166 17.118 67.5807 17.3257 68.1181 17.3257H69.3455V18.7729H68.173C67.1594 18.7729 66.3045 18.4432 65.6083 17.7837C64.9122 17.1242 64.5641 16.257 64.5641 15.1823V11.9947C64.5641 11.7504 64.4481 11.5367 64.216 11.3535C63.9962 11.1581 63.7397 11.0604 63.4466 11.0604V9.57652C63.7397 9.57652 63.9962 9.48492 64.216 9.30172C64.4481 9.10632 64.5641 8.88648 64.5641 8.64222V5.41799C64.5519 4.34325 64.8939 3.48223 65.59 2.83494C66.2861 2.17544 67.1472 1.84569 68.173 1.84569H69.3455V3.29293H68.1181C67.5685 3.29293 67.0983 3.50055 66.7075 3.91579C66.3289 4.33103 66.1396 4.83177 66.1396 5.41799V8.64222C66.1396 8.98419 66.0602 9.31394 65.9014 9.63148C65.7427 9.94901 65.5228 10.1811 65.2419 10.3276C65.4984 10.4742 65.7121 10.7123 65.8831 11.0421C66.0541 11.3596 66.1396 11.6772 66.1396 11.9947ZM73.9875 15.1823V11.9947C73.9875 11.6772 74.073 11.3596 74.244 11.0421C74.4149 10.7123 74.6287 10.4742 74.8851 10.3276C74.6042 10.1811 74.3844 9.94901 74.2256 9.63148C74.0669 9.31394 73.9875 8.98419 73.9875 8.64222V5.41799C73.9875 4.83177 73.7921 4.33103 73.4013 3.91579C73.0227 3.50055 72.5586 3.29293 72.009 3.29293H70.7816V1.84569H71.954C72.9799 1.84569 73.8409 2.17544 74.5371 2.83494C75.2332 3.48223 75.5752 4.34325 75.563 5.41799V8.64222C75.563 8.88648 75.6729 9.10632 75.8927 9.30172C76.1248 9.48492 76.3873 9.57652 76.6804 9.57652V11.0604C76.3873 11.0604 76.1248 11.1581 75.8927 11.3535C75.6729 11.5367 75.563 11.7504 75.563 11.9947V15.1823C75.563 16.257 75.2149 17.1242 74.5187 17.7837C73.8226 18.4432 72.9677 18.7729 71.954 18.7729H70.7816V17.3257H72.009C72.5463 17.3257 73.0104 17.118 73.4013 16.7028C73.7921 16.2876 73.9875 15.7807 73.9875 15.1823Z" fill="#00E5FF"/>
<path d="M314.77 161.302H157.826C151.066 161.302 145.629 155.864 145.629 149.103V34.9047C145.629 28.144 151.066 22.7059 157.826 22.7059H314.917C321.677 22.7059 327.114 28.144 327.114 34.9047V148.956C326.967 155.717 321.53 161.302 314.77 161.302Z" fill="#4D5A64"/>
<path d="M295.175 47.9879L302.705 45.1215V43.8295L295.175 40.9483V42.3889L300.833 44.4681L295.175 46.577V47.9879ZM287.184 38.2305L292.233 48.4631H293.704L288.654 38.2305H287.184ZM278.199 45.1215L285.714 48.0027V46.577L280.07 44.4681L285.714 42.3889V40.9483L278.199 43.8295V45.1215Z" fill="#FAFAFA"/>
<path d="M200.442 54.7462C214.55 54.7462 228.51 54.7462 242.617 54.7462C244.675 54.7462 246.732 54.7462 248.642 54.7462C250.112 54.7462 250.112 52.5416 248.642 52.5416C234.535 52.5416 220.575 52.5416 206.467 52.5416C204.41 52.5416 202.353 52.5416 200.442 52.5416C198.973 52.5416 198.973 54.7462 200.442 54.7462Z" fill="#FAFAFA"/>
<path d="M162.381 73.5588C166.937 73.5588 171.639 73.5588 176.195 73.5588C187.363 73.5588 198.384 73.5588 209.553 73.5588C223.072 73.5588 236.592 73.5588 250.111 73.5588C261.72 73.5588 273.33 73.5588 285.086 73.5588C288.906 73.5588 292.727 73.5588 296.695 73.5588C298.458 73.5588 300.369 73.7058 302.132 73.5588C302.279 73.5588 302.279 73.5588 302.426 73.5588C303.896 73.5588 303.896 71.3542 302.426 71.3542C297.871 71.3542 293.168 71.3542 288.613 71.3542C277.444 71.3542 266.423 71.3542 255.255 71.3542C241.735 71.3542 228.215 71.3542 214.696 71.3542C203.087 71.3542 191.478 71.3542 179.721 71.3542C175.901 71.3542 172.08 71.3542 168.112 71.3542C166.349 71.3542 164.438 71.2072 162.675 71.3542C162.528 71.3542 162.528 71.3542 162.381 71.3542C161.059 71.3542 161.059 73.5588 162.381 73.5588Z" fill="#FAFAFA"/>
<path d="M286.409 95.8987C291.111 95.8987 295.667 95.8987 300.369 95.8987C300.957 95.8987 301.692 95.8987 302.279 95.8987C303.749 95.8987 303.749 93.6941 302.279 93.6941C297.577 93.6941 293.021 93.6941 288.319 93.6941C287.731 93.6941 286.996 93.6941 286.409 93.6941C285.086 93.6941 285.086 95.8987 286.409 95.8987Z" fill="#FAFAFA"/>
<path d="M202.205 95.8987C209.7 95.8987 217.341 95.8987 224.836 95.8987C236.886 95.8987 248.789 95.8987 260.839 95.8987C263.631 95.8987 266.423 95.8987 269.215 95.8987C270.685 95.8987 270.685 93.6941 269.215 93.6941C261.721 93.6941 254.079 93.6941 246.585 93.6941C234.535 93.6941 222.632 93.6941 210.582 93.6941C207.789 93.6941 204.997 93.6941 202.205 93.6941C200.736 93.6941 200.736 95.8987 202.205 95.8987Z" fill="#FAFAFA"/>
<path d="M162.381 114.27C166.937 114.27 171.639 114.27 176.195 114.27C187.363 114.27 198.384 114.27 209.553 114.27C223.072 114.27 236.592 114.27 250.111 114.27C261.72 114.27 273.33 114.27 285.086 114.27C288.906 114.27 292.727 114.27 296.695 114.27C298.458 114.27 300.369 114.417 302.132 114.27C302.279 114.27 302.279 114.27 302.426 114.27C303.896 114.27 303.896 112.066 302.426 112.066C297.871 112.066 293.168 112.066 288.613 112.066C277.444 112.066 266.423 112.066 255.255 112.066C241.735 112.066 228.215 112.066 214.696 112.066C203.087 112.066 191.478 112.066 179.721 112.066C175.901 112.066 172.08 112.066 168.112 112.066C166.349 112.066 164.438 111.919 162.675 112.066C162.528 112.066 162.528 112.066 162.381 112.066C161.059 112.066 161.059 114.27 162.381 114.27Z" fill="#FAFAFA"/>
<path d="M261.427 134.7C273.33 134.7 285.233 134.7 297.136 134.7C298.899 134.7 300.516 134.7 302.279 134.7C303.749 134.7 303.749 132.495 302.279 132.495C290.376 132.495 278.473 132.495 266.57 132.495C264.807 132.495 263.19 132.495 261.427 132.495C260.104 132.495 260.104 134.7 261.427 134.7Z" fill="#FAFAFA"/>
<path d="M202.205 134.7C215.872 134.7 229.391 134.7 243.058 134.7C244.968 134.7 246.879 134.7 248.789 134.7C250.258 134.7 250.258 132.495 248.789 132.495C235.122 132.495 221.603 132.495 207.936 132.495C206.026 132.495 204.116 132.495 202.205 132.495C200.736 132.495 200.736 134.7 202.205 134.7Z" fill="#FAFAFA"/>
<path d="M329.024 241.108H223.219V300.632H329.024V241.108Z" fill="#FAFAFA" stroke="#651FFF" stroke-miterlimit="10"/>
<path d="M233.212 246.546C233.212 248.016 232.037 249.192 230.567 249.192C229.098 249.192 227.922 248.016 227.922 246.546C227.922 245.077 229.098 243.901 230.567 243.901C232.037 243.901 233.212 244.93 233.212 246.546Z" fill="#651FFF"/>
<path d="M244.234 246.546C244.234 248.016 243.058 249.192 241.589 249.192C240.119 249.192 238.944 248.016 238.944 246.546C238.944 245.077 240.119 243.901 241.589 243.901C243.058 243.901 244.234 244.93 244.234 246.546Z" fill="#651FFF"/>
<path d="M255.255 246.546C255.255 248.016 254.08 249.192 252.61 249.192C251.14 249.192 249.965 248.016 249.965 246.546C249.965 245.077 251.14 243.901 252.61 243.901C254.08 243.901 255.255 244.93 255.255 246.546Z" fill="#651FFF"/>
<path d="M241.813 258.209V276.337H239.34V268.444H230.579V276.337H228.132V258.209H230.579V266.208H239.34V258.209H241.813ZM245.023 258.209H258.494V260.525H252.995V276.337H250.522V260.525H245.023V258.209ZM271.219 271.522L277.612 258.209H279.848L282.058 276.337H279.638L277.98 262.709L272.324 274.338H270.166L264.457 262.709L262.8 276.337H260.379L262.589 258.209H264.825L271.219 271.522ZM285.968 258.209H288.415V274.048H295.808V276.337H285.968V258.209Z" fill="#651FFF"/>
<path d="M223.072 251.837H329.024" stroke="#651FFF" stroke-miterlimit="10"/>
<path d="M162.675 44.899H90.0812V93.8411H162.675V44.899Z" fill="#FAFAFA" stroke="#651FFF" stroke-miterlimit="10"/>
<path d="M96.1063 51.5129C97.3237 51.5129 98.3106 50.5258 98.3106 49.3083C98.3106 48.0907 97.3237 47.1037 96.1063 47.1037C94.889 47.1037 93.9021 48.0907 93.9021 49.3083C93.9021 50.5258 94.889 51.5129 96.1063 51.5129Z" fill="#651FFF"/>
<path d="M107.422 49.3082C107.422 50.484 106.393 51.5128 105.218 51.5128C104.042 51.5128 103.013 50.484 103.013 49.3082C103.013 48.1325 104.042 47.1036 105.218 47.1036C106.393 47.1036 107.422 48.1325 107.422 49.3082Z" fill="#651FFF"/>
<path d="M116.533 49.3082C116.533 50.484 115.504 51.5128 114.329 51.5128C113.153 51.5128 112.124 50.484 112.124 49.3082C112.124 48.1325 113.153 47.1036 114.329 47.1036C115.504 47.1036 116.533 48.1325 116.533 49.3082Z" fill="#651FFF"/>
<path d="M100.633 58.6995H106.779C108.299 58.6995 109.438 59.1689 110.198 60.1076C110.973 61.0463 111.361 62.1861 111.361 63.5271C111.361 64.8681 110.973 66.008 110.198 66.9467C109.438 67.8705 108.299 68.3324 106.779 68.3324H102.733V74.0987H100.633V58.6995ZM106.756 60.644H102.733V66.3879H106.645C107.524 66.3879 108.179 66.1123 108.611 65.561C109.058 64.9948 109.282 64.3168 109.282 63.5271C109.282 62.7374 109.066 62.0595 108.634 61.4933C108.217 60.9271 107.591 60.644 106.756 60.644ZM125.809 58.6995V74.0987H123.708V67.3937H116.265V74.0987H114.187V58.6995H116.265V65.4939H123.708V58.6995H125.809ZM130.011 58.6995H136.157C137.677 58.6995 138.816 59.1689 139.576 60.1076C140.351 61.0463 140.739 62.1861 140.739 63.5271C140.739 64.8681 140.351 66.008 139.576 66.9467C138.816 67.8705 137.677 68.3324 136.157 68.3324H132.111V74.0987H130.011V58.6995ZM136.134 60.644H132.111V66.3879H136.023C136.902 66.3879 137.557 66.1123 137.99 65.561C138.437 64.9948 138.66 64.3168 138.66 63.5271C138.66 62.7374 138.444 62.0595 138.012 61.4933C137.595 60.9271 136.969 60.644 136.134 60.644Z" fill="#651FFF"/>
<path d="M90.0811 53.7174H162.675" stroke="#651FFF" stroke-miterlimit="10"/>
<path d="M646.367 117.334H505.881V206.105H646.367" fill="#651FFF"/>
<path d="M646.367 117.334H505.881V134.236H646.367V117.334Z" fill="#651FFF"/>
<g opacity="0.2">
<path d="M646.367 117.334H505.881V134.236H646.367V117.334Z" fill="black"/>
</g>
<path d="M521.752 125.858C521.752 128.21 519.841 130.12 517.49 130.12C515.139 130.12 513.228 128.21 513.228 125.858C513.228 123.506 515.139 121.596 517.49 121.596C519.841 121.596 521.752 123.506 521.752 125.858Z" fill="#E0E0E0"/>
<path d="M539.239 125.858C539.239 128.21 537.328 130.12 534.977 130.12C532.626 130.12 530.715 128.21 530.715 125.858C530.715 123.506 532.626 121.596 534.977 121.596C537.328 121.596 539.239 123.506 539.239 125.858Z" fill="#F0F0F0"/>
<path d="M556.579 125.858C556.579 128.21 554.669 130.12 552.318 130.12C549.966 130.12 548.056 128.21 548.056 125.858C548.056 123.506 549.966 121.596 552.318 121.596C554.669 121.596 556.579 123.506 556.579 125.858Z" fill="#FAFAFA"/>
<path d="M547.185 166.026H543.692L531.371 145.66V166.026H527.722V138.989H531.332L543.535 159.198V138.989H547.185V166.026ZM568.603 163.75C566.746 165.529 564.483 166.418 561.814 166.418C559.146 166.418 556.883 165.529 555.026 163.75C553.169 161.971 552.24 159.656 552.24 156.804C552.24 153.979 553.155 151.69 554.987 149.937C556.844 148.185 559.12 147.308 561.814 147.308C564.509 147.308 566.785 148.185 568.642 149.937C570.5 151.69 571.428 153.979 571.428 156.804C571.428 159.63 570.487 161.945 568.603 163.75ZM557.498 161.278C558.675 162.403 560.114 162.965 561.814 162.965C563.515 162.965 564.941 162.403 566.092 161.278C567.269 160.127 567.857 158.636 567.857 156.804C567.857 154.999 567.269 153.547 566.092 152.449C564.941 151.35 563.515 150.801 561.814 150.801C560.114 150.801 558.675 151.35 557.498 152.449C556.347 153.547 555.771 154.999 555.771 156.804C555.771 158.636 556.347 160.127 557.498 161.278ZM590.66 166.026V163.2C590.058 164.221 589.169 165.019 587.992 165.594C586.814 166.143 585.559 166.418 584.224 166.418C581.635 166.418 579.437 165.529 577.632 163.75C575.853 161.971 574.964 159.669 574.964 156.844C574.964 153.992 575.853 151.69 577.632 149.937C579.411 148.185 581.595 147.308 584.185 147.308C585.572 147.308 586.84 147.583 587.992 148.132C589.169 148.655 590.058 149.427 590.66 150.447V137.734H594.231V166.026H590.66ZM588.816 161.278C590.019 160.153 590.621 158.662 590.621 156.804C590.621 154.947 590.006 153.482 588.776 152.409C587.547 151.337 586.134 150.801 584.538 150.801C582.864 150.801 581.452 151.363 580.3 152.488C579.176 153.587 578.613 155.025 578.613 156.804C578.613 158.583 579.176 160.048 580.3 161.199C581.452 162.35 582.864 162.926 584.538 162.926C586.213 162.926 587.638 162.376 588.816 161.278ZM602.562 155.431H613.941C613.732 153.914 613.117 152.723 612.097 151.86C611.103 150.971 609.86 150.526 608.369 150.526C606.826 150.526 605.518 150.971 604.445 151.86C603.399 152.723 602.771 153.914 602.562 155.431ZM617.473 156.804C617.473 157.484 617.46 157.955 617.433 158.217H602.562C602.771 159.734 603.412 160.951 604.484 161.866C605.583 162.756 606.917 163.2 608.487 163.2C609.612 163.2 610.645 162.952 611.587 162.455C612.528 161.958 613.248 161.265 613.745 160.375C614.085 160.506 614.608 160.715 615.315 161.003C616.021 161.265 616.518 161.448 616.806 161.552C616.047 163.122 614.909 164.325 613.392 165.162C611.874 166 610.2 166.418 608.369 166.418C605.701 166.418 603.464 165.529 601.659 163.75C599.88 161.971 598.991 159.656 598.991 156.804C598.991 153.953 599.88 151.664 601.659 149.937C603.464 148.185 605.701 147.308 608.369 147.308C611.011 147.308 613.182 148.185 614.883 149.937C616.609 151.664 617.473 153.953 617.473 156.804Z" fill="#FAFAFA"/>
<path d="M136.959 177.469H20.7201V250.955H136.959" fill="#651FFF"/>
<path d="M136.959 177.469H20.7201V191.431H136.959V177.469Z" fill="#651FFF"/>
<g opacity="0.2">
<path d="M136.959 177.469H20.7201V191.431H136.959V177.469Z" fill="black"/>
</g>
<path d="M33.9455 184.671C33.9455 186.581 32.329 188.198 30.4187 188.198C28.5083 188.198 26.8918 186.581 26.8918 184.671C26.8918 182.76 28.5083 181.143 30.4187 181.143C32.329 181.143 33.9455 182.613 33.9455 184.671Z" fill="#E0E0E0"/>
<path d="M48.3471 184.67C48.3471 186.581 46.7307 188.198 44.8203 188.198C42.9099 188.198 41.2935 186.581 41.2935 184.67C41.2935 182.76 42.9099 181.143 44.8203 181.143C46.7307 181.143 48.3471 182.613 48.3471 184.67Z" fill="#F0F0F0"/>
<path d="M62.7484 184.67C62.7484 186.581 61.1319 188.198 59.2216 188.198C57.3112 188.198 55.6947 186.581 55.6947 184.67C55.6947 182.76 57.3112 181.143 59.2216 181.143C61.1319 181.143 62.7484 182.613 62.7484 184.67Z" fill="#FAFAFA"/>
<path d="M31.4096 229.385L31.7262 226.29C32.2889 226.477 33.0626 226.571 34.0474 226.571C35.4776 226.571 36.5327 226.137 37.2127 225.27C37.8926 224.402 38.2326 223.277 38.2326 221.893V196.712H41.5034V221.893C41.5034 224.215 40.8938 226.102 39.6746 227.556C38.4788 229.033 36.6031 229.772 34.0474 229.772C33.5315 229.772 32.6523 229.643 31.4096 229.385ZM49.9178 213.945C49.9413 215.047 50.4454 216.044 51.4301 216.934C52.4149 217.802 53.6459 218.236 55.123 218.236C56.5767 218.236 57.7139 217.896 58.5345 217.216C59.3551 216.536 59.8475 215.692 60.0116 214.684C60.1054 213.488 59.7537 212.538 58.9565 211.835C58.1828 211.131 57.1629 210.639 55.8967 210.358L52.7666 209.584C48.8276 208.576 46.858 206.466 46.858 203.253C46.858 201.26 47.6318 199.631 49.1793 198.365C50.7267 197.075 52.5673 196.43 54.701 196.43C56.9518 196.43 58.8158 197.087 60.293 198.4C61.7701 199.689 62.5087 201.401 62.5087 203.535H59.2379C59.2379 202.339 58.8041 201.378 57.9366 200.651C57.0925 199.924 56.0022 199.561 54.6658 199.561C53.4466 199.561 52.3797 199.9 51.4653 200.58C50.5743 201.26 50.1289 202.14 50.1289 203.218C50.1289 204.906 51.2777 206.032 53.5755 206.595L56.7408 207.368C59.0386 207.954 60.7502 208.892 61.8756 210.182C63.0011 211.471 63.4466 213.066 63.2121 214.965C63.0011 216.794 62.1687 218.306 60.715 219.502C59.2848 220.698 57.4208 221.296 55.123 221.296C52.708 221.296 50.6916 220.569 49.0738 219.115C47.4559 217.638 46.647 215.915 46.647 213.945H49.9178Z" fill="#FAFAFA"/>
<path d="M0 526.677H649.967" stroke="#263238" stroke-miterlimit="10"/>
<path d="M248.349 321.65C245.41 316.946 243.499 307.834 244.381 299.016C245.41 290.197 245.703 276.823 234.535 276.235C223.514 275.647 219.693 297.84 219.105 302.69C218.517 307.393 198.679 310.333 182.955 305.483C167.084 300.632 137.694 294.9 124.762 298.134C111.831 301.367 116.533 312.684 116.533 312.684C107.569 319.004 117.415 326.941 117.415 326.941C108.304 335.171 118.443 343.843 124.909 344.724C124.762 345.606 124.615 346.341 124.909 347.37C126.673 356.923 166.203 353.396 188.686 363.39C211.317 373.384 226.894 415.566 226.894 415.566L274.065 358.981C274.065 358.981 251.288 326.353 248.349 321.65Z" fill="white"/>
<path d="M171.787 322.531C171.787 322.531 126.673 318.563 117.562 326.941C108.451 335.171 118.59 343.843 125.056 344.724" stroke="#263238" stroke-miterlimit="10"/>
<path d="M171.786 312.537C171.786 312.537 137.694 303.425 120.794 310.333C105.07 316.799 117.561 326.794 117.561 326.794" stroke="#263238" stroke-miterlimit="10"/>
<path d="M116.533 312.537C116.533 312.537 111.683 301.22 124.762 297.987C137.694 294.754 167.231 300.339 183.102 305.336C198.973 310.186 218.664 307.393 219.252 302.543C219.84 297.84 223.66 275.5 234.682 276.088C245.703 276.676 245.409 290.05 244.528 298.869C243.499 307.687 245.556 316.8 248.495 321.503C251.434 326.206 274.212 358.834 274.212 358.834L227.04 415.419C227.04 415.419 211.463 373.237 188.833 363.243C166.202 353.249 126.672 356.776 125.056 347.223C123.292 337.67 140.633 333.261 167.231 336.347" stroke="#263238" stroke-miterlimit="10"/>
<path d="M208.231 395.577L279.208 354.572C279.208 354.572 340.781 465.683 420.135 494.343L325.645 530.058L249.818 525.208C249.671 525.208 219.546 461.568 208.231 395.577Z" fill="#651FFF"/>
<g opacity="0.3">
<path d="M208.231 395.577L279.208 354.572C279.208 354.572 340.781 465.683 420.135 494.343L325.645 530.058L249.818 525.208C249.671 525.208 219.546 461.568 208.231 395.577Z" fill="white"/>
</g>
<path d="M419.4 494.196C418.959 494.049 418.371 493.755 417.931 493.608V495.225L419.4 494.637V494.196Z" fill="#FAFAFA"/>
<path d="M388.54 483.467V506.248L390.01 505.66V483.467H396.917C396.035 483.026 395.3 482.438 394.418 481.997H390.157V479.352C389.716 479.058 389.128 478.764 388.687 478.47V482.144H360.767V457.159C360.326 456.718 359.738 456.277 359.297 455.836V481.997H331.376V452.75H356.064C355.476 452.309 355.035 451.721 354.448 451.28H331.376V427.323C330.935 426.735 330.348 426.148 329.907 425.707V451.427H301.986V422.179H326.821C326.38 421.738 325.939 421.15 325.645 420.71H302.133V391.462H303.015C302.133 390.286 301.398 389.11 300.663 388.082V389.992H272.743V360.744H282.882C282.588 360.157 282.294 359.716 282 359.275H272.743V358.393L268.775 360.744H271.273V389.992H243.352V375.295L241.883 376.177V389.992H217.93L215.431 391.462H241.883V420.71H213.962V392.344L212.492 393.226V417.035C212.933 419.093 213.521 421.151 213.962 423.208V422.179H241.883V451.427H221.75C221.897 451.868 222.044 452.456 222.191 452.897H241.883V481.997H232.184C232.331 482.438 232.478 483.026 232.772 483.467H242.03V507.13C242.47 508.306 243.058 509.481 243.499 510.657V483.467H271.42V512.715H244.381C244.528 513.156 244.822 513.744 244.969 514.185H271.273V526.53L272.743 526.677V514.185H300.663V528.441L302.133 528.588V514.332H330.054V528.588L331.523 528V514.332H359.444V517.418L360.913 516.83V514.332H367.673L371.494 512.862H360.767V483.467H388.54ZM271.273 481.997H243.352V452.75H271.273V481.997ZM271.273 451.28H243.352V422.032H271.273V451.28ZM271.273 420.563H243.352V391.315H271.273V420.563ZM300.516 512.715H272.596V483.467H300.516V512.715ZM300.516 481.997H272.596V452.75H300.516V481.997ZM300.516 451.28H272.596V422.032H300.516V451.28ZM300.516 420.563H272.596V391.315H300.516V420.563ZM329.907 512.715H301.986V483.467H329.907V512.715ZM329.907 481.997H301.986V452.75H329.907V481.997ZM359.297 512.715H331.376V483.467H359.297V512.715Z" fill="#FAFAFA"/>
<path d="M208.231 395.577L279.208 354.572C279.208 354.572 340.781 465.683 420.135 494.343L325.645 530.058L249.818 525.208C249.671 525.208 219.546 461.568 208.231 395.577Z" stroke="#263238" stroke-miterlimit="10"/>
<path d="M214.55 423.943L295.373 381.321" stroke="#263238" stroke-miterlimit="10"/>
<path d="M282 374.707C282 378.087 279.355 380.733 275.975 380.733C272.596 380.733 269.95 378.087 269.95 374.707C269.95 371.327 272.596 368.681 275.975 368.681C279.355 368.681 282 371.474 282 374.707Z" fill="#263238"/>
<path d="M508.748 419.681C508.748 419.681 527.704 469.652 458.196 487.289C388.688 504.925 306.836 501.839 306.836 501.839C306.836 501.839 298.46 501.986 299.048 480.087C299.488 458.335 298.607 415.272 326.528 367.652C354.595 320.033 371.936 302.69 386.19 297.252C391.186 295.341 425.426 292.549 444.383 303.425C479.651 324.148 507.131 372.355 508.748 419.681Z" fill="#651FFF"/>
<g opacity="0.3">
<path d="M508.748 419.681C508.748 419.681 527.704 469.652 458.196 487.289C388.688 504.925 306.836 501.839 306.836 501.839C306.836 501.839 298.46 501.986 299.048 480.087C299.488 458.335 298.607 415.272 326.528 367.652C354.595 320.033 371.936 302.69 386.19 297.252C391.186 295.341 425.426 292.549 444.383 303.425C479.651 324.148 507.131 372.355 508.748 419.681Z" fill="white"/>
</g>
<path d="M486.998 447.018H509.481C509.628 446.577 509.775 445.989 509.922 445.548H487.145V416.3H508.747C508.747 415.859 508.747 415.272 508.6 414.831H487.145V385.583H503.456C503.309 385.142 503.162 384.554 503.015 384.113H487.145V354.866H491.112C490.819 354.425 490.525 353.837 490.378 353.396H487.292V347.811C486.851 347.076 486.263 346.194 485.822 345.459V353.396H457.901V324.148H469.657C469.217 323.707 468.776 323.119 468.335 322.678H458.048V312.978C457.607 312.537 457.02 312.243 456.579 311.802V322.678H428.658V297.84C428.217 297.693 427.629 297.693 427.188 297.546V322.678H399.268V295.782C398.827 295.782 398.239 295.782 397.798 295.929V322.825H369.877V308.422C369.436 308.863 368.849 309.304 368.408 309.745V322.678H356.799C356.358 323.119 356.064 323.707 355.623 324.148H368.408V353.396H340.487V345.459C340.046 346.194 339.458 346.929 339.017 347.664V353.396H335.491C335.197 353.837 334.903 354.425 334.609 354.866H339.164V384.113H318.297C318.003 384.554 317.856 385.142 317.563 385.583H339.164V414.831H311.244V401.015C310.803 402.485 310.215 403.808 309.774 405.277V414.831H306.835C306.688 415.272 306.541 415.859 306.394 416.3H309.627V445.548H300.957C300.957 445.989 300.81 446.577 300.81 447.018H309.627V476.266H299.194C299.194 476.706 299.194 477.294 299.194 477.735H309.627V501.986C310.068 501.986 310.509 501.986 311.097 501.986V477.735H339.017V501.839C339.458 501.839 340.046 501.839 340.487 501.839V477.735H368.408V500.516C368.849 500.516 369.436 500.516 369.877 500.369V477.588H397.798V497.871C398.239 497.871 398.827 497.724 399.268 497.724V477.588H427.188V493.755C427.629 493.608 428.217 493.608 428.658 493.461V477.588H456.579V487.729C457.02 487.582 457.607 487.436 458.048 487.436V477.735H483.765C485.087 477 486.263 476.266 487.439 475.531V447.018H486.998ZM338.871 476.266H310.95V447.018H338.871V476.266ZM338.871 445.548H310.95V416.3H338.871V445.548ZM368.114 476.266H340.193V447.018H368.114V476.266ZM368.114 445.548H340.193V416.3H368.114V445.548ZM368.114 414.831H340.193V385.583H368.114V414.831ZM368.114 384.113H340.193V354.866H368.114V384.113ZM397.504 476.266H369.583V447.018H397.504V476.266ZM397.504 445.548H369.583V416.3H397.504V445.548ZM397.504 414.831H369.583V385.583H397.504V414.831ZM397.504 384.113H369.583V354.866H397.504V384.113ZM397.504 353.396H369.583V324.148H397.504V353.396ZM426.895 476.266H398.974V447.018H426.895V476.266ZM426.895 445.548H398.974V416.3H426.895V445.548ZM426.895 414.831H398.974V385.583H426.895V414.831ZM426.895 384.113H398.974V354.866H426.895V384.113ZM426.895 353.396H398.974V324.148H426.895V353.396ZM456.138 476.266H428.217V447.018H456.138V476.266ZM456.138 445.548H428.217V416.3H456.138V445.548ZM456.138 414.831H428.217V385.583H456.138V414.831ZM456.138 384.113H428.217V354.866H456.138V384.113ZM456.138 353.396H428.217V324.148H456.138V353.396ZM485.528 476.266H457.607V447.018H485.528V476.266ZM485.528 445.548H457.607V416.3H485.528V445.548ZM485.528 414.831H457.607V385.583H485.528V414.831ZM485.528 384.113H457.607V354.866H485.528V384.113Z" fill="#FAFAFA"/>
<path d="M381.046 297.399C381.046 297.399 285.381 378.528 300.664 498.605" stroke="#263238" stroke-miterlimit="10"/>
<path d="M446.733 471.709L452.17 547.695L361.648 538.582C361.648 538.582 352.831 535.937 346.071 542.698C339.165 549.458 339.311 553.133 338.724 555.337C338.136 557.689 336.225 566.213 332.111 570.769C327.996 575.326 324.763 575.179 321.824 572.239C318.885 569.3 318.885 569.3 318.885 569.3C318.885 569.3 317.71 568.712 316.24 570.182C314.771 571.651 310.656 573.415 308.452 570.476C306.247 567.389 306.1 567.83 306.1 567.83C306.1 567.83 305.366 566.507 304.19 567.83C302.867 569.006 297.43 571.21 294.638 567.83C291.846 564.45 290.671 562.098 290.671 562.098C290.671 562.098 289.789 561.804 288.172 562.539C286.409 563.274 279.502 564.891 275.681 556.66C271.861 548.43 274.212 535.937 275.681 527.706C277.151 519.476 284.205 501.692 290.671 494.49C296.989 487.289 309.039 478.911 321.677 476.854C334.315 474.796 369.29 473.326 384.132 473.032C398.974 472.444 446.733 471.709 446.733 471.709Z" fill="white"/>
<path d="M332.111 516.389C332.111 516.389 318.885 539.758 316.387 552.692C314.036 565.625 321.237 574.738 325.498 574.444C329.76 574.15 335.638 569.888 338.283 557.395C340.928 544.902 349.304 538.582 355.623 538.435C361.795 538.288 457.02 548.43 457.02 548.43" stroke="#263238" stroke-miterlimit="10"/>
<path d="M315.505 513.156C315.505 513.156 304.484 538.288 303.455 551.369C302.427 564.45 308.305 571.798 311.244 572.092C314.183 572.533 318.445 568.271 318.445 568.271" stroke="#263238" stroke-miterlimit="10"/>
<path d="M300.957 503.897C300.957 503.897 289.054 527.559 288.319 541.228C287.585 554.896 290.23 564.597 295.52 568.124C300.81 571.651 305.954 566.507 305.954 566.507" stroke="#263238" stroke-miterlimit="10"/>
<path d="M449.231 471.709C449.231 471.709 358.709 472.444 329.466 475.531C300.222 478.617 287.585 494.637 280.972 510.951C274.359 527.265 272.155 548.723 275.975 556.072C282.588 568.712 290.23 561.216 290.23 561.216" stroke="#263238" stroke-miterlimit="10"/>
<path d="M456.285 368.681C456.285 368.681 507.131 413.361 500.077 442.315C493.023 471.268 376.784 468.476 376.784 468.476V550.781C376.784 550.781 427.777 549.605 471.421 555.337C522.56 562.098 602.943 543.138 611.025 482.585C619.108 422.032 569.585 312.537 435.271 294.313L456.285 368.681Z" fill="#651FFF"/>
<g opacity="0.3">
<path d="M456.285 368.681C456.285 368.681 507.131 413.361 500.077 442.315C493.023 471.268 376.784 468.476 376.784 468.476V550.781C376.784 550.781 427.777 549.605 471.421 555.337C522.56 562.098 602.943 543.138 611.025 482.585C619.108 422.032 569.585 312.537 435.271 294.313L456.285 368.681Z" fill="white"/>
</g>
<path d="M604.412 476.266V447.018H609.85C609.703 446.577 609.703 445.989 609.556 445.548H604.412V425.413C603.971 423.943 603.384 422.62 602.943 421.151V445.548H575.022V416.3H601.179C601.032 415.86 600.739 415.272 600.592 414.831H575.022V385.583H585.456C585.162 385.142 584.868 384.554 584.574 384.113H575.022V370.592C574.581 370.004 573.993 369.269 573.552 368.681V383.966H545.632V354.719H561.355C560.915 354.278 560.327 353.69 559.886 353.249H545.779V340.315C545.338 339.874 544.75 339.58 544.309 339.139V353.249H516.388V324.001H522.56C521.679 323.56 520.944 322.972 520.062 322.531H516.388V320.474C515.947 320.18 515.36 319.886 514.919 319.739V322.678H486.998V307.099C486.557 306.952 485.969 306.805 485.528 306.511V322.678H457.608V298.428C457.167 298.281 456.579 298.281 456.138 298.134V322.678H443.206L443.647 324.148H456.138V353.396H451.877L452.317 354.866H456.138V368.24L456.285 368.681C456.285 368.681 456.726 369.122 457.608 369.857V354.719H485.528V383.966H471.715C472.156 384.407 472.597 384.995 473.038 385.436H485.382V400.574C485.822 401.309 486.41 401.897 486.851 402.632V385.436H514.772V414.684H494.346C494.639 415.125 494.786 415.713 495.08 416.153H514.772V445.401H498.754C498.46 445.842 498.166 446.43 497.725 446.871H514.772V476.119H486.851V454.954C486.41 455.248 485.822 455.395 485.382 455.689V476.266H457.461V463.332C457.02 463.479 456.432 463.479 455.991 463.626V476.266H428.07V467.006C427.63 467.006 427.042 467.153 426.601 467.153V476.413H398.68V468.623C398.239 468.623 397.651 468.623 397.211 468.623V476.413H376.49V477.882H397.211V506.983H376.49V508.453H397.211V537.7H376.49V539.17H397.211V550.781C397.651 550.781 398.239 550.781 398.68 550.781V539.17H426.601V551.516C427.042 551.516 427.63 551.516 428.07 551.516V539.023H455.991V553.574C456.432 553.574 457.02 553.72 457.461 553.72V539.023H485.382V556.366C485.822 556.366 486.41 556.366 486.851 556.366V538.876H514.772V554.896C515.213 554.896 515.8 554.749 516.241 554.749V538.876H544.162V548.723C544.603 548.576 545.191 548.429 545.632 548.282V539.023H567.968C568.85 538.582 569.732 537.994 570.613 537.553H545.632V508.453H573.552V536.084C573.993 535.79 574.581 535.496 575.022 535.202V508.453H602.061C602.943 507.13 603.678 505.66 604.412 504.337V477.735H611.613C611.613 477.294 611.76 476.706 611.76 476.266H604.412ZM485.528 353.396H457.608V324.148H485.528V353.396ZM426.895 537.7H398.974V508.453H426.895V537.7ZM426.895 506.983H398.974V477.735H426.895V506.983ZM456.138 537.7H428.217V508.453H456.138V537.7ZM456.138 506.983H428.217V477.735H456.138V506.983ZM485.528 537.7H457.608V508.453H485.528V537.7ZM485.528 506.983H457.608V477.735H485.528V506.983ZM514.919 537.7H486.998V508.453H514.919V537.7ZM514.919 506.983H486.998V477.735H514.919V506.983ZM514.919 384.113H486.998V354.866H514.919V384.113ZM514.919 353.396H486.998V324.148H514.919V353.396ZM544.162 537.7H516.241V508.453H544.162V537.7ZM544.162 506.983H516.241V477.735H544.162V506.983ZM544.162 476.266H516.241V447.018H544.162V476.266ZM544.162 445.548H516.241V416.3H544.162V445.548ZM544.162 414.831H516.241V385.583H544.162V414.831ZM544.162 384.113H516.241V354.866H544.162V384.113ZM573.552 506.983H545.632V477.735H573.552V506.983ZM573.552 476.266H545.632V447.018H573.552V476.266ZM573.552 445.548H545.632V416.3H573.552V445.548ZM573.552 414.831H545.632V385.583H573.552V414.831ZM602.943 506.983H575.022V477.735H602.943V506.983ZM602.943 476.266H575.022V447.018H602.943V476.266Z" fill="#FAFAFA"/>
<path d="M456.285 368.681C456.285 368.681 507.131 413.361 500.077 442.315C493.023 471.268 376.784 468.476 376.784 468.476V550.781C376.784 550.781 427.777 549.605 471.421 555.337C522.56 562.098 602.943 543.138 611.025 482.585C619.108 422.032 569.585 312.537 435.271 294.313" stroke="#263238" stroke-miterlimit="10"/>
<path d="M398.239 535.055C398.239 538.435 395.594 541.081 392.214 541.081C388.834 541.081 386.189 538.435 386.189 535.055C386.189 531.675 388.834 529.029 392.214 529.029C395.447 529.029 398.239 531.821 398.239 535.055Z" fill="#263238"/>
<path d="M406.468 468.182V550.634" stroke="#263238" stroke-miterlimit="10"/>
<path d="M452.905 227.146C452.905 236.846 444.97 244.636 435.271 244.636C425.572 244.636 417.637 236.846 417.637 227.146C417.637 217.446 425.572 209.656 435.271 209.656C444.97 209.656 452.905 217.593 452.905 227.146Z" stroke="black" stroke-width="2" stroke-miterlimit="10"/>
<path d="M376.197 173.06H398.24C412.935 173.06 424.985 186.728 424.985 203.483V237.728C424.985 238.757 424.985 239.639 424.838 240.52C425.132 241.549 425.279 242.578 425.279 243.607V264.477V265.653V286.523C425.279 294.166 419.107 300.339 411.465 300.339H402.648C395.007 300.339 388.835 294.166 388.835 286.523V268.004H376.197C361.502 268.004 349.452 254.336 349.452 237.581V203.336C349.452 186.728 361.502 173.06 376.197 173.06Z" fill="white" stroke="#263238" stroke-miterlimit="10"/>
<path d="M419.254 226.558L415.139 199.662C415.139 199.662 340.928 208.921 316.828 172.913C292.728 136.904 318.004 122.501 330.348 124.558C342.545 126.616 356.946 144.106 356.946 144.106C356.946 144.106 345.484 128.527 356.946 126.175C368.408 123.677 380.899 135.581 387.512 147.78C387.512 147.78 436.447 143.224 453.053 172.913C469.658 202.601 456.139 223.618 425.867 254.189L423.809 237.14L419.254 226.558Z" fill="#263238"/>
<path d="M412.493 231.849C412.493 238.904 406.762 244.489 399.855 244.489C392.802 244.489 387.218 238.757 387.218 231.849C387.218 224.794 392.949 219.209 399.855 219.209C406.909 219.209 412.493 224.794 412.493 231.849Z" fill="#651FFF"/>
<path d="M352.537 221.708C351.802 221.708 351.068 221.855 350.333 222.002V235.229C350.333 237.14 350.186 239.051 350.48 240.961C351.068 241.108 351.949 241.108 352.537 241.108C357.827 241.108 362.236 236.846 362.236 231.408C362.236 226.117 357.827 221.708 352.537 221.708Z" fill="#651FFF"/>
<path d="M389.569 214.212C389.569 216.711 387.512 218.768 385.014 218.768C382.515 218.768 380.458 216.711 380.458 214.212C380.458 211.714 382.515 209.656 385.014 209.656C387.659 209.656 389.569 211.714 389.569 214.212Z" fill="#263238"/>
<path d="M360.032 213.477C360.032 215.535 358.268 217.299 356.211 217.299C354.154 217.299 352.39 215.535 352.39 213.477C352.39 211.42 354.154 209.656 356.211 209.656C358.415 209.656 360.032 211.42 360.032 213.477Z" fill="#263238"/>
<path d="M364.44 231.996C364.44 231.996 366.645 238.61 371.494 239.051C376.343 239.492 380.017 234.201 380.311 230.085L364.44 231.996Z" fill="white"/>
<path d="M363.853 232.143C364.587 234.348 366.057 236.699 367.967 238.169C371.347 240.814 375.609 239.492 378.107 236.405C379.576 234.642 380.458 232.437 380.752 230.085C380.752 229.791 380.458 229.497 380.311 229.644C375.609 230.232 371.053 230.82 366.351 231.408C365.763 231.555 365.028 231.555 364.44 231.702C363.853 231.849 363.853 232.731 364.44 232.731C369.143 232.143 373.698 231.555 378.401 230.967C378.989 230.82 379.723 230.82 380.311 230.673C380.164 230.526 380.017 230.379 379.87 230.232C379.576 233.76 377.078 237.728 373.551 238.61C370.171 239.492 367.526 236.993 366.057 234.348C365.616 233.613 365.322 232.878 365.028 232.143C364.734 231.261 363.706 231.555 363.853 232.143Z" fill="#263238"/>
<path d="M407.938 211.567C407.938 221.267 400.884 229.203 392.214 229.203C383.544 229.203 376.49 221.267 376.49 211.567C376.49 201.866 383.544 193.93 392.214 193.93C400.884 193.93 407.938 201.719 407.938 211.567Z" stroke="#4D5A64" stroke-miterlimit="10"/>
<path d="M365.91 209.362C365.91 218.033 360.032 225.088 352.978 225.088C345.777 225.088 340.046 218.033 340.046 209.362C340.046 200.691 345.924 193.636 352.978 193.636C360.179 193.489 365.91 200.544 365.91 209.362Z" stroke="#4D5A64" stroke-miterlimit="10"/>
<path d="M370.465 209.656V224.941L362.53 220.091L370.465 209.656Z" fill="#651FFF"/>
<path d="M365.469 214.065C365.469 214.065 372.229 211.567 376.784 215.388" stroke="#4D5A64" stroke-miterlimit="10"/>
<path d="M407.938 212.155L429.393 216.564" stroke="#4D5A64" stroke-miterlimit="10"/>
<path d="M452.905 227.146C452.905 236.846 444.97 244.636 435.271 244.636C425.572 244.636 417.637 236.846 417.637 227.146C417.637 217.446 425.572 209.656 435.271 209.656C444.97 209.656 452.905 217.593 452.905 227.146Z" fill="white"/>
<path d="M426.307 229.497C426.013 225.97 427.63 221.855 431.01 220.238C432.92 219.356 434.977 219.356 437.035 219.503C437.769 219.65 437.769 218.327 437.035 218.327C433.508 218.033 429.834 218.621 427.483 221.414C426.013 223.178 425.278 225.529 425.132 227.881C425.132 228.322 424.985 228.91 425.132 229.497C425.132 230.232 426.454 230.232 426.307 229.497Z" fill="#263238"/>
<path d="M440.121 307.687H376.784C374.433 307.687 372.67 305.777 372.67 303.572V292.696C372.67 290.344 374.58 288.581 376.784 288.581H440.121C442.472 288.581 444.235 290.491 444.235 292.696V303.572C444.235 305.923 442.325 307.687 440.121 307.687Z" fill="#651FFF"/>
<path opacity="0.3" d="M440.121 307.687H376.784C374.433 307.687 372.67 305.777 372.67 303.572V292.696C372.67 290.344 374.58 288.581 376.784 288.581H440.121C442.472 288.581 444.235 290.491 444.235 292.696V303.572C444.235 305.923 442.325 307.687 440.121 307.687Z" fill="white"/>
<path d="M387.365 297.693C387.365 299.604 385.895 301.073 383.985 301.073C382.074 301.073 380.605 299.604 380.605 297.693C380.605 295.782 382.074 294.313 383.985 294.313C385.895 294.313 387.365 295.929 387.365 297.693Z" fill="#263238"/>
<path d="M428.365 307.687V293.284H444.236V292.549C444.236 292.255 444.236 291.961 444.089 291.814H428.218V288.434H426.748V291.814H398.827V288.434H397.358V291.814H372.376C372.376 292.108 372.229 292.255 372.229 292.549V293.284H397.211V307.687H398.681V293.284H426.601V307.687H428.365Z" fill="#FAFAFA"/>
<path d="M440.121 307.687H376.784C374.433 307.687 372.67 305.777 372.67 303.572V292.696C372.67 290.344 374.58 288.581 376.784 288.581H440.121C442.472 288.581 444.235 290.491 444.235 292.696V303.572C444.235 305.923 442.325 307.687 440.121 307.687Z" stroke="#263238" stroke-miterlimit="10"/>
<path d="M588.982 505.513C574.14 505.513 562.09 517.565 562.09 532.409C562.09 547.254 574.14 559.305 588.982 559.305C603.824 559.305 615.874 547.254 615.874 532.409C616.021 517.565 603.971 505.513 588.982 505.513ZM588.982 549.458C579.577 549.458 571.935 541.816 571.935 532.409C571.935 523.003 579.577 515.36 588.982 515.36C598.387 515.36 606.028 523.003 606.028 532.409C606.028 541.816 598.387 549.458 588.982 549.458Z" fill="white" stroke="#263238" stroke-miterlimit="10"/>
<path d="M581.487 575.766H524.47C519.767 575.766 515.8 571.945 515.8 567.095V498.752C515.8 494.049 519.621 490.081 524.47 490.081H581.487C586.19 490.081 590.157 493.902 590.157 498.752V567.095C590.157 571.798 586.337 575.766 581.487 575.766Z" fill="white" stroke="#263238" stroke-miterlimit="10"/>
<path d="M559.591 557.395H546.512C540.047 557.395 534.756 552.104 534.756 545.637V544.314C534.756 537.847 540.047 532.556 546.512 532.556H559.591C566.057 532.556 571.347 537.847 571.347 544.314V545.637C571.347 552.104 566.057 557.395 559.591 557.395Z" fill="#651FFF"/>
<path d="M541.222 563.715H539.9C537.843 563.715 536.226 562.098 536.226 560.04V551.957C536.226 549.899 537.843 548.282 539.9 548.282H541.222C543.28 548.282 544.896 549.899 544.896 551.957V560.04C544.896 562.098 543.28 563.715 541.222 563.715Z" fill="#651FFF"/>
<path d="M566.058 564.303H564.735C562.678 564.303 561.061 562.686 561.061 560.628V552.545C561.061 550.487 562.678 548.87 564.735 548.87H566.058C568.115 548.87 569.731 550.487 569.731 552.545V560.628C569.731 562.686 567.968 564.303 566.058 564.303Z" fill="#651FFF"/>
<path d="M543.427 539.317C542.252 534.026 541.223 528.588 540.782 523.003C540.048 512.862 545.044 508.159 555.477 509.629C561.062 510.363 563.413 501.839 557.829 501.104C547.395 499.634 534.904 502.133 532.112 514.038C530.202 522.562 532.847 532.997 534.757 541.522C536.08 547.107 544.603 544.902 543.427 539.317Z" fill="#651FFF"/>
<path d="M563.706 540.199C564 539.758 565.764 540.346 566.352 540.493C569.878 541.669 583.545 544.755 582.516 556.513C581.928 564.303 577.52 567.389 573.846 568.712C572.524 569.153 571.495 567.536 572.524 566.507C573.846 565.331 575.169 563.715 575.903 561.951C577.961 557.395 573.846 553.72 562.678 548.429C561.943 548.135 562.384 542.991 562.972 542.404L563.706 540.199Z" fill="#651FFF"/>
<path d="M554.889 503.456C554.889 504.044 554.448 504.484 553.861 504.484C553.273 504.484 552.832 504.044 552.832 503.456C552.832 502.868 553.273 502.427 553.861 502.427C554.448 502.574 554.889 503.015 554.889 503.456Z" fill="#263238"/>
<path d="M553.86 506.983C554.007 507.277 554.154 507.571 554.301 507.865C554.742 508.453 555.477 508.894 556.212 509.188C556.8 509.481 557.534 509.482 558.269 509.482C558.416 509.482 558.416 509.335 558.269 509.335C556.8 509.335 555.036 508.747 554.301 507.277C554.301 507.13 554.154 507.13 554.154 506.983C554.007 506.836 553.86 506.836 553.86 506.983Z" fill="#263238"/>
<path d="M551.362 537.994C551.362 538.876 550.187 539.611 548.864 539.611C547.542 539.611 546.366 538.876 546.366 537.994C546.366 537.113 547.542 536.378 548.864 536.378C550.187 536.378 551.362 537.113 551.362 537.994Z" fill="#651FFF"/>
<path d="M555.918 540.934C555.918 541.375 555.33 541.816 554.449 541.816C553.714 541.816 552.979 541.375 552.979 540.934C552.979 540.493 553.567 540.052 554.449 540.052C555.183 540.052 555.918 540.493 555.918 540.934Z" fill="#651FFF"/>
<path d="M560.473 535.937C560.473 536.525 559.151 537.112 557.681 537.112C556.212 537.112 554.889 536.525 554.889 535.937C554.889 535.349 556.212 534.761 557.681 534.761C559.298 534.761 560.473 535.202 560.473 535.937Z" fill="#651FFF"/>
<path d="M563.412 540.052C564.143 540.052 564.735 539.723 564.735 539.317C564.735 538.911 564.143 538.582 563.412 538.582C562.682 538.582 562.09 538.911 562.09 539.317C562.09 539.723 562.682 540.052 563.412 540.052Z" fill="#651FFF"/>
<g opacity="0.6">
<path d="M551.362 537.994C551.362 538.876 550.187 539.611 548.864 539.611C547.542 539.611 546.366 538.876 546.366 537.994C546.366 537.113 547.542 536.378 548.864 536.378C550.187 536.378 551.362 537.113 551.362 537.994Z" fill="white"/>
<path d="M555.918 540.934C555.918 541.375 555.33 541.816 554.449 541.816C553.714 541.816 552.979 541.375 552.979 540.934C552.979 540.493 553.567 540.052 554.449 540.052C555.183 540.052 555.918 540.493 555.918 540.934Z" fill="white"/>
<path d="M560.473 535.937C560.473 536.525 559.151 537.112 557.681 537.112C556.212 537.112 554.889 536.525 554.889 535.937C554.889 535.349 556.212 534.761 557.681 534.761C559.298 534.761 560.473 535.202 560.473 535.937Z" fill="white"/>
<path d="M563.412 540.052C564.143 540.052 564.735 539.723 564.735 539.317C564.735 538.911 564.143 538.582 563.412 538.582C562.682 538.582 562.09 538.911 562.09 539.317C562.09 539.723 562.682 540.052 563.412 540.052Z" fill="white"/>
</g>
<path d="M582.81 462.744C582.663 468.329 579.283 473.326 574.14 475.237C568.849 477.147 562.824 475.531 559.298 471.121C555.771 466.859 555.33 460.686 558.269 455.983C561.061 451.28 566.645 448.635 572.082 449.81C578.254 450.986 582.663 456.424 582.81 462.744C582.81 464.802 586.19 464.949 586.043 462.744C585.896 455.836 581.781 449.663 575.315 447.165C568.849 444.666 561.208 446.724 556.799 452.162C552.391 457.6 551.803 465.243 555.33 471.268C558.857 477.294 565.91 480.234 572.67 479.058C580.459 477.588 586.043 470.534 586.19 462.744C586.19 460.686 582.81 460.686 582.81 462.744Z" fill="#E0E0E0"/>
<path d="M647.762 410.862C647.615 425.56 637.917 438.64 623.956 443.343C609.996 448.047 593.978 444.078 584.279 432.761C574.727 421.738 573.552 405.424 581.193 393.079C588.982 380.439 604.705 373.972 619.254 376.912C635.271 380.292 647.615 394.107 647.762 410.862C647.762 412.92 651.142 413.067 650.995 410.862C650.848 394.842 640.268 380.733 625.279 375.295C609.996 369.857 592.068 374.413 581.634 386.906C571.347 399.104 569.878 417.035 578.548 430.704C587.218 444.372 603.824 450.986 619.548 448.047C637.329 444.666 650.995 429.087 650.995 410.862C650.995 408.658 647.762 408.658 647.762 410.862Z" fill="#E0E0E0"/>
<path d="M103.307 576.207L258.928 576.501C275.093 576.501 283.469 564.009 277.591 548.429L236.739 440.404C230.861 424.972 213.079 412.332 196.915 412.332L41.2931 412.038C25.1284 412.038 16.7521 424.531 22.6302 440.11L63.4828 548.135C69.3608 563.568 87.142 576.207 103.307 576.207Z" fill="#263238"/>
<path d="M126.82 485.672C128.583 492.579 135.637 498.164 142.543 498.164C149.45 498.164 153.418 492.58 151.654 485.819C149.891 478.911 142.837 473.326 135.931 473.326C129.024 473.326 125.056 478.911 126.82 485.672Z" fill="white"/>
<path d="M211.317 576.501L368.114 576.795C370.171 576.795 371.788 575.179 371.788 573.121V557.248C371.788 555.19 370.171 553.574 368.114 553.574L211.317 553.28C209.259 553.28 207.643 554.896 207.643 556.954V572.827C207.496 574.738 209.259 576.501 211.317 576.501Z" fill="#263238"/>
</svg>
