<svg width="446" height="274" viewBox="0 0 446 274" fill="none" xmlns="http://www.w3.org/2000/svg">
<path d="M444.525 1.05438H0.583893V272.514H444.525V1.05438Z" fill="white" stroke="#E0E0E0" stroke-miterlimit="10"/>
<path d="M0.583801 36.181H444.525" stroke="#E0E0E0" stroke-miterlimit="10"/>
<path d="M32.0313 19.72C32.0313 24.4231 28.2106 28.0974 23.6551 28.0974C18.9527 28.0974 15.2789 24.2761 15.2789 19.72C15.2789 15.0168 19.0996 11.3425 23.6551 11.3425C28.2106 11.3425 32.0313 15.1638 32.0313 19.72Z" fill="#E0E0E0"/>
<path d="M66.271 19.72C66.271 24.4231 62.4502 28.0975 57.8947 28.0975C53.1923 28.0975 49.5185 24.2761 49.5185 19.72C49.5185 15.0168 53.3392 11.3425 57.8947 11.3425C62.5972 11.3425 66.271 15.1638 66.271 19.72Z" fill="#F0F0F0"/>
<path d="M100.658 19.72C100.658 24.4231 96.837 28.0975 92.2815 28.0975C87.579 28.0975 83.9053 24.2761 83.9053 19.72C83.9053 15.0168 87.726 11.3425 92.2815 11.3425C96.9839 11.3425 100.658 15.1638 100.658 19.72Z" fill="#F5F5F5"/>
<path d="M49.8125 104.23H26.1533V110.697H49.8125V104.23Z" fill="#E6E6E6"/>
<path d="M227.771 104.23H67.1527V110.697H227.771V104.23Z" fill="#E6E6E6"/>
<path d="M287.287 104.23H242.319V110.697H287.287V104.23Z" fill="#E6E6E6"/>
<path d="M390.005 191.532H345.038V197.999H390.005V191.532Z" fill="#E6E6E6"/>
<path d="M374.723 104.23H296.985V110.697H374.723V104.23Z" fill="#E6E6E6"/>
<path d="M73.4719 121.573H49.8127V128.039H73.4719V121.573Z" fill="#E6E6E6"/>
<path d="M194.56 121.573H90.224V128.039H194.56V121.573Z" fill="#E6E6E6"/>
<path d="M334.458 191.532H230.122V197.999H334.458V191.532Z" fill="#E6E6E6"/>
<path d="M163.406 174.042H67.1527V180.509H163.406V174.042Z" fill="#E6E6E6"/>
<path d="M135.779 139.062H90.224V145.529H135.779V139.062Z" fill="#E6E6E6"/>
<path d="M317.852 156.552H272.297V163.019H317.852V156.552Z" fill="#E6E6E6"/>
<path d="M302.716 139.062H149.005V145.529H302.716V139.062Z" fill="#E6E6E6"/>
<path d="M220.864 191.532H67.1527V197.999H220.864V191.532Z" fill="#E6E6E6"/>
<path d="M415.281 121.573H291.989V128.039H415.281V121.573Z" fill="#E6E6E6"/>
<path d="M282.143 121.573H205.581V128.039H282.143V121.573Z" fill="#E6E6E6"/>
<path d="M388.095 139.062H311.533V145.529H388.095V139.062Z" fill="#E6E6E6"/>
<path d="M73.4719 139.062H49.8127V145.529H73.4719V139.062Z" fill="#E6E6E6"/>
<path d="M49.8125 156.552H26.1533V163.019H49.8125V156.552Z" fill="#E6E6E6"/>
<path d="M133.134 156.552H67.1527V163.019H133.134V156.552Z" fill="#E6E6E6"/>
<path d="M156.205 209.022H90.224V215.488H156.205V209.022Z" fill="#E6E6E6"/>
<path d="M346.36 226.511H240.114V232.978H346.36V226.511Z" fill="#E6E6E6"/>
<path d="M270.828 209.022H167.521V215.488H270.828V209.022Z" fill="#E6E6E6"/>
<path d="M227.918 226.511H142.833V232.978H227.918V226.511Z" fill="#E6E6E6"/>
<path d="M415.428 209.022H283.024V215.488H415.428V209.022Z" fill="#E6E6E6"/>
<path d="M130.783 226.511H90.224V232.978H130.783V226.511Z" fill="#E6E6E6"/>
<path d="M287.139 174.042H172.958V180.509H287.139V174.042Z" fill="#E6E6E6"/>
<path d="M393.092 174.042H296.985V180.509H393.092V174.042Z" fill="#E6E6E6"/>
<path d="M261.423 156.552H147.388V163.019H261.423V156.552Z" fill="#E6E6E6"/>
<path d="M49.8125 174.042H26.1533V180.509H49.8125V174.042Z" fill="#E6E6E6"/>
<path d="M49.8125 191.532H26.1533V197.999H49.8125V191.532Z" fill="#E6E6E6"/>
<path d="M73.4719 209.022H49.8127V215.488H73.4719V209.022Z" fill="#E6E6E6"/>
<path d="M73.4719 226.511H49.8127V232.978H73.4719V226.511Z" fill="#E6E6E6"/>
<path d="M37.3703 74.6462L26.1611 70.3792V68.4558L37.3703 64.1667V66.3112L28.9468 69.4065L37.3703 72.5459V74.6462ZM49.2664 60.1208L41.7494 75.3537H39.5606L47.0776 60.1208H49.2664ZM62.6417 70.3792L51.4546 74.6684V72.5459L59.856 69.4065L51.4546 66.3112V64.1667L62.6417 68.4558V70.3792Z" fill="#E0E0E0"/>
</svg>
