<svg width="56" height="56" viewBox="0 0 56 56" fill="none" xmlns="http://www.w3.org/2000/svg">
<g clip-path="url(#clip0_449_570)">
<path d="M28 54.5763C42.6778 54.5763 54.5764 42.6777 54.5764 28.0001C54.5764 13.3224 42.6778 1.42383 28 1.42383C13.3224 1.42383 1.4238 13.3224 1.4238 28.0001C1.4238 42.6777 13.3224 54.5763 28 54.5763Z" fill="white"/>
<path d="M28 0C12.536 0 0 12.536 0 28C0 43.4641 12.536 56 28 56C43.4641 56 56 43.4641 56 28C56 12.536 43.4641 0 28 0ZM28 2.84746C41.8913 2.84746 53.1526 14.1086 53.1526 28C53.1526 41.8913 41.8913 53.1526 28 53.1526C14.1086 53.1526 2.84746 41.8913 2.84746 28C2.84746 14.1086 14.1086 2.84746 28 2.84746Z" fill="#4000BF"/>
<path d="M28.3162 8.06787C39.3246 8.06787 48.2486 16.9918 48.2486 28.0001C48.2486 39.0083 39.3246 47.9322 28.3162 47.9322C17.308 47.9322 8.38406 39.0083 8.38406 28.0001C8.38406 25.3098 8.91707 22.7439 9.88326 20.4023C11.294 22.3234 13.5691 23.5706 16.1355 23.5706C20.4165 23.5706 23.8868 20.1002 23.8868 15.8193C23.8868 13.2529 22.6397 10.9778 20.7184 9.5671C23.0601 8.60089 25.6259 8.06787 28.3162 8.06787Z" fill="url(#paint0_linear_449_570)"/>
</g>
<defs>
<linearGradient id="paint0_linear_449_570" x1="28.3162" y1="47.9322" x2="28.3162" y2="8.06787" gradientUnits="userSpaceOnUse">
<stop stop-color="#7400E1"/>
<stop offset="1" stop-color="#4000BF"/>
</linearGradient>
<clipPath id="clip0_449_570">
<rect width="56" height="56" fill="white"/>
</clipPath>
</defs>
</svg>
