<svg width="35" height="32" viewBox="0 0 35 32" fill="none" xmlns="http://www.w3.org/2000/svg">
<g clip-path="url(#clip0_440_550)">
<path d="M27.0035 19.4L22.6212 23.6544C22.4091 23.8601 22.0982 23.9163 21.8306 23.7981C21.5651 23.6813 21.3889 23.4125 21.3889 23.1125V20.8538H13.6111V23.1125C13.6111 23.4122 13.4375 23.6835 13.1699 23.8019C12.9021 23.9203 12.5912 23.864 12.3793 23.6583L7.99654 19.4C7.70456 19.1166 7.70456 18.5913 7.99654 18.3082L12.3776 14.0563C12.5903 13.85 12.9002 13.7938 13.1675 13.9125C13.4349 14.0313 13.6111 14.3 13.6111 14.6V16.8494H21.3889V14.6C21.3889 14.3005 21.5625 14.0291 21.8302 13.9107C22.0979 13.7922 22.4088 13.8485 22.6207 14.0543L27.003 18.3087C27.2951 18.5938 27.2951 19.1188 27.0035 19.4Z" fill="#651FFF"/>
<path opacity="0.4" d="M5.83333 8C7.98316 8 9.72222 6.21125 9.72222 4C9.72222 1.78875 7.98438 0 5.83333 0C3.68229 0 1.94444 1.78875 1.94444 4C1.94444 6.21125 3.68411 8 5.83333 8ZM7.77778 10H3.88889C1.74089 10 0 11.7937 0 14V20C0 21.1044 0.870746 22 1.88976 22L1.94444 30C1.94444 31.1044 2.81519 32 3.88889 32H7.77778C8.85148 32 9.72222 31.1044 9.72222 30V23.9756L6.66215 21.005C6.08247 20.4937 5.83333 19.7625 5.83333 19.0063C5.83333 18.2463 6.13539 17.5169 6.66215 17.0056L11.0451 12.7506C11.1453 12.6534 11.2743 12.6062 11.386 12.527C10.7613 11.05 9.4184 10 7.77778 10ZM29.1667 8C31.3165 8 33.0556 6.21125 33.0556 4C33.0556 1.78875 31.3165 0 29.1667 0C27.0168 0 25.2778 1.78875 25.2778 4C25.2778 6.21125 27.0156 8 29.1667 8ZM31.1111 10H27.2222C25.6363 10 24.1852 11.0481 23.6141 12.5262C23.726 12.6057 23.8552 12.6529 23.9557 12.7505L28.338 17.0042C28.8628 17.5125 29.1667 18.2437 29.1667 19.0063C29.1668 19.7663 28.8647 20.4956 28.3378 21.0069L25.2778 23.975V30C25.2778 31.1044 26.1485 32 27.2222 32H31.1111C32.1848 32 33.0556 31.1044 33.0556 30V22C34.1293 22 35 21.1044 35 20V14C35 11.7937 33.2561 10 31.1111 10Z" fill="#651FFF"/>
</g>
<defs>
<clipPath id="clip0_440_550">
<rect width="35" height="32" fill="white"/>
</clipPath>
</defs>
</svg>
