<svg width="280" height="189" viewBox="0 0 280 189" fill="none" xmlns="http://www.w3.org/2000/svg">
<path d="M34.0069 47.9458L35.0149 60.3707C35.0149 60.3707 26.2677 58.9191 23.9493 63.6177C21.6309 68.3162 21.6272 80.5974 27.0443 87.1255C30.9456 91.8316 35.1157 89.8925 37.1429 88.4409L38.1957 102.015C38.1957 107.084 47.8128 116.421 59.6773 116.421C71.5419 116.421 81.1589 107.084 81.1589 102.015L85.344 47.9609L34.0069 47.9458ZM30.1392 81.6483C26.7792 78.7755 28.5899 66.2372 30.1392 64.6723C31.2853 63.5081 33.9957 64.3586 35.3173 64.8764L36.7024 82.7558C34.9739 83.1905 32.2485 83.4513 30.1392 81.6483Z" fill="#263238"/>
<path d="M59.6773 116.609C48.1339 116.609 38.024 107.514 38.024 102.015L36.9973 88.7846C34.7573 90.2966 30.7216 91.8426 26.9173 87.2537C21.616 80.8579 21.3696 68.4595 23.8 63.538C25.9691 59.1494 33.376 59.947 34.8283 60.136L33.824 47.7451H85.5456V47.9492L81.3605 102.003C81.3456 107.514 71.2171 116.609 59.6773 116.609ZM37.3035 88.0928L38.3787 101.999C38.3787 106.755 47.5888 116.231 59.6773 116.231C71.7659 116.231 80.9573 106.755 80.9573 102.015L85.1275 48.1345H34.2123L35.2203 60.6085L34.9813 60.5707C34.8955 60.5707 26.3499 59.1947 24.1136 63.7194C21.728 68.5502 21.9707 80.7294 27.1861 87.0193C30.9605 91.5553 34.9776 89.7749 37.0347 88.3007L37.3035 88.0928ZM34.2571 83.262C32.7146 83.304 31.2094 82.779 30.0197 81.784C28.5712 80.548 28.1531 77.7356 28.0784 75.5962C27.888 70.9694 28.9968 65.5527 30.0085 64.5283C31.2069 63.3112 33.8912 64.1087 35.3845 64.6909L35.4965 64.7324L36.9003 82.8764L36.7472 82.9142C35.9345 83.1336 35.0981 83.2504 34.2571 83.262ZM30.2587 81.4967C32.2112 83.1675 34.7051 83.0352 36.5045 82.6005L35.1419 65.0159C33.9472 64.5623 31.3301 63.7421 30.2885 64.8118C29.3216 65.7719 28.2688 71.1622 28.4517 75.5999C28.5712 78.5597 29.1984 80.6047 30.2587 81.5156V81.4967Z" fill="#263238"/>
<path d="M59.6774 58.9152C73.8527 58.9152 85.344 54.004 85.344 47.9456C85.344 41.8873 73.8527 36.9761 59.6774 36.9761C45.502 36.9761 34.0107 41.8873 34.0107 47.9456C34.0107 54.004 45.502 58.9152 59.6774 58.9152Z" fill="white"/>
<path d="M59.6773 59.108C45.4197 59.108 33.8203 54.0995 33.8203 47.9457C33.8203 41.7918 45.4197 36.7871 59.6773 36.7871C73.9349 36.7871 85.5307 41.7956 85.5307 47.9457C85.5307 54.0957 73.92 59.108 59.6773 59.108ZM59.6773 37.1651C45.6251 37.1651 34.1936 42.0035 34.1936 47.9457C34.1936 53.8878 45.6251 58.73 59.6773 58.73C73.7296 58.73 85.1573 53.8916 85.1573 47.9457C85.1573 41.9997 73.7259 37.1651 59.6773 37.1651Z" fill="#263238"/>
<path d="M59.6773 57.7055C72.2898 57.7055 82.5141 53.3358 82.5141 47.9455C82.5141 42.5552 72.2898 38.1855 59.6773 38.1855C47.0649 38.1855 36.8405 42.5552 36.8405 47.9455C36.8405 53.3358 47.0649 57.7055 59.6773 57.7055Z" fill="white"/>
<path d="M59.6773 57.8983C46.984 57.8983 36.6501 53.4341 36.6501 47.9455C36.6501 42.457 46.9803 37.9966 59.6773 37.9966C72.3744 37.9966 82.7008 42.4608 82.7008 47.9455C82.7008 53.4303 72.3707 57.8983 59.6773 57.8983ZM59.6773 38.3746C47.1856 38.3746 37.0235 42.6687 37.0235 47.9455C37.0235 53.2224 47.1856 57.5203 59.6773 57.5203C72.1691 57.5203 82.3275 53.2262 82.3275 47.9455C82.3275 42.6649 72.1653 38.3746 59.6773 38.3746Z" fill="#263238"/>
<path d="M59.6773 57.7054C68.5392 57.7054 75.7232 56.4446 75.7232 54.8893C75.7232 53.3341 68.5392 52.0732 59.6773 52.0732C50.8155 52.0732 43.6315 53.3341 43.6315 54.8893C43.6315 56.4446 50.8155 57.7054 59.6773 57.7054Z" fill="#651FFF"/>
<path d="M59.6773 57.8983C53.6069 57.8983 47.8837 56.8928 43.5568 55.0633L43.1461 54.8894L43.5568 54.7155C47.8837 52.8898 53.6069 51.8843 59.6773 51.8843C65.7477 51.8843 71.4709 52.8898 75.7941 54.7155L76.2085 54.8894L75.7941 55.0633C71.4709 56.8928 65.744 57.8983 59.6773 57.8983ZM44.1243 54.8743C48.3541 56.5715 53.8533 57.5203 59.6773 57.5203C65.5013 57.5203 71.0005 56.5866 75.2267 54.8743C71.0005 53.177 65.5013 52.2283 59.6773 52.2283C53.8533 52.2283 48.3541 53.1922 44.1243 54.8894V54.8743Z" fill="#263238"/>
<path d="M150.453 76.8288C150.453 76.8288 162.661 106.184 165.599 107.738C168.538 109.291 254.673 101.72 254.673 101.72L252.228 98.9645L252.112 79.9662L255.334 79.8226L222.428 35.9443L148.075 41.4442C148.075 41.4442 144.107 44.2263 143.554 46.6606C143.002 49.095 143.143 52.7351 143.143 52.7351L150.453 76.8288Z" fill="#263238"/>
<path d="M168.478 108.108C166.839 108.108 165.805 108.04 165.517 107.889C162.553 106.324 150.782 78.0873 150.285 76.8929V76.874L142.957 52.7689V52.7424C142.957 52.7046 142.841 49.0343 143.371 46.6188C143.901 44.2034 147.803 41.4024 147.971 41.2853L148.012 41.2588H148.06L222.507 35.7476L222.566 35.8307L255.696 79.9925L252.299 80.1474L252.414 98.8925L255.061 101.875L254.688 101.905C251.511 102.185 183.766 108.108 168.478 108.108ZM150.633 76.7341C154.847 86.8683 163.412 106.335 165.689 107.537C167.966 108.739 224.414 104.154 254.285 101.531L252.045 99.0059V98.934L251.929 79.7543L254.972 79.6182L222.342 36.1407L148.142 41.6255C147.721 41.9316 144.219 44.5134 143.737 46.702C143.237 48.97 143.319 52.372 143.326 52.7046L150.633 76.7341Z" fill="#263238"/>
<path d="M252.112 79.9658L167.627 86.853C166.35 87.7058 165.275 88.8333 164.478 90.155C163.681 91.4768 163.182 92.9604 163.016 94.4999C162.396 99.8411 164.528 105.265 166.115 106.044C167.271 106.545 168.506 106.83 169.762 106.887L252.228 98.949L252.112 79.9658Z" fill="#E0E0E0"/>
<path d="M169.781 107.08C168.495 107.025 167.23 106.733 166.047 106.218C164.341 105.379 162.228 99.7923 162.844 94.5003C163.017 92.9335 163.527 91.424 164.337 90.0776C165.147 88.7311 166.238 87.5804 167.533 86.7059L167.612 86.6795L252.299 79.7583L252.418 99.1308L252.246 99.1497L169.781 107.08ZM167.668 87.0461C166.431 87.8925 165.39 89.0001 164.617 90.2928C163.843 91.5855 163.356 93.0325 163.188 94.5343C162.564 99.9322 164.786 105.198 166.174 105.874C167.307 106.363 168.517 106.642 169.747 106.698L252.019 98.7906L251.903 80.1665L167.668 87.0461Z" fill="#263238"/>
<path d="M166.133 13.6611L132.052 61.308C132.052 61.308 130.185 63.1602 130.282 67.7C130.379 72.2398 130.599 79.6448 131.932 80.174C133.265 80.7032 231.885 88.2632 231.885 88.2632L254.658 35.0144L252.881 34.2584L253.493 21.1304L254.987 16.8817L168.638 12.7842L166.133 13.6611Z" fill="#651FFF"/>
<path d="M232.004 88.4521H231.87C227.842 88.146 133.213 80.8657 131.869 80.344C130.79 79.9244 130.26 76.1444 130.095 67.7075C130.006 63.1375 131.843 61.255 131.921 61.1756L166.018 13.5023L168.609 12.5913H168.646L255.233 16.7039L253.68 21.1681L253.068 34.1184L254.897 34.9122L254.822 35.0899L232.004 88.4521ZM166.249 13.8198L132.201 61.4176C132.164 61.4591 130.383 63.3076 130.469 67.6961C130.525 70.6105 130.7 79.4822 131.999 79.9887C133.28 80.4083 197.732 85.447 231.765 88.0741L254.408 35.1125L252.683 34.3565L253.318 21.0623L254.714 17.0479L168.665 12.9731L166.249 13.8198Z" fill="#263238"/>
<path d="M135.117 62.665C135.117 62.665 132.033 61.6973 131.156 64.6987C130.278 67.7 132.436 78.575 132.436 78.575C132.436 78.575 134.277 79.3537 135.124 79.3802C135.972 79.4066 230.873 85.7495 230.873 85.7495L252.874 34.2432L253.493 21.1304L232.445 67.2842L135.117 62.665Z" fill="white"/>
<path d="M230.993 85.9462H230.862C229.914 85.8819 135.949 79.5996 135.117 79.5769C134.284 79.5542 132.44 78.7907 132.362 78.7604L132.272 78.7188L132.253 78.6206C132.164 78.1745 130.099 67.6586 130.98 64.6535C131.078 64.2456 131.257 63.8624 131.507 63.5275C131.757 63.1927 132.072 62.9133 132.433 62.7068C133.283 62.3055 134.247 62.2264 135.15 62.4837L232.329 67.0991L253.725 20.1704L253.045 34.3152L230.993 85.9462ZM132.597 78.4391C132.97 78.5941 134.43 79.1687 135.128 79.1951C135.961 79.2178 225.318 85.194 230.754 85.5569L252.691 34.198L253.262 22.102L232.564 67.4809H232.437L135.087 62.8504H135.061C134.247 62.6166 133.378 62.6822 132.608 63.0356C132.292 63.2203 132.016 63.4679 131.797 63.7635C131.579 64.0591 131.421 64.3966 131.335 64.7555C130.529 67.5225 132.388 77.3429 132.597 78.4391Z" fill="#263238"/>
<path d="M230.268 67.1819L135.117 62.6648C135.117 62.6648 132.033 61.6972 131.156 64.6985C130.278 67.6998 132.436 78.5749 132.436 78.5749C132.436 78.5749 134.277 79.3535 135.124 79.38C135.972 79.4065 230.873 85.7493 230.873 85.7493L230.742 67.6053L230.268 67.1819Z" fill="#E0E0E0"/>
<path d="M231.063 85.9498H230.862C229.914 85.8855 135.949 79.6032 135.117 79.5805C134.284 79.5578 132.44 78.7942 132.362 78.764L132.272 78.7224L132.253 78.6241C132.164 78.1781 130.099 67.6621 130.98 64.657C131.078 64.2492 131.257 63.866 131.507 63.5311C131.757 63.1963 132.072 62.9169 132.433 62.7103C133.283 62.3091 134.247 62.2299 135.15 62.4873L230.35 67.0233L230.937 67.5298V67.6168L231.063 85.9498ZM132.597 78.4389C132.97 78.5939 134.43 79.1685 135.128 79.1949C135.957 79.2176 224.605 85.1446 230.701 85.5491L230.571 67.6848L230.197 67.3711L135.087 62.8502H135.061C134.247 62.6164 133.378 62.682 132.608 63.0354C132.292 63.2201 132.016 63.4677 131.797 63.7633C131.579 64.0589 131.421 64.3964 131.335 64.7553C130.529 67.5223 132.388 77.3427 132.597 78.4389Z" fill="#263238"/>
<path d="M147.9 160.272C147.9 160.272 151.387 165.363 155.03 165.284C179.319 164.747 221.207 176.526 226.068 176.526C230.929 176.526 234.543 176.091 234.543 175.044C234.543 173.997 217.448 105.492 217.448 105.492L214.058 104.449L225.699 171.302C225.699 171.302 211.254 169.215 182.075 164.29C152.895 159.365 154.075 155.218 150.55 155.951C147.026 156.685 147.9 160.272 147.9 160.272Z" fill="#651FFF"/>
<path d="M226.068 176.707C224.597 176.707 219.819 175.653 213.207 174.193C197.811 170.791 172.032 165.091 155.034 165.499H154.933C151.267 165.499 147.881 160.616 147.739 160.408L147.709 160.344C147.709 160.276 147.306 158.65 148.135 157.32C148.406 156.915 148.756 156.572 149.164 156.312C149.572 156.052 150.029 155.88 150.506 155.808C151.775 155.543 152.469 155.876 153.985 156.609C156.878 158.004 162.897 160.903 182.097 164.146C208.873 168.682 223.403 170.818 225.463 171.12L213.812 104.214L217.594 105.382L217.62 105.484C218.318 108.282 234.722 174.016 234.722 175.07C234.722 176.125 231.818 176.707 226.068 176.707ZM156.703 165.087C173.734 165.087 198.371 170.527 213.285 173.823C219.875 175.278 224.635 176.329 226.068 176.329C232.18 176.329 234.356 175.664 234.356 175.036C234.304 174.02 223.186 129.276 217.28 105.647L214.293 104.725L225.93 171.532L225.673 171.495C225.531 171.472 210.892 169.348 182.045 164.479C162.788 161.232 156.74 158.314 153.832 156.919C152.339 156.204 151.734 155.906 150.591 156.163C150.162 156.227 149.751 156.381 149.383 156.615C149.016 156.848 148.7 157.156 148.456 157.52C148.016 158.348 147.884 159.308 148.083 160.226C148.374 160.638 151.685 165.201 155.038 165.14C155.575 165.091 156.135 165.087 156.703 165.087Z" fill="#263238"/>
<path d="M229.533 174.738C224.523 174.44 214.775 171.873 190.706 166.872C166.637 161.871 148.617 158.843 148.617 158.843L148.109 160.601C148.941 161.708 151.921 165.364 155.012 165.296C179.319 164.748 221.207 176.526 226.068 176.526C230.929 176.526 234.543 176.091 234.543 175.044C234.543 174.954 232.03 174.889 229.533 174.738Z" fill="#263238"/>
<path d="M226.068 176.707C224.597 176.707 219.819 175.653 213.207 174.194C197.811 170.792 172.039 165.095 155.034 165.5C151.846 165.583 148.833 161.867 147.978 160.729L147.922 160.654L148.501 158.646L148.665 158.673C148.844 158.703 166.988 161.761 190.762 166.702C199.379 168.493 206.125 169.964 211.542 171.147C221.084 173.23 226.341 174.375 229.544 174.549C230.496 174.606 231.455 174.651 232.273 174.689C234.73 174.806 234.73 174.806 234.73 175.037C234.73 176.148 231.818 176.707 226.068 176.707ZM156.703 165.088C173.734 165.088 198.371 170.527 213.285 173.823C219.875 175.278 224.635 176.329 226.068 176.329C231.709 176.329 233.998 175.762 234.315 175.195C233.972 175.158 233.132 175.12 232.254 175.078C231.437 175.04 230.477 174.995 229.522 174.938C226.292 174.745 221.025 173.596 211.463 171.514C206.046 170.33 199.3 168.868 190.687 167.068C168.119 162.377 150.633 159.387 148.766 159.07L148.333 160.582C149.221 161.75 152.04 165.118 154.945 165.118H155.027C155.575 165.091 156.135 165.088 156.703 165.088Z" fill="#263238"/>
<path d="M69.1936 102.816C69.1936 102.816 67.424 103.413 67.1328 104.755C66.8416 106.097 49.8885 174.893 51.5088 175.063C53.1291 175.233 142.445 175.819 143.476 174.764C144.506 173.71 147.9 160.272 147.9 160.272L140.373 170.58L62.8507 168.641L72.1355 104.472L69.1936 102.816Z" fill="#651FFF"/>
<path d="M107.486 175.573C81.8795 175.573 51.9755 175.29 51.4864 175.245C51.4498 175.241 51.4143 175.23 51.3827 175.211C51.351 175.192 51.324 175.166 51.3035 175.135C51.0347 174.757 50.2133 173.585 66.1659 107.953C66.6288 106.063 66.9125 104.891 66.9461 104.729C67.2597 103.3 69.0555 102.676 69.1301 102.653L69.2085 102.627L72.3408 104.37L63.0709 168.456L140.291 170.391L148.314 159.395L148.079 160.332C147.732 161.712 144.648 173.842 143.599 174.893C143.091 175.418 126.467 175.573 107.486 175.573ZM51.5984 174.874C54.5589 174.957 141.415 175.604 143.367 174.609C144.114 173.853 146.395 165.394 147.474 161.179L140.47 170.773H140.373L62.6379 168.83L62.6677 168.618L71.9339 104.577L69.1749 103.043C68.8464 103.171 67.5435 103.746 67.3083 104.816C67.2747 104.982 66.9947 106.135 66.528 108.047C53.032 163.587 51.3408 173.88 51.5984 174.874Z" fill="#263238"/>
<path d="M143.476 174.761C144.51 173.714 147.9 160.283 147.9 160.283L147.399 160.964L142.74 173.124L52.3936 174.303L51.4939 175.059C53.1291 175.207 142.445 175.804 143.476 174.761Z" fill="#263238"/>
<path d="M107.486 175.573C81.8795 175.573 51.9755 175.29 51.4864 175.245L51.0384 175.203L52.3376 174.107H52.4048L142.613 172.931L147.25 160.854L148.314 159.395L148.079 160.332C147.732 161.712 144.648 173.842 143.599 174.893C143.091 175.418 126.47 175.573 107.486 175.573ZM52.0091 174.882C59.1024 174.991 141.195 175.577 143.356 174.613C144.103 173.793 146.283 165.802 147.392 161.512L142.867 173.305H142.744L52.4795 174.485L52.0091 174.882Z" fill="#263238"/>
<path d="M71.2581 101.935L69.1936 102.831L54.8987 172.818L142.74 173.116L148.635 157.747L66.0987 161.776L73.7632 101.788L71.2581 101.935Z" fill="white"/>
<path d="M142.867 173.305H142.74L54.6672 173.007L69.0331 102.699L71.2469 101.75L73.976 101.587L73.9499 101.814L66.3115 161.576L148.915 157.547L142.867 173.305ZM55.1339 172.633L142.621 172.927L148.366 157.951L65.8859 161.977L65.9157 161.754L73.5467 101.988L71.3067 102.124L69.3616 102.967L55.1339 172.633Z" fill="#263238"/>
<path d="M60.7936 164.014L56.7877 170.762L54.8987 172.818L142.74 173.117L148.635 157.747L66.0987 161.777L60.7936 164.014Z" fill="#E0E0E0"/>
<path d="M142.867 173.305H142.74L54.4693 173.007L56.6384 170.644L60.6667 163.863L66.0912 161.595L148.915 157.554L142.867 173.305ZM55.3243 172.633L142.613 172.927L148.359 157.951L66.1397 161.965L60.9131 164.165L56.9184 170.89L55.3243 172.633Z" fill="#263238"/>
<path d="M148.635 157.747V144.018L77.7429 151.926L72.4379 161.33L148.635 157.747Z" fill="#B8B8B8"/>
<path d="M72.1056 161.535L77.6272 151.752H77.7243L148.822 143.814V157.928H148.643L72.1056 161.535ZM77.8587 152.104L72.7664 161.123L148.449 157.566V144.23L77.8587 152.104Z" fill="#263238"/>
<path d="M74.4987 94.3259L72.4379 94.6245L60.7936 164.014C60.7936 164.014 70.3733 163.258 83.3429 160.136C96.3125 157.013 122.696 152.224 131.54 153.57C140.385 154.916 147.9 160.272 147.9 160.272C147.9 160.272 158.935 162.491 171.315 165.027C183.695 167.563 202.119 171.453 214.353 173.536C226.587 175.619 229.533 174.727 229.533 174.727L214.353 103.247L212.878 102.816L220.983 167.579C220.983 167.579 169.867 153.271 163.079 153.271C156.292 153.271 152.626 145.957 139.055 143.273C125.485 140.589 110.309 145.957 97.4923 148.187C89.4565 149.624 81.528 151.619 73.7632 154.16L77.1531 94.3184L74.4987 94.3259Z" fill="#E0E0E0"/>
<path d="M227.024 175.124C224.821 175.124 220.92 174.859 214.331 173.733C204.027 171.99 189.362 168.966 177.58 166.52L171.278 165.224C159.04 162.718 147.974 160.491 147.862 160.469L147.791 160.438C147.717 160.385 140.205 155.078 131.51 153.755C122.528 152.391 95.2971 157.441 83.3877 160.317C75.9609 162.148 68.4158 163.447 60.8085 164.203L60.5696 164.222L60.6107 163.984L72.2773 94.4547L74.5173 94.1372H77.3696L73.9835 153.899C81.6769 151.405 89.5271 149.438 97.4811 148.01C100.714 147.447 104.048 146.694 107.58 145.897C118.082 143.523 128.938 141.073 139.111 143.088C146.455 144.544 150.931 147.36 154.53 149.62C157.603 151.555 160.029 153.083 163.098 153.083C169.643 153.083 216.343 166.078 220.782 167.318L212.654 102.548L214.521 103.111L214.543 103.221L229.749 174.87L229.585 174.92C229.529 174.938 228.872 175.124 227.024 175.124ZM147.974 160.106C148.699 160.253 159.473 162.419 171.353 164.853L177.654 166.15C189.433 168.581 204.094 171.601 214.383 173.358C224.862 175.15 228.529 174.734 229.316 174.595L214.193 103.41L213.099 103.077L221.204 167.832L220.935 167.756C220.423 167.613 169.758 153.457 163.068 153.457C159.891 153.457 157.423 151.903 154.302 149.938C150.733 147.692 146.287 144.895 138.996 143.455C128.916 141.455 118.089 143.897 107.636 146.26C104.1 147.057 100.763 147.813 97.5184 148.38C89.4926 149.818 81.5732 151.81 73.8155 154.341L73.5541 154.432L76.9552 94.5001H74.5136L72.5984 94.776L61.0251 163.791C68.5312 163.022 75.9767 161.733 83.3093 159.936C95.6293 156.961 122.423 151.998 131.574 153.366C140.056 154.67 147.418 159.716 147.974 160.106Z" fill="#263238"/>
<path d="M66.0987 161.776L60.7936 164.014L72.4379 94.6248L77.1531 94.3262L66.0987 161.776Z" fill="white"/>
<path d="M60.5509 164.32L72.2773 94.4434L77.3771 94.1221L66.2667 161.913L60.5509 164.32ZM72.5947 94.8025L61.0213 163.708L65.9195 161.64L76.9179 94.5303L72.5947 94.8025Z" fill="#263238"/>
<path d="M146.866 85.0724C146.866 85.0724 148.195 82.6835 160.279 85.8284C172.364 88.9734 185.02 96.8509 195.339 98.3402C205.658 99.8295 212.427 101.304 212.427 101.304L226.43 173.233C226.43 173.233 203.594 170.1 182.075 164.294C160.556 158.488 151.435 154.602 148.635 157.747L146.866 85.0724Z" fill="white"/>
<path d="M226.669 173.471L226.412 173.434C226.184 173.403 203.31 170.232 182.026 164.475C176.904 163.092 172.536 161.829 168.687 160.722C156.8 157.293 150.827 155.573 148.773 157.875L148.46 158.223L146.679 85.0271L146.705 84.9817C146.761 84.8759 148.239 82.502 160.324 85.6356C165.842 87.0683 171.487 89.4912 176.945 91.8311C183.542 94.6623 189.769 97.3385 195.365 98.1474C205.569 99.6216 212.408 101.119 212.475 101.134L212.595 101.16L226.669 173.471ZM151.947 156.435C155.195 156.435 160.485 157.947 168.803 160.359C172.652 161.466 177.016 162.725 182.138 164.112C202.16 169.529 223.627 172.655 226.203 173.022L212.277 101.478C211.322 101.273 204.766 99.89 195.313 98.5217C189.668 97.7052 183.419 95.0214 176.799 92.1826C171.356 89.8428 165.723 87.4274 160.231 86.0023C149.404 83.19 147.306 84.8683 147.056 85.1367L148.811 157.335C149.531 156.711 150.547 156.435 151.947 156.435Z" fill="#263238"/>
<path d="M208.634 110.376C184.845 105.084 183.415 104.925 183.363 104.921V104.543C183.393 104.543 184.404 104.604 208.701 110.009L208.634 110.376Z" fill="#263238"/>
<path d="M209.156 113.479C206.125 112.802 203.332 112.175 200.827 111.608C197.658 110.894 194.921 110.277 192.741 109.805C184.505 108.017 183.643 107.941 183.609 107.938L183.628 107.56C183.658 107.56 184.43 107.616 192.819 109.45C194.999 109.922 197.736 110.542 200.906 111.256L209.238 113.124L209.156 113.479Z" fill="#263238"/>
<path d="M209.679 116.587C206.521 115.884 203.403 115.165 200.648 114.53C197.71 113.854 195.175 113.272 193.092 112.818C185.005 111.064 183.897 110.966 183.852 110.962L183.878 110.584C183.919 110.584 184.998 110.675 193.17 112.448C195.253 112.901 197.792 113.487 200.734 114.164C203.485 114.795 206.603 115.513 209.761 116.216L209.679 116.587Z" fill="#263238"/>
<path d="M210.187 119.694C207.2 119.032 204.157 118.314 201.204 117.618C198.315 116.942 195.582 116.299 193.431 115.831C185.528 114.114 184.098 113.99 184.098 113.986L184.124 113.608C184.18 113.608 185.562 113.729 193.529 115.46C195.683 115.929 198.415 116.568 201.309 117.248C204.262 117.94 207.316 118.658 210.269 119.319L210.187 119.694Z" fill="#263238"/>
<path d="M210.728 122.801C208.01 122.196 204.949 121.462 201.992 120.756C198.949 120.03 196.075 119.338 193.797 118.866C186.092 117.191 184.356 117.032 184.337 117.032L184.367 116.654C184.434 116.654 186.122 116.809 193.876 118.495C196.157 118.99 199.031 119.678 202.089 120.408C205.046 121.115 208.103 121.844 210.818 122.449L210.728 122.801Z" fill="#263238"/>
<path d="M211.251 125.908C208.809 125.364 205.789 124.63 202.866 123.92C199.774 123.164 196.575 122.385 194.152 121.86C186.644 120.227 184.602 120.038 184.58 120.038L184.613 119.66C184.695 119.66 186.685 119.849 194.23 121.489C196.657 122.018 199.857 122.797 202.955 123.549C205.875 124.26 208.891 124.997 211.329 125.538L211.251 125.908Z" fill="#263238"/>
<path d="M211.773 129.015C209.612 128.535 206.786 127.836 203.791 127.095C200.499 126.278 197.071 125.435 194.503 124.872C187.204 123.285 184.849 123.065 184.826 123.062L184.856 122.684C184.878 122.684 187.249 122.903 194.581 124.498C197.172 125.065 200.585 125.908 203.881 126.724C206.868 127.462 209.694 128.161 211.852 128.641L211.773 129.015Z" fill="#263238"/>
<path d="M212.296 132.122C210.429 131.703 207.67 131.015 204.77 130.285C201.257 129.401 197.624 128.49 194.858 127.885C187.764 126.343 185.095 126.089 185.069 126.089L185.102 125.711C185.129 125.711 187.813 125.968 194.936 127.514C197.706 128.119 201.342 129.026 204.859 129.919C207.76 130.648 210.497 131.336 212.374 131.752L212.296 132.122Z" fill="#263238"/>
<path d="M212.819 135.229C211.206 134.87 208.581 134.201 205.807 133.494C202.231 132.58 198.177 131.544 195.209 130.898C188.324 129.386 185.341 129.117 185.311 129.113L185.345 128.735C185.375 128.735 188.377 129.026 195.287 130.531C198.274 131.177 202.317 132.213 205.897 133.128C208.671 133.835 211.292 134.504 212.901 134.863L212.819 135.229Z" fill="#263238"/>
<path d="M213.341 138.348C211.99 138.049 209.608 137.437 206.883 136.726C203.067 135.736 198.744 134.617 195.563 133.921C188.888 132.47 185.588 132.152 185.558 132.149L185.591 131.771C185.625 131.771 188.951 132.092 195.642 133.551C198.83 134.246 203.157 135.365 206.976 136.356C209.713 137.063 212.076 137.679 213.423 137.977L213.341 138.348Z" fill="#263238"/>
<path d="M213.864 141.448C212.766 141.202 210.567 140.624 208.021 139.954C204.15 138.938 199.334 137.686 195.914 136.93C189.452 135.521 185.834 135.169 185.801 135.169L185.834 134.791C189.251 135.198 192.644 135.787 196 136.556C199.427 137.312 204.247 138.571 208.122 139.58C210.665 140.249 212.86 140.828 213.954 141.07L213.864 141.448Z" fill="#263238"/>
<path d="M214.39 144.555C213.528 144.362 211.62 143.851 209.205 143.209C205.3 142.169 199.95 140.744 196.269 139.939C192.893 139.173 189.48 138.589 186.043 138.189L186.081 137.811C189.531 138.214 192.958 138.801 196.347 139.569C200.036 140.374 205.389 141.803 209.302 142.846C211.71 143.485 213.614 143.98 214.469 144.184L214.39 144.555Z" fill="#263238"/>
<path d="M214.913 147.662C214.275 147.518 212.595 147.064 210.47 146.49C206.304 145.356 200.599 143.821 196.62 142.952C193.209 142.189 189.761 141.608 186.29 141.213L186.323 140.835C189.809 141.23 193.273 141.812 196.698 142.578C200.685 143.451 206.405 144.993 210.567 146.123C212.688 146.694 214.361 147.148 214.991 147.287L214.913 147.662Z" fill="#263238"/>
<path d="M215.436 150.769C215.003 150.671 213.67 150.308 211.826 149.802C207.891 148.72 201.298 146.914 196.974 145.965C193.522 145.207 190.033 144.63 186.521 144.237L186.558 143.859C190.08 144.251 193.58 144.83 197.042 145.594C201.376 146.539 207.973 148.35 211.911 149.431C213.752 149.938 215.081 150.3 215.503 150.395L215.436 150.769Z" fill="#263238"/>
<path d="M215.958 153.876C215.708 153.82 214.745 153.551 213.289 153.147C209.369 152.051 202.089 150.017 197.325 148.989C193.84 148.233 190.319 147.661 186.775 147.276L186.812 146.898C190.37 147.286 193.905 147.861 197.404 148.622C202.16 149.662 209.462 151.699 213.386 152.78C214.786 153.158 215.798 153.453 216.037 153.506L215.958 153.876Z" fill="#263238"/>
<path d="M216.481 156.984C216.384 156.961 215.873 156.817 214.95 156.556C211.374 155.54 203.004 153.154 197.68 151.994C194.165 151.241 190.613 150.672 187.04 150.289L187.074 149.911C190.668 150.298 194.24 150.869 197.777 151.623C203.112 152.791 211.493 155.173 215.07 156.19C215.895 156.424 216.492 156.594 216.582 156.613L216.481 156.984Z" fill="#263238"/>
<path d="M216.993 160.087C216.873 160.053 204.829 156.496 198.031 155.007C192.827 153.873 187.32 153.321 187.264 153.313L187.301 152.935C190.93 153.317 194.537 153.884 198.109 154.632C204.919 156.144 216.978 159.686 217.097 159.72L216.993 160.087Z" fill="#263238"/>
<path d="M179.573 103.859C174.94 101.701 171.681 99.8185 169.064 98.3065C166.342 96.7302 164.188 95.4904 161.814 94.7117C158.449 93.6844 154.975 93.0727 151.465 92.8897V92.5117C155.01 92.6948 158.52 93.313 161.918 94.3526C164.334 95.1426 166.499 96.3938 169.243 97.9776C171.857 99.4896 175.105 101.38 179.723 103.515L179.573 103.859Z" fill="#263238"/>
<path d="M179.823 106.928C175.668 104.993 172.607 103.247 170.147 101.844C167.276 100.207 165.006 98.9147 162.344 98.0416C157.185 96.3443 151.95 96.0646 151.547 96.1289L151.45 95.7509C151.697 95.6753 157.05 95.8945 162.46 97.6711C165.159 98.5556 167.44 99.856 170.33 101.504C172.909 102.974 175.836 104.645 179.98 106.577L179.823 106.928Z" fill="#263238"/>
<path d="M180.059 109.998C176.355 108.271 173.619 106.732 171.203 105.371C168.198 103.678 165.823 102.347 162.863 101.364C157.069 99.4518 151.898 99.2704 151.581 99.3649L151.469 98.9869C151.917 98.8432 157.27 99.1041 162.979 100.99C165.965 101.981 168.362 103.323 171.386 105.027C173.794 106.381 176.523 107.919 180.215 109.639L180.059 109.998Z" fill="#263238"/>
<path d="M180.298 113.071C177.02 111.559 174.489 110.138 172.256 108.913C169.269 107.242 166.656 105.802 163.382 104.713C157.274 102.687 152.148 102.445 151.599 102.623L151.487 102.264C152.234 102.022 157.517 102.37 163.498 104.354C166.809 105.451 169.415 106.902 172.435 108.58C174.675 109.82 177.188 111.226 180.451 112.738L180.298 113.071Z" fill="#263238"/>
<path d="M180.533 116.144C177.662 114.806 175.343 113.532 173.298 112.41C170.191 110.701 167.511 109.231 163.897 108.025C157.356 105.848 152.324 105.625 151.618 105.851L151.506 105.492C152.413 105.198 157.767 105.587 164.017 107.666C167.66 108.879 170.363 110.361 173.477 112.077C175.515 113.211 177.83 114.466 180.686 115.8L180.533 116.144Z" fill="#263238"/>
<path d="M180.768 119.213C178.282 118.057 176.269 116.964 174.328 115.906C171.136 114.175 168.377 112.678 164.416 111.37C157.498 109.056 152.54 108.818 151.637 109.102L151.525 108.743C152.663 108.365 157.987 108.815 164.532 111.011C168.526 112.345 171.431 113.921 174.503 115.588C176.441 116.643 178.45 117.732 180.925 118.884L180.768 119.213Z" fill="#263238"/>
<path d="M181.003 122.283C178.879 121.296 177.079 120.328 175.343 119.395C172.219 117.72 169.269 116.136 164.935 114.681C157.815 112.296 152.772 111.975 151.655 112.338L151.543 111.96C152.88 111.529 158.099 111.96 165.051 114.307C169.415 115.774 172.379 117.361 175.504 119.047C177.24 119.977 179.036 120.937 181.149 121.924L181.003 122.283Z" fill="#263238"/>
<path d="M181.238 125.356C179.454 124.525 177.878 123.682 176.337 122.869C173.171 121.187 170.177 119.599 165.45 118.012C157.853 115.453 152.97 115.161 151.674 115.577L151.562 115.218C153.238 114.678 158.719 115.347 165.57 117.652C170.326 119.251 173.469 120.922 176.512 122.536C178.039 123.345 179.618 124.184 181.395 125.012L181.238 125.356Z" fill="#263238"/>
<path d="M181.474 128.425C180.003 127.741 178.696 127.053 177.311 126.327C173.681 124.332 169.886 122.663 165.969 121.338C158.555 118.835 153.369 118.28 151.693 118.82L151.581 118.461C153.373 117.883 158.551 118.439 166.089 120.979C170.023 122.311 173.836 123.988 177.483 125.991C178.864 126.717 180.167 127.401 181.63 128.081L181.474 128.425Z" fill="#263238"/>
<path d="M181.709 131.495C180.529 130.946 179.428 130.361 178.259 129.767C174.491 127.733 170.56 126.028 166.507 124.668C158.275 121.882 153.403 121.527 151.73 122.063L151.618 121.704C153.425 121.122 158.316 121.5 166.626 124.309C170.703 125.674 174.659 127.387 178.45 129.431C179.611 130.035 180.712 130.606 181.884 131.154L181.709 131.495Z" fill="#263238"/>
<path d="M181.944 134.568C181.029 134.141 180.13 133.676 179.174 133.188C175.265 131.123 171.196 129.386 167.007 127.995C156.617 124.475 152.861 124.94 151.73 125.307L151.618 124.929C154.082 124.139 159.734 125.118 167.123 127.62C171.331 129.015 175.418 130.76 179.342 132.837C180.294 133.324 181.19 133.786 182.101 134.209L181.944 134.568Z" fill="#263238"/>
<path d="M182.187 137.637C181.507 137.32 180.802 136.96 180.055 136.582C176.025 134.494 171.836 132.735 167.53 131.321C157.718 127.991 153.537 127.975 151.756 128.55L151.644 128.172C154.258 127.325 159.809 128.285 167.649 130.95C171.972 132.374 176.177 134.143 180.223 136.242C180.97 136.62 181.671 136.976 182.343 137.289L182.187 137.637Z" fill="#263238"/>
<path d="M182.414 140.711C181.944 140.488 181.447 140.238 180.873 139.955C178.588 138.821 175.134 137.07 168.041 134.663C159.925 131.899 154.452 130.939 151.767 131.801L151.655 131.442C154.452 130.542 159.85 131.476 168.161 134.303C175.276 136.726 178.745 138.461 181.037 139.622C181.612 139.909 182.105 140.159 182.571 140.378L182.414 140.711Z" fill="#263238"/>
<path d="M182.65 143.78C182.355 143.64 182.022 143.477 181.634 143.285C179.614 142.279 176.232 140.597 168.567 137.993C159.981 135.067 154.646 134.129 151.794 135.048L151.682 134.67C154.612 133.725 160.014 134.67 168.687 137.618C176.381 140.242 179.779 141.931 181.806 142.941C182.179 143.133 182.523 143.296 182.814 143.432L182.65 143.78Z" fill="#263238"/>
<path d="M182.885 146.849L182.317 146.573C180.824 145.847 177.386 144.143 169.079 141.308C159.999 138.208 154.833 137.301 151.809 138.284L151.693 137.925C154.803 136.923 160.037 137.83 169.198 140.949C177.527 143.795 180.999 145.503 182.482 146.241C182.706 146.354 182.889 146.445 183.042 146.513L182.885 146.849Z" fill="#263238"/>
<path d="M183.12 149.922L182.903 149.817C180.059 148.425 175.582 146.683 169.594 144.634C160.138 141.402 154.989 140.499 151.827 141.519L151.711 141.141C155.004 140.083 160.052 140.956 169.714 144.264C175.717 146.316 180.208 148.063 183.064 149.461L183.277 149.563L183.12 149.922Z" fill="#263238"/>
<path d="M183.351 152.988C183.322 152.988 180.223 151.427 170.113 147.964C160.145 144.562 155.18 143.682 151.846 144.759L151.73 144.4C155.165 143.292 160.179 144.162 170.233 147.605C180.376 151.079 183.49 152.636 183.52 152.652L183.351 152.988Z" fill="#263238"/>
<path d="M146.866 85.0726L148.635 157.747C148.635 157.747 143.33 146.706 129.181 147.163C115.031 147.62 83.7872 158.654 78.7808 159.697C73.7744 160.741 66.0987 161.784 66.0987 161.784L74.4987 92.3945C74.4987 92.3945 111.627 85.5224 119.467 83.1335C127.307 80.7445 134.06 78.2195 139.07 79.4026C144.081 80.5858 146.866 81.493 146.866 85.0726Z" fill="white"/>
<path d="M65.8859 161.996L65.9157 161.754L74.3307 92.2319L74.4651 92.2055C74.8384 92.1374 111.686 85.3183 119.399 82.9596C120.41 82.6496 121.406 82.3409 122.386 82.0335C128.99 79.962 134.706 78.1741 139.104 79.2249C144.036 80.4005 147.06 81.3115 147.06 85.0764L148.852 158.616L148.478 157.838C148.426 157.728 143.054 146.906 129.196 147.348C118.802 147.677 99.1909 153.729 87.472 157.342C83.2235 158.654 80.1509 159.61 78.8219 159.879C73.864 160.915 66.2107 161.962 66.1285 161.973L65.8859 161.996ZM74.6667 92.5457L66.3152 161.557C67.6517 161.368 74.2859 160.423 78.736 159.501C80.0501 159.229 83.272 158.234 87.3525 156.976C99.0901 153.355 118.713 147.295 129.166 146.963C141.236 146.585 146.981 154.602 148.422 156.998L146.671 85.0726C146.671 81.5837 143.901 80.7521 139.007 79.5878C134.691 78.5597 129.035 80.3438 122.483 82.3888C121.505 82.6912 120.512 83.0049 119.497 83.3149C112 85.6056 77.1381 92.0883 74.6667 92.5457Z" fill="#263238"/>
<path d="M110.739 94.479L83.0981 100.762L83.1802 101.132L110.821 94.8494L110.739 94.479Z" fill="#263238"/>
<path d="M82.3237 104.045L82.2416 103.667C88.2859 102.287 99.7883 99.6523 100.113 99.5502C100.486 99.4293 109.618 97.3729 110.006 97.2822L110.085 97.6602C106.803 98.4162 100.516 99.8262 100.225 99.9282C99.8144 100.053 83.0368 103.882 82.3237 104.045Z" fill="#263238"/>
<path d="M82.0213 107.152L81.9392 106.774C82.1109 106.732 99.1611 102.797 99.9563 102.544C100.751 102.29 109.558 100.314 109.935 100.227L110.018 100.605C109.924 100.605 100.804 102.676 100.068 102.91C99.2581 103.194 82.7269 106.974 82.0213 107.152Z" fill="#263238"/>
<path d="M81.7227 110.259L81.6368 109.881C81.8048 109.843 98.6011 105.919 99.8032 105.538C100.923 105.182 109.51 103.251 109.865 103.171L109.947 103.549C109.857 103.572 101.017 105.557 99.9152 105.908C98.7019 106.294 82.4133 110.1 81.7227 110.259Z" fill="#263238"/>
<path d="M81.4203 113.37L81.3344 112.992C81.5024 112.954 98.0448 109.041 99.6464 108.531C101.14 108.059 109.443 106.195 109.797 106.116L109.876 106.494C109.79 106.494 101.229 108.433 99.7584 108.902C98.1419 109.416 82.0997 113.207 81.4203 113.37Z" fill="#263238"/>
<path d="M81.1179 116.473L81.032 116.095C81.1963 116.057 97.4885 112.16 99.4933 111.521C101.36 110.932 109.387 109.132 109.726 109.057L109.809 109.435C109.723 109.454 101.446 111.325 99.6053 111.892C97.5856 112.534 81.7899 116.314 81.1179 116.473Z" fill="#263238"/>
<path d="M80.8155 119.584L80.7296 119.206C80.8901 119.168 96.9285 115.286 99.3365 114.519C101.577 113.808 109.577 112.02 109.655 112.001L109.738 112.379C109.655 112.398 101.659 114.183 99.4485 114.886C97.0293 115.668 80.976 119.543 80.8155 119.584Z" fill="#263238"/>
<path d="M80.5131 122.691L80.4272 122.313C80.584 122.275 96.3723 118.405 99.1797 117.512C101.793 116.685 109.51 114.961 109.588 114.946L109.667 115.324C109.588 115.343 101.875 117.063 99.2917 117.883C96.4731 118.779 80.6736 122.649 80.5131 122.691Z" fill="#263238"/>
<path d="M80.2107 125.798L80.1248 125.42C80.2779 125.379 95.8048 121.523 99.0267 120.506C101.991 119.561 109.443 117.906 109.517 117.887L109.599 118.265C109.521 118.265 102.088 119.935 99.1461 120.873C95.9131 121.897 80.3675 125.76 80.2107 125.798Z" fill="#263238"/>
<path d="M79.912 128.898L79.8187 128.52C79.9755 128.482 95.256 124.638 98.8587 123.485C102.196 122.423 109.364 120.839 109.435 120.82L109.517 121.198C109.446 121.198 102.293 122.797 98.9707 123.844C95.3568 125.019 80.0651 128.867 79.912 128.898Z" fill="#263238"/>
<path d="M79.6096 132.013L79.5163 131.635C79.6693 131.597 94.696 127.764 98.7168 126.486C102.42 125.307 109.308 123.784 109.379 123.769L109.458 124.147C109.39 124.147 102.517 125.681 98.8251 126.853C94.8005 128.142 79.7589 131.975 79.6096 132.013Z" fill="#263238"/>
<path d="M79.3072 135.12L79.2139 134.742C79.3632 134.704 94.1472 130.886 98.56 129.48C102.637 128.183 109.241 126.728 109.308 126.713L109.387 127.091C109.323 127.091 102.73 128.554 98.672 129.847C94.2405 131.26 79.4565 135.082 79.3072 135.12Z" fill="#263238"/>
<path d="M79.0048 138.227L78.9115 137.849C79.0571 137.811 93.5835 134.008 98.4032 132.474C102.85 131.056 109.178 129.669 109.23 129.654L109.308 130.032C109.245 130.032 102.935 131.43 98.504 132.84C93.6843 134.383 79.1467 138.189 79.0048 138.227Z" fill="#263238"/>
<path d="M78.7024 141.334L78.6091 140.956C78.7509 140.918 93.0235 137.127 98.2501 135.468C103.066 133.933 109.11 132.61 109.17 132.599L109.249 132.977C109.189 132.977 103.159 134.307 98.3621 135.834C93.128 137.501 78.848 141.296 78.7024 141.334Z" fill="#263238"/>
<path d="M78.4 144.441L78.3029 144.063C78.4448 144.022 92.4635 140.246 98.0896 138.454C103.275 136.806 109.039 135.551 109.095 135.536L109.174 135.914C109.118 135.914 103.372 137.176 98.2016 138.824C92.5867 140.616 78.5419 144.396 78.4 144.441Z" fill="#263238"/>
<path d="M78.1013 147.548L78.0043 147.17C78.1424 147.132 91.9072 143.368 97.9365 141.447C103.495 139.678 108.976 138.491 109.032 138.48L109.107 138.858C109.054 138.858 103.589 140.052 98.0485 141.814C92.0117 143.746 78.2395 147.51 78.1013 147.548Z" fill="#263238"/>
<path d="M77.7989 150.656L77.7019 150.278C77.8363 150.24 91.3509 146.498 97.7835 144.441C103.708 142.551 108.909 141.417 108.961 141.417L109.039 141.795C108.987 141.795 103.813 142.929 97.8955 144.819C91.4667 146.864 77.9333 150.618 77.7989 150.656Z" fill="#263238"/>
<path d="M114.079 93.5888L113.964 93.2108C115.017 92.8706 139.791 84.9326 143.55 89.117L143.274 89.3741C139.675 85.3824 114.333 93.5056 114.079 93.5888Z" fill="#263238"/>
<path d="M113.997 96.6016L113.882 96.2425C113.971 96.2122 122.696 93.3772 130.458 91.8993C133.75 91.2793 141.62 90.0697 143.562 92.2319L143.285 92.4889C142.027 91.0828 137.256 91.0034 130.525 92.2697C122.789 93.7439 114.083 96.5713 113.997 96.6016Z" fill="#263238"/>
<path d="M113.915 99.6142L113.803 99.2551C113.889 99.2249 122.763 96.3105 130.428 94.8741C137.069 93.657 142.233 93.8346 143.573 95.3277L143.297 95.5848C142.061 94.2051 136.913 94.0728 130.495 95.2483C122.864 96.6772 114.005 99.584 113.915 99.6142Z" fill="#263238"/>
<path d="M113.837 102.627L113.717 102.268C113.811 102.237 122.842 99.2248 130.394 97.8526C136.707 96.7186 142.255 96.9454 143.584 98.4234L143.308 98.6804C142.079 97.3121 136.558 97.1155 130.461 98.2231C122.935 99.5914 113.926 102.597 113.837 102.627Z" fill="#263238"/>
<path d="M113.755 105.64L113.639 105.262C113.729 105.232 122.916 102.136 130.364 100.809C136.461 99.7241 142.274 100.027 143.595 101.501L143.319 101.758C142.251 100.567 137.021 100.008 130.428 101.179C123.01 102.521 113.867 105.61 113.755 105.64Z" fill="#263238"/>
<path d="M113.676 108.656L113.557 108.297C113.65 108.263 122.991 105.084 130.334 103.802C136.823 102.668 142.434 103.311 143.61 104.615L143.33 104.872C142.397 103.829 137.252 102.982 130.398 104.177C123.084 105.462 113.77 108.622 113.676 108.656Z" fill="#263238"/>
<path d="M113.594 111.669L113.475 111.31C113.568 111.276 123.066 108.014 130.305 106.774C137.271 105.591 142.613 106.596 143.621 107.73L143.345 107.987C142.498 107.042 137.435 105.965 130.364 107.171C123.159 108.38 113.687 111.635 113.594 111.669Z" fill="#263238"/>
<path d="M113.512 114.681L113.393 114.322C113.49 114.288 123.144 110.947 130.271 109.756C137.398 108.565 142.737 109.813 143.633 110.807L143.356 111.064C142.531 110.145 137.189 108.985 130.334 110.126C123.234 111.313 113.609 114.647 113.512 114.681Z" fill="#263238"/>
<path d="M113.434 117.694L113.31 117.338C113.407 117.301 123.219 113.88 130.241 112.731C137.207 111.597 142.748 112.908 143.644 113.902L143.36 114.156C142.613 113.324 137.267 111.96 130.293 113.101C123.319 114.243 113.531 117.66 113.434 117.694Z" fill="#263238"/>
<path d="M113.351 120.707L113.228 120.352C113.329 120.314 123.308 116.813 130.211 115.706C137.305 114.572 142.845 116.084 143.651 116.999L143.375 117.256C142.778 116.59 137.521 114.92 130.263 116.08C123.387 117.18 113.452 120.673 113.351 120.707Z" fill="#263238"/>
<path d="M113.269 123.719L113.146 123.364C113.247 123.326 123.368 119.747 130.181 118.684C137.555 117.532 143.02 119.376 143.666 120.094L143.39 120.351C142.942 119.852 137.887 117.86 130.237 119.055C123.461 120.117 113.37 123.685 113.269 123.719Z" fill="#263238"/>
<path d="M113.187 126.736L113.064 126.377C113.169 126.339 123.446 122.684 130.148 121.659C137.924 120.469 143.196 122.653 143.677 123.171L143.401 123.428C143.002 122.979 137.801 120.854 130.204 122.015C123.536 123.05 113.292 126.698 113.187 126.736Z" fill="#263238"/>
<path d="M113.12 129.749L112.993 129.39C113.098 129.355 123.532 125.61 130.129 124.634C137.85 123.5 143.27 125.806 143.7 126.286L143.423 126.543C143.188 126.279 138.137 123.822 130.185 125.008C123.611 125.988 113.213 129.711 113.12 129.749Z" fill="#263238"/>
<path d="M113.027 132.761L112.9 132.406C113.008 132.364 123.596 128.558 130.073 127.609C137.771 126.475 143.244 128.891 143.685 129.382L143.409 129.639C143.106 129.333 137.943 126.846 130.125 127.983C123.689 128.925 113.12 132.724 113.027 132.761Z" fill="#263238"/>
<path d="M112.945 135.774L112.821 135.418C112.926 135.381 123.674 131.506 130.054 130.587C138.126 129.453 143.457 132.194 143.711 132.477L143.438 132.735C143.017 132.357 137.782 129.884 130.107 130.962C123.764 131.876 113.053 135.736 112.945 135.774Z" fill="#263238"/>
<path d="M112.866 138.787L112.739 138.431C112.847 138.393 123.749 134.44 130.025 133.563C138.074 132.455 143.465 135.283 143.726 135.574L143.45 135.831C143.423 135.831 138.305 132.807 130.077 133.941C123.838 134.806 112.974 138.749 112.866 138.787Z" fill="#263238"/>
<path d="M112.784 141.799L112.657 141.444C112.769 141.402 123.827 137.373 129.995 136.53C138.331 135.396 143.644 138.597 143.696 138.627L143.502 138.953C143.45 138.919 138.245 135.8 130.043 136.908C123.917 137.739 112.892 141.75 112.784 141.799Z" fill="#263238"/>
<path d="M177.259 164.781C177.259 164.781 176.101 164.49 174.302 164.108L174.38 163.73C176.187 164.108 177.341 164.403 177.367 164.407L177.259 164.781Z" fill="#263238"/>
<path d="M172.962 163.832C171.386 163.519 170.076 162.377 168.691 161.186C166.943 159.674 165.137 158.083 162.598 158.007C157.613 157.913 152.653 158.75 147.967 160.476L147.821 160.533L147.739 160.396C147.167 159.514 146.538 158.672 145.854 157.875L146.134 157.629C146.798 158.402 147.412 159.216 147.974 160.068C152.668 158.37 157.626 157.545 162.609 157.629C165.278 157.709 167.138 159.33 168.937 160.899C170.281 162.071 171.55 163.167 173.044 163.477L172.962 163.832Z" fill="#263238"/>
<path d="M144.879 156.779C143.955 155.801 142.956 154.897 141.893 154.076L142.117 153.778C143.195 154.609 144.206 155.525 145.141 156.518L144.879 156.779Z" fill="#263238"/>
<path d="M141.9 154.076C140.397 152.906 138.737 151.96 136.969 151.268C129.293 148.319 120.751 150.535 119.795 150.795L119.698 150.417C120.658 150.153 129.308 147.911 137.095 150.905C138.896 151.61 140.587 152.574 142.117 153.766L141.9 154.076Z" fill="#263238"/>
<path d="M98.0523 156.178L97.9701 155.8C98.1792 155.751 118.959 151.053 127.837 151.264C131.298 151.314 134.728 151.931 137.995 153.09L137.868 153.445C134.635 152.299 131.24 151.692 127.814 151.65C118.985 151.442 98.2613 156.133 98.0523 156.178Z" fill="#263238"/>
<path d="M141.232 155.074C140.685 154.713 140.109 154.398 139.511 154.133L139.664 153.789C140.281 154.067 140.876 154.392 141.445 154.761L141.232 155.074Z" fill="#263238"/>
<path d="M140.002 160.867L83.5892 163.601L83.607 163.979L140.02 161.245L140.002 160.867Z" fill="#263238"/>
<path d="M145.31 160.603L142.23 160.752L142.248 161.13L145.328 160.98L145.31 160.603Z" fill="#263238"/>
<path d="M101.2 166.206L97.9122 166.29L97.9216 166.668L101.21 166.584L101.2 166.206Z" fill="#263238"/>
<path d="M96.0269 166.342L69.9467 167.011L69.9562 167.389L96.0363 166.72L96.0269 166.342Z" fill="#263238"/>
<path d="M137.159 168.339L134.262 168.427L134.274 168.805L137.171 168.717L137.159 168.339Z" fill="#263238"/>
<path d="M131.932 168.494L95.1964 169.609L95.2076 169.987L131.944 168.872L131.932 168.494Z" fill="#263238"/>
<path d="M121.969 165.126L114.275 165.392L114.288 165.77L121.982 165.503L121.969 165.126Z" fill="#263238"/>
<path d="M143.159 164.392L124.077 165.053L124.09 165.431L143.171 164.77L143.159 164.392Z" fill="#263238"/>
<path d="M88.9587 169.398L86.2978 169.472L86.308 169.85L88.9689 169.776L88.9587 169.398Z" fill="#263238"/>
<path d="M84.6373 169.518L59.8797 170.205L59.8899 170.583L84.6476 169.896L84.6373 169.518Z" fill="#263238"/>
<path d="M104.205 87.0497C104.205 87.0497 109.693 79.743 113.165 76.7001C116.637 73.6572 122.562 68.8604 124.97 68.8604C127.378 68.8604 127.975 70.3724 128.128 70.9129C128.281 71.4534 130.293 79.1344 130.293 79.5162C130.293 79.898 128.191 80.5065 128.053 80.0492C127.915 79.5918 127.001 73.0448 126.627 71.8277C126.254 70.6105 126.325 69.9377 123.469 71.1435C120.613 72.3493 112.194 81.4931 110.462 83.6175C108.73 85.7418 107.079 87.9569 107.079 87.9569C107.079 87.9569 105.034 87.0497 104.205 87.0497Z" fill="#263238"/>
<path d="M107.121 88.1989L106.986 88.1384C106.967 88.1384 104.981 87.2387 104.205 87.2387H103.831L104.059 86.9363C104.115 86.8645 109.599 79.5805 113.019 76.5565C115.711 74.1864 122.263 68.6714 124.943 68.6714C127.396 68.6714 128.094 70.2023 128.281 70.8638C128.386 71.2418 130.465 79.0815 130.465 79.5162C130.465 79.9509 129.207 80.3062 128.871 80.3629C128.277 80.4574 127.934 80.3629 127.848 80.1097C127.788 79.9207 127.643 79.0021 127.389 77.3918C127.075 75.3733 126.642 72.6064 126.418 71.8844L126.336 71.6047C126.213 71.1737 126.119 70.8487 125.884 70.7504C125.548 70.5878 124.813 70.7504 123.51 71.3174C120.74 72.4967 112.414 81.4818 110.578 83.746C108.871 85.8515 107.218 88.0552 107.199 88.0779L107.121 88.1989ZM104.556 86.8985C105.396 87.0961 106.215 87.3759 107.001 87.7339C107.374 87.2463 108.815 85.3374 110.301 83.5079C111.948 81.4742 120.415 72.2321 123.368 70.9696C124.831 70.3459 125.586 70.1872 126.045 70.4102C126.418 70.5954 126.553 71.015 126.694 71.4988C126.721 71.5858 126.747 71.6765 126.777 71.771C127.008 72.527 127.422 75.173 127.758 77.3314C127.96 78.6128 128.132 79.8224 128.203 79.9774C128.398 80.0321 128.605 80.0321 128.8 79.9774C129.268 79.9249 129.716 79.7518 130.099 79.4746C130.073 79.0966 128.117 71.6425 127.919 70.9507C127.721 70.259 127.064 69.0343 124.932 69.0343C122.319 69.0343 115.326 74.9991 113.251 76.8286C110.242 79.5086 105.582 85.5529 104.556 86.8985Z" fill="#263238"/>
<path d="M197.098 94.5002C196.922 94.2432 196.687 93.9446 196.523 93.903C196.258 93.8349 194.495 96.8665 194.062 97.6149C194.3 97.3115 194.57 97.0364 194.869 96.7947C194.869 97.0215 193.965 101.512 193.14 103.644C192.315 105.776 192.535 106.766 193.364 106.691C194.193 106.615 195.317 102.809 195.978 100.677C196.566 98.6639 196.942 96.5934 197.098 94.5002Z" fill="white"/>
<path d="M193.278 106.883C193.156 106.89 193.034 106.865 192.924 106.812C192.813 106.76 192.717 106.68 192.644 106.581C192.27 106.09 192.394 105.069 192.965 103.576C193.629 101.864 194.346 98.5977 194.593 97.3125L194.201 97.7434L193.013 99.0362L193.894 97.5053C196.134 93.5968 196.396 93.661 196.56 93.7026C196.724 93.7442 196.874 93.8349 197.243 94.3754L197.281 94.4321V94.5002C197.129 96.6088 196.753 98.6948 196.161 100.722L195.993 101.263C195.007 104.392 194.189 106.789 193.379 106.865L193.278 106.883ZM194.88 96.5943L194.936 96.6132L195.055 96.6586V96.7946C195.055 97.0592 194.141 101.573 193.312 103.712C192.591 105.572 192.812 106.177 192.939 106.358C192.986 106.417 193.049 106.462 193.12 106.488C193.191 106.514 193.268 106.52 193.342 106.505C193.98 106.445 195.104 102.877 195.642 101.164L195.813 100.62C196.386 98.6485 196.752 96.6213 196.903 94.572C196.804 94.4048 196.678 94.2554 196.53 94.1297C195.914 94.9039 195.362 95.7282 194.88 96.5943Z" fill="#263238"/>
<path d="M197.049 92.9126C196.747 91.5404 194.809 93.2906 193.965 94.5115C193.122 95.7324 189.381 99.8375 187.275 101.894C185.17 103.95 177.277 110.8 176.449 111.408C175.62 112.017 174.645 113.083 174.044 113.158C173.443 113.234 171.864 113.158 171.114 112.701C170.363 112.243 169.994 111.408 166.376 109.431C162.758 107.454 147.131 102.884 146.003 102.816C144.876 102.748 143.972 103.882 142.393 104.566C140.814 105.25 138.186 105.402 137.058 104.411C135.931 103.421 134.575 100.911 133.825 99.0853C133.075 97.2596 131.869 96.8173 130.816 96.1936C129.763 95.5699 117.137 89.9642 114.804 89.1817C112.47 88.3992 110.145 87.8889 109.092 87.8133C108.411 87.7737 107.728 87.8245 107.061 87.9645C107.061 87.9645 106.911 88.1913 106.314 87.7377C105.717 87.2841 103.757 86.4412 103.156 87.6584C102.555 88.8755 101.662 91.6954 102.178 92.7614L102.704 93.8273C102.704 93.8273 102.178 100.677 102.405 103.035C102.633 105.394 104.436 108.441 105.937 110.267C107.438 112.092 113.456 115.517 117.884 116.583C122.311 117.649 125.026 117.04 126.228 116.205C127.43 115.37 131.115 111.181 132.018 110.191C132.922 109.201 132.843 108.592 135.774 109.507C138.705 110.422 139.761 112.55 140.287 114.149C140.814 115.748 142.766 122.14 144.346 124.196C146.322 126.897 148.967 129.024 152.014 130.361C155.848 132.036 158.402 133.328 162.012 132.875C165.622 132.421 167.574 130.743 168.702 128.762C169.829 126.781 170.569 122.827 170.942 121.607C171.251 120.797 171.804 120.105 172.521 119.63C172.521 119.63 174.014 118.945 174.477 117.879C174.94 116.814 178.461 113.54 178.461 113.54C178.461 113.54 184.173 108.974 186.353 106.46C188.533 103.946 194.88 96.564 194.88 96.7946C194.88 97.0252 193.977 101.512 193.151 103.644C192.326 105.776 192.547 106.766 193.375 106.691C194.204 106.615 195.328 102.809 195.989 100.677C196.65 98.5448 197.348 94.2809 197.049 92.9126ZM133.149 105.462C133.016 105.923 132.813 106.36 132.548 106.759C132.097 107.443 129.087 112.315 127.21 113.835C125.332 115.354 123.151 116.651 120.893 116.424C118.634 116.197 112.851 113.99 108.573 110.565C104.294 107.14 103.686 102.646 104.138 98.3104C104.589 93.9747 106.094 90.9999 108.349 90.5463C110.604 90.0927 118.055 91.9902 123.159 94.7307C128.262 97.4712 132.63 100.82 132.929 101.962C133.228 103.103 133.149 105.462 133.149 105.462ZM169.157 121.074C168.706 125.031 167.806 127.318 166.451 129.144C165.095 130.97 163.52 131.809 159.309 131.412C155.098 131.015 151.943 129.431 149.009 127.303C146.074 125.175 145.1 122.355 143.972 119.69C142.845 117.025 140.892 111.699 142.02 108.35C143.147 105.001 146.455 105.84 146.455 105.84C146.455 105.84 149.236 106.449 149.442 106.524C149.647 106.6 166.283 111.548 167.033 112.69C167.783 113.831 169.609 117.116 169.157 121.074Z" fill="#263238"/>
<path d="M160.574 133.154C157.898 133.154 155.687 132.183 152.798 130.909L151.943 130.531C148.867 129.183 146.198 127.037 144.204 124.309C142.763 122.419 141.049 117.104 140.314 114.829C140.235 114.579 140.164 114.368 140.112 114.205C139.615 112.693 138.619 110.584 135.725 109.669C133.306 108.913 133.067 109.212 132.485 109.919C132.388 110.04 132.283 110.168 132.156 110.297L131.596 110.917C130.23 112.429 127.381 115.611 126.336 116.337C125.724 116.764 123.297 118.057 117.843 116.745C113.478 115.694 107.352 112.262 105.791 110.365C104.171 108.399 102.431 105.367 102.215 103.031C101.998 100.763 102.461 94.5264 102.51 93.8385L102.01 92.8217C101.442 91.6877 102.383 88.7771 102.988 87.5523C103.071 87.3778 103.193 87.2249 103.343 87.1056C103.494 86.9863 103.67 86.9038 103.858 86.8644C104.791 86.6414 106.012 87.2424 106.422 87.5637C106.743 87.8056 106.889 87.8132 106.926 87.8094L106.949 87.7754L107.02 87.7565C107.706 87.6112 108.407 87.5591 109.107 87.6015C110.249 87.6846 112.668 88.263 114.863 88.9812C117.193 89.7372 129.894 95.4072 130.917 95.9969L131.32 96.2237C132.257 96.7415 133.321 97.3236 134.004 98.9831C134.792 100.9 136.14 103.322 137.185 104.241C138.23 105.16 140.747 105.046 142.33 104.362C142.885 104.104 143.417 103.798 143.92 103.447C144.667 102.963 145.283 102.551 146.022 102.597C147.224 102.676 162.953 107.31 166.473 109.242C169.042 110.648 169.971 111.472 170.58 112.016C170.773 112.202 170.983 112.369 171.207 112.515C171.901 112.939 173.447 113.022 174.022 112.95C174.369 112.905 174.933 112.413 175.482 111.941C175.765 111.695 176.06 111.438 176.34 111.234C177.139 110.644 185.02 103.81 187.145 101.735C189.194 99.7315 192.987 95.5924 193.812 94.379C194.383 93.5399 195.817 92.0468 196.676 92.2131C196.822 92.2471 196.954 92.3267 197.053 92.4406C197.152 92.5545 197.213 92.6971 197.228 92.8481C197.553 94.3261 196.821 98.6655 196.172 100.711L196.004 101.251C195.018 104.381 194.201 106.777 193.39 106.853C193.251 106.878 193.108 106.863 192.976 106.811C192.845 106.759 192.73 106.672 192.644 106.558C192.27 106.067 192.394 105.046 192.965 103.553C193.629 101.841 194.346 98.571 194.593 97.2896C193.514 98.4501 190.351 102.113 188.347 104.438L186.514 106.596C184.348 109.095 178.651 113.653 178.595 113.699C177.393 114.814 175.011 117.15 174.668 117.962C174.194 119.096 172.682 119.784 172.618 119.811C171.943 120.262 171.422 120.913 171.125 121.674C171.031 121.981 170.908 122.483 170.751 123.065C170.33 124.782 169.695 127.375 168.84 128.868C167.462 131.291 165.23 132.648 162.012 133.071C161.535 133.129 161.055 133.156 160.574 133.154ZM133.653 108.864C134.398 108.915 135.131 109.07 135.834 109.325C138.895 110.278 139.94 112.5 140.467 114.088C140.519 114.25 140.59 114.466 140.668 114.715C141.396 116.983 143.099 122.275 144.495 124.078C146.452 126.756 149.073 128.864 152.092 130.187L152.947 130.565C156.307 132.039 158.708 133.105 161.993 132.689C165.084 132.311 167.22 130.985 168.545 128.671C169.37 127.223 170.001 124.661 170.412 122.963C170.557 122.377 170.681 121.875 170.785 121.553C171.105 120.698 171.686 119.969 172.443 119.471C172.476 119.452 173.906 118.79 174.309 117.807C174.769 116.715 178.192 113.54 178.338 113.404C178.405 113.351 184.072 108.811 186.219 106.339L188.052 104.218C194.686 96.5261 194.723 96.5412 194.917 96.6168L195.037 96.6621V96.7982C195.037 97.0628 194.122 101.576 193.293 103.716C192.573 105.575 192.793 106.18 192.92 106.362C192.968 106.421 193.031 106.466 193.102 106.492C193.173 106.518 193.249 106.524 193.323 106.509C193.962 106.449 195.085 102.88 195.623 101.168L195.795 100.624C196.485 98.4501 197.127 94.2656 196.844 92.9615C196.784 92.6856 196.665 92.6327 196.582 92.6138C196.03 92.5117 194.775 93.6268 194.096 94.6247C193.241 95.8835 189.47 99.9999 187.376 102.037C185.282 104.075 177.333 110.977 176.531 111.567C176.262 111.763 175.974 112.017 175.694 112.258C175.078 112.791 174.496 113.294 174.037 113.355C173.488 113.423 171.827 113.385 170.987 112.871C170.743 112.713 170.515 112.534 170.303 112.334C169.702 111.797 168.788 110.992 166.257 109.601C162.762 107.685 147.149 103.084 145.962 103.005C145.346 102.96 144.79 103.33 144.095 103.795C143.574 104.159 143.022 104.475 142.445 104.74C140.762 105.47 138.074 105.575 136.913 104.555C135.751 103.534 134.411 101.055 133.631 99.1569C133 97.6223 132.041 97.0968 131.111 96.5865L130.704 96.356C129.692 95.7701 117.047 90.1265 114.725 89.3705C112.883 88.7328 110.984 88.2771 109.054 88.0097C108.409 87.9726 107.762 88.0183 107.128 88.1458C107.081 88.1791 107.028 88.2011 106.971 88.2101C106.676 88.2158 106.39 88.1031 106.176 87.8963C105.78 87.5939 104.683 87.0836 103.936 87.2613C103.802 87.2892 103.677 87.3481 103.569 87.4334C103.462 87.5186 103.375 87.6279 103.316 87.7527C102.719 88.9585 101.86 91.7141 102.338 92.6667L102.887 93.8007V93.8498C102.887 93.9216 102.364 100.711 102.588 103.028C102.801 105.296 104.496 108.233 106.079 110.157C107.602 112.013 113.628 115.377 117.929 116.413C123.237 117.687 125.545 116.466 126.142 116.057C127.15 115.358 129.976 112.209 131.335 110.697C131.574 110.433 131.764 110.217 131.899 110.074C132.033 109.93 132.119 109.817 132.212 109.696C132.615 109.182 132.907 108.864 133.653 108.864ZM161.127 131.707C160.578 131.707 159.97 131.676 159.294 131.616C155.59 131.279 152.383 130.002 148.9 127.458C146.182 125.481 145.122 122.922 144.095 120.469C143.998 120.234 143.901 120 143.801 119.769C142.307 116.273 140.78 111.453 141.841 108.289C143.013 104.819 146.466 105.643 146.5 105.643C146.78 105.704 149.292 106.252 149.52 106.331L149.916 106.452C157.472 108.739 166.607 111.661 167.209 112.572C167.81 113.483 169.822 116.912 169.344 121.07C168.922 124.763 168.101 127.205 166.6 129.231C165.45 130.807 164.151 131.707 161.127 131.707ZM145.537 105.942C144.525 105.942 142.923 106.32 142.195 108.425C141.12 111.623 142.942 116.817 144.144 119.629C144.245 119.864 144.342 120.098 144.439 120.332C145.443 122.748 146.485 125.247 149.121 127.163C152.544 129.654 155.691 130.909 159.327 131.238C163.531 131.616 165.025 130.758 166.301 129.03C167.761 127.061 168.56 124.676 168.971 121.054C169.43 117.021 167.5 113.721 166.899 112.807C166.746 112.576 165.062 111.461 149.807 106.838L149.401 106.717C149.244 106.664 147.534 106.282 146.414 106.037C146.126 105.971 145.832 105.939 145.537 105.942ZM121.43 116.647C121.245 116.648 121.059 116.639 120.874 116.621C118.515 116.379 112.732 114.141 108.45 110.72C103.652 106.883 103.596 101.792 103.943 98.2951C104.421 93.7213 106.008 90.8334 108.304 90.3571C110.6 89.8808 118.059 91.7859 123.237 94.5605C128.154 97.2065 132.765 100.631 133.105 101.909C133.407 103.065 133.336 105.367 133.336 105.466V105.507C133.197 105.987 132.985 106.442 132.709 106.857C132.66 106.932 132.586 107.053 132.481 107.212C131.63 108.543 129.035 112.602 127.333 113.978C125.1 115.793 123.2 116.647 121.43 116.647ZM109.181 90.6708C108.911 90.6669 108.641 90.6896 108.375 90.7389C106.284 91.1622 104.765 94.001 104.317 98.3367C103.753 103.75 105.138 107.59 108.681 110.433C112.747 113.683 118.545 116.016 120.911 116.254C122.752 116.443 124.716 115.634 127.094 113.706C128.748 112.368 131.316 108.35 132.164 107.027L132.391 106.672C132.641 106.297 132.833 105.887 132.963 105.454C132.963 105.216 133.019 103.073 132.742 102.03C132.466 100.986 128.18 97.6601 123.062 94.9158C118.455 92.4361 112.03 90.6708 109.181 90.6708Z" fill="#263238"/>
<path d="M138.742 106.902C138.414 106.904 138.087 106.869 137.767 106.796C135.087 106.195 134.053 103.262 133.37 101.319L133.273 101.043C132.634 99.2478 131.996 98.7753 131.992 98.7753L132.197 98.4653C132.227 98.4842 132.944 98.9756 133.623 100.915L133.721 101.191C134.378 103.054 135.371 105.87 137.85 106.43C140.433 107.008 143.076 104.74 143.099 104.717L143.345 105.005C143.244 105.084 141.12 106.902 138.742 106.902Z" fill="white"/>
<path d="M172.402 115.581C171.519 115.546 170.654 115.318 169.867 114.912C169.781 114.837 169.711 114.744 169.661 114.64C169.314 114.043 168.25 112.236 163.804 110.206C158.543 107.806 146.515 104.767 146.395 104.736L146.485 104.358C146.604 104.389 158.667 107.435 163.957 109.851C168.508 111.93 169.62 113.812 169.982 114.432C170.023 114.5 170.068 114.576 170.083 114.595C170.236 114.693 172.428 115.668 173.466 114.893L173.69 115.199C173.31 115.46 172.86 115.594 172.402 115.581Z" fill="white"/>
<path d="M131.376 98.0799C131.376 98.0799 129.883 96.8362 123.674 93.9975C119.599 92.1801 115.375 90.7232 111.052 89.6429C110.611 89.5257 110.264 89.435 110.018 89.3632C108.686 89.0302 107.289 89.0839 105.986 89.5182C104.847 89.8432 103.462 88.6147 103.406 88.5618L103.652 88.2783C103.652 88.2783 104.944 89.4123 105.892 89.1515C107.261 88.699 108.729 88.6466 110.126 89.0003C110.372 89.0721 110.719 89.1628 111.153 89.2762C115.501 90.3608 119.748 91.8254 123.846 93.6535C130.114 96.5225 131.574 97.7397 131.634 97.7926L131.376 98.0799Z" fill="white"/>
<path d="M106.49 109.877C103.077 106.88 103.339 101.781 103.342 101.731L103.716 101.754C103.716 101.803 103.462 106.721 106.732 109.59L106.49 109.877Z" fill="white"/>
</svg>
