<svg width="32" height="32" viewBox="0 0 32 32" fill="none" xmlns="http://www.w3.org/2000/svg">
<path d="M14 2V30H4C1.79063 30 0 28.2062 0 26V6C0 3.79063 1.79063 2 4 2H14ZM5.5 6C4.67188 6 4 6.66875 4 7.5C4 8.33125 4.67188 9 5.5 9H8.5C9.33125 9 10 8.33125 10 7.5C10 6.66875 9.33125 6 8.5 6H5.5ZM5.5 15H8.5C9.33125 15 10 14.3313 10 13.5C10 12.6687 9.33125 12 8.5 12H5.5C4.67188 12 4 12.6687 4 13.5C4 14.3313 4.67188 15 5.5 15ZM5.5 18C4.67188 18 4 18.6688 4 19.5C4 20.3312 4.67188 21 5.5 21H8.5C9.33125 21 10 20.3312 10 19.5C10 18.6688 9.33125 18 8.5 18H5.5Z" fill="#651FFF"/>
<path opacity="0.4" d="M32 26C32 28.2062 30.2062 30 28 30H14V2H28C30.2062 2 32 3.79063 32 6V26Z" fill="#651FFF"/>
</svg>
