<svg width="57" height="23" viewBox="0 0 57 23" fill="none" xmlns="http://www.w3.org/2000/svg">
<g clip-path="url(#clip0_640_371)">
<path d="M4.09598 9.14524C4.09598 8.58983 4.59598 8.37621 5.4241 8.37621C6.6116 8.37621 8.1116 8.70376 9.2991 9.28765V5.94096C8.00223 5.471 6.72098 5.28587 5.4241 5.28587C2.25223 5.28587 0.142853 6.79543 0.142853 9.31613C0.142853 13.2467 6.08035 12.6201 6.08035 14.3148C6.08035 14.9699 5.45535 15.1835 4.58035 15.1835C3.28348 15.1835 1.62723 14.6993 0.314728 14.0442V17.4336C1.76785 18.0033 3.2366 18.2454 4.58035 18.2454C7.83035 18.2454 10.0647 16.7785 10.0647 14.2293C10.0491 9.98547 4.09598 10.7403 4.09598 9.14524ZM14.6585 2.43762L10.846 3.17817L10.8304 14.5854C10.8304 16.6931 12.5647 18.2454 14.8772 18.2454C16.1585 18.2454 17.096 18.0317 17.6116 17.7754V14.8844C17.1116 15.0696 14.6429 15.7247 14.6429 13.617V8.56135H17.6116V5.52797H14.6429L14.6585 2.43762ZM22.471 6.58182L22.221 5.52797H18.846V17.989H22.7522V9.54399C23.6741 8.44742 25.2366 8.64679 25.721 8.80345V5.52797C25.221 5.35707 23.3929 5.04377 22.471 6.58182ZM26.6741 5.52797H30.596V17.989H26.6741V5.52797ZM26.6741 4.44564L30.596 3.67661V0.785645L26.6741 1.54043V4.44564ZM38.7522 5.28587C37.221 5.28587 36.2366 5.94096 35.6897 6.39668L35.4866 5.51373H32.0491V22.119L35.9554 21.3642L35.971 17.3339C36.5335 17.7042 37.3616 18.2311 38.7366 18.2311C41.5335 18.2311 44.0804 16.1804 44.0804 11.6659C44.0647 7.53598 41.4866 5.28587 38.7522 5.28587ZM37.8147 15.0981C36.8929 15.0981 36.346 14.799 35.971 14.4287L35.9554 9.14524C36.3616 8.73224 36.9241 8.44742 37.8147 8.44742C39.2366 8.44742 40.221 9.90002 40.221 11.7656C40.221 13.6739 39.2522 15.0981 37.8147 15.0981ZM56.3929 11.8083C56.3929 8.16259 54.4554 5.28587 50.7522 5.28587C47.0335 5.28587 44.7835 8.16259 44.7835 11.7799C44.7835 16.0665 47.4397 18.2311 51.2522 18.2311C53.1116 18.2311 54.5179 17.8466 55.5804 17.3054V14.4572C54.5179 14.9414 53.2991 15.2405 51.7522 15.2405C50.2366 15.2405 48.8929 14.7563 48.721 13.0758H56.3616C56.3616 12.8907 56.3929 12.1501 56.3929 11.8083ZM48.6741 10.4554C48.6741 8.84617 49.7522 8.17683 50.7366 8.17683C51.6897 8.17683 52.7054 8.84617 52.7054 10.4554H48.6741Z" fill="#6772E5"/>
</g>
<defs>
<clipPath id="clip0_640_371">
<rect width="56.25" height="21.4286" fill="white" transform="translate(0.142853 0.785645)"/>
</clipPath>
</defs>
</svg>
