<svg width="260" height="260" viewBox="0 0 260 260" fill="none" xmlns="http://www.w3.org/2000/svg">
<path d="M201.698 49.0413V157.44C201.698 158.208 201.548 158.967 201.254 159.676C200.961 160.385 200.531 161.029 199.989 161.571C199.446 162.114 198.802 162.544 198.094 162.837C197.385 163.13 196.625 163.281 195.858 163.28H51.298C50.5299 163.283 49.7688 163.134 49.0585 162.841C48.3482 162.549 47.7026 162.119 47.159 161.576C46.6154 161.034 46.1843 160.389 45.8907 159.679C45.5971 158.969 45.4466 158.209 45.448 157.44V49.0413C45.4473 48.2747 45.5977 47.5154 45.8906 46.807C46.1835 46.0985 46.6132 45.4547 47.155 44.9124C47.6969 44.3701 48.3403 43.9398 49.0485 43.6463C49.7567 43.3528 50.5158 43.2017 51.2824 43.2017H195.842C196.611 43.199 197.372 43.348 198.083 43.6403C198.793 43.9326 199.439 44.3624 199.983 44.905C200.527 45.4476 200.959 46.0923 201.253 46.8022C201.547 47.512 201.698 48.2729 201.698 49.0413Z" fill="white"/>
<path d="M201.698 52.3901V157.43C201.7 158.198 201.55 158.959 201.257 159.669C200.965 160.379 200.535 161.024 199.992 161.568C199.45 162.111 198.805 162.542 198.096 162.836C197.386 163.13 196.626 163.281 195.858 163.28H51.298C50.7491 163.281 50.2028 163.204 49.6756 163.051L201.698 52.3901Z" fill="#263238"/>
<path opacity="0.9" d="M201.698 52.3901V157.43C201.7 158.198 201.55 158.959 201.257 159.669C200.965 160.379 200.535 161.024 199.992 161.568C199.45 162.111 198.805 162.542 198.096 162.836C197.386 163.13 196.626 163.281 195.858 163.28H51.298C50.7491 163.281 50.2028 163.204 49.6756 163.051L201.698 52.3901Z" fill="white"/>
<path d="M161.621 111.072L169.52 107.515L167.835 98.0979L159.12 97.4011C158.028 94.493 156.562 91.7397 154.757 89.2111L157.482 84.5987L159.224 81.6399L152.464 74.9319L144.898 79.4767C140.553 76.478 135.617 74.4427 130.421 73.5071L128.242 64.8335H118.695L116.48 73.5695C113.529 74.1635 110.654 75.088 107.91 76.3255L101.052 70.4183L93.2256 75.7483L96.4808 84.1983C94.4109 86.3426 92.62 88.7397 91.1508 91.3327L82.1444 90.4227L78.9048 99.4135L86.32 104.473C85.9596 106.584 85.7856 108.723 85.8 110.864C85.7376 111.745 85.7376 112.63 85.8 113.511L77.9272 117.931L80.4232 127.14H89.3152C90.1677 128.973 91.1658 130.734 92.3 132.408C92.8824 133.264 93.4977 134.098 94.146 134.909L90.3084 142.839L97.656 149.001L104.744 143.691C107.438 145.249 110.317 146.463 113.313 147.306L114.733 155.875L124.28 156.723L127.14 148.642C130.258 148.332 133.329 147.66 136.292 146.64L142.35 152.693L150.644 147.909L148.361 139.651C150.771 137.631 152.917 135.314 154.747 132.756L163.15 134.264L167.196 125.601L160.592 120.276C161.308 117.261 161.653 114.17 161.621 111.072ZM139.807 111.072C139.807 114.824 138.506 118.461 136.127 121.362C133.747 124.264 130.435 126.251 126.756 126.986C123.076 127.72 119.255 127.157 115.944 125.392C112.632 123.627 110.035 120.769 108.594 117.304C107.152 113.839 106.956 109.982 108.039 106.389C109.121 102.796 111.415 99.6893 114.53 97.5974C117.646 95.5054 121.39 94.5576 125.125 94.9152C128.86 95.2729 132.356 96.914 135.018 99.5591C135.309 99.8503 135.595 100.152 135.855 100.469C138.387 103.383 139.789 107.108 139.807 110.968V111.072Z" fill="#651FFF" stroke="#263238" stroke-width="1.02934" stroke-miterlimit="10"/>
<path opacity="0.2" d="M160.592 120.25L167.196 125.575L163.15 134.238L154.747 132.73C152.917 135.288 150.771 137.605 148.361 139.625L150.644 147.883L142.35 152.667L136.292 146.64C133.327 147.67 130.252 148.35 127.13 148.668L124.28 156.723L114.738 155.875L113.318 147.306C110.322 146.463 107.443 145.249 104.749 143.692L97.6612 149.001L90.3136 142.839L94.12 134.909C93.4717 134.098 92.8564 133.264 92.274 132.408L109.756 119.6C111.614 122.604 114.401 124.92 117.694 126.198C120.986 127.475 124.606 127.644 128.004 126.68C131.401 125.715 134.392 123.669 136.522 120.851C138.652 118.034 139.805 114.599 139.807 111.067V110.963C139.789 107.103 138.387 103.378 135.855 100.464L157.503 84.5938L154.778 89.2062C156.575 91.7375 158.035 94.4925 159.12 97.4014L167.794 98.0982L169.52 107.515L161.642 111.072C161.665 114.163 161.313 117.245 160.592 120.25Z" fill="black"/>
<path d="M194.438 86.0393L194.834 85.8573C195.055 85.7605 195.237 85.5917 195.35 85.3783C195.463 85.165 195.501 84.9197 195.458 84.6821L195.374 84.1985C195.335 83.9606 195.217 83.7428 195.038 83.5805C194.86 83.4182 194.632 83.3208 194.392 83.3041L193.913 83.2677C193.727 83.2554 193.547 83.1947 193.391 83.0917C193.235 82.9887 193.108 82.8468 193.024 82.6801C192.894 82.4045 192.759 82.1601 192.608 81.8845C192.513 81.7218 192.464 81.537 192.464 81.3489C192.464 81.1608 192.513 80.976 192.608 80.8133L192.852 80.3973C192.973 80.1891 193.022 79.9466 192.991 79.7077C192.96 79.4688 192.851 79.2469 192.681 79.0765L192.338 78.7333C192.171 78.555 191.946 78.4412 191.704 78.4117C191.461 78.3822 191.216 78.439 191.012 78.5721L190.59 78.8217C190.428 78.9162 190.243 78.966 190.055 78.966C189.867 78.966 189.682 78.9162 189.519 78.8217C188.837 78.4291 188.104 78.1317 187.34 77.9377C187.153 77.8886 186.983 77.7896 186.847 77.6514C186.712 77.5131 186.616 77.3407 186.571 77.1525L186.446 76.6325C186.391 76.392 186.254 76.1781 186.058 76.0273C185.863 75.8766 185.621 75.7982 185.375 75.8057H184.896C184.65 75.798 184.409 75.8756 184.214 76.0253C184.019 76.1751 183.882 76.3878 183.825 76.6273L183.69 77.1473C183.643 77.3312 183.549 77.4997 183.417 77.6357C183.284 77.7717 183.119 77.8705 182.936 77.9221C182.666 77.9949 182.416 78.0781 182.151 78.1717C181.971 78.2376 181.777 78.254 181.588 78.2192C181.4 78.1845 181.224 78.0998 181.08 77.9741L180.648 77.6049C180.468 77.4479 180.241 77.3555 180.003 77.3423C179.764 77.3291 179.528 77.3959 179.332 77.5321L178.953 77.7869C178.749 77.9239 178.598 78.1265 178.525 78.3611C178.452 78.5957 178.462 78.8481 178.552 79.0765L178.745 79.5965C178.814 79.7739 178.835 79.9664 178.805 80.1545C178.776 80.3425 178.698 80.5196 178.578 80.6677C178.407 80.8705 178.246 81.0837 178.095 81.3021C177.989 81.464 177.84 81.5931 177.664 81.6749C177.489 81.7567 177.294 81.7878 177.102 81.7649L176.582 81.7129C176.341 81.6865 176.098 81.7425 175.893 81.8719C175.688 82.0013 175.533 82.1964 175.453 82.4253L175.282 82.8985C175.198 83.1211 175.192 83.365 175.262 83.5918C175.333 83.8187 175.477 84.0156 175.672 84.1517L176.166 84.5001C176.32 84.6092 176.442 84.7571 176.521 84.9287C176.599 85.1004 176.631 85.2898 176.613 85.4777C176.583 85.7575 176.569 86.0387 176.571 86.3201C176.565 86.5027 176.515 86.6812 176.424 86.8398C176.334 86.9984 176.206 87.1325 176.051 87.2301L175.531 87.5057C175.316 87.6219 175.148 87.8079 175.053 88.0329C174.959 88.258 174.944 88.5086 175.011 88.7433L175.136 89.2113C175.197 89.4465 175.337 89.6539 175.531 89.7994C175.726 89.9449 175.964 90.0199 176.207 90.0121H176.727C176.915 90.009 177.101 90.0555 177.265 90.1468C177.429 90.238 177.567 90.3709 177.663 90.5321C177.809 90.7869 177.965 91.0521 178.126 91.2757C178.233 91.4311 178.297 91.612 178.312 91.8001C178.326 91.9882 178.291 92.1768 178.209 92.3469L177.991 92.7993C177.883 93.0165 177.852 93.2639 177.903 93.501C177.954 93.7381 178.084 93.9509 178.272 94.1045L178.641 94.4165C178.825 94.5747 179.058 94.6655 179.301 94.674C179.544 94.6825 179.782 94.6082 179.977 94.4633L180.357 94.1981C180.51 94.0878 180.69 94.0201 180.878 94.0018C181.067 93.9835 181.256 94.0154 181.428 94.0941C181.698 94.2241 181.974 94.3437 182.26 94.4477C182.436 94.5131 182.592 94.6241 182.712 94.7693C182.832 94.9145 182.911 95.0888 182.941 95.2745L183.019 95.7373C183.058 95.9765 183.177 96.1954 183.356 96.3579C183.536 96.5205 183.765 96.6171 184.007 96.6317L184.496 96.6785C184.736 96.6997 184.975 96.64 185.177 96.509C185.379 96.378 185.531 96.1832 185.609 95.9557L185.76 95.5345C185.824 95.3544 185.935 95.1945 186.081 95.0712C186.227 94.9479 186.403 94.8655 186.592 94.8325C186.895 94.7864 187.195 94.7221 187.491 94.6401C187.674 94.5881 187.868 94.5873 188.051 94.6377C188.235 94.6882 188.401 94.7879 188.531 94.9261L188.848 95.2485C189.016 95.4203 189.235 95.5312 189.473 95.5632C189.711 95.5953 189.952 95.5467 190.159 95.4253L190.585 95.1809C190.799 95.065 190.967 94.8798 191.061 94.6558C191.156 94.4319 191.171 94.1824 191.105 93.9485L190.986 93.5273C190.93 93.341 190.925 93.143 190.973 92.9544C191.021 92.7657 191.118 92.5936 191.256 92.4561C191.48 92.2387 191.691 92.0096 191.89 91.7697C192.012 91.6177 192.174 91.503 192.358 91.4387C192.542 91.3743 192.74 91.3629 192.93 91.4057L193.357 91.4837C193.594 91.5358 193.841 91.5035 194.057 91.3924C194.272 91.2813 194.442 91.0984 194.537 90.8753L194.74 90.4333C194.847 90.2141 194.875 89.9649 194.82 89.7274C194.765 89.4899 194.63 89.2784 194.438 89.1281L194.116 88.8681C193.968 88.7512 193.854 88.5973 193.784 88.422C193.715 88.2467 193.693 88.0562 193.721 87.8697C193.772 87.5512 193.805 87.23 193.82 86.9077C193.838 86.7215 193.905 86.5434 194.013 86.391C194.122 86.2387 194.268 86.1174 194.438 86.0393ZM190.596 86.3201C190.596 87.3938 190.277 88.4434 189.681 89.3362C189.084 90.2289 188.236 90.9248 187.244 91.3357C186.252 91.7466 185.161 91.8541 184.108 91.6446C183.055 91.4351 182.087 90.9181 181.328 90.1588C180.569 89.3996 180.052 88.4323 179.842 87.3792C179.633 86.3261 179.74 85.2346 180.151 84.2426C180.562 83.2506 181.258 82.4027 182.151 81.8062C183.043 81.2097 184.093 80.8913 185.167 80.8913C186.6 80.8899 187.975 81.4568 188.991 82.4676C190.006 83.4784 190.58 84.8507 190.585 86.2837L190.596 86.3201Z" fill="#651FFF" stroke="#263238" stroke-width="1.02934" stroke-miterlimit="10"/>
<path d="M201.698 49.0413V49.3377H45.448V49.0413C45.4473 48.2747 45.5977 47.5154 45.8906 46.807C46.1835 46.0985 46.6132 45.4547 47.155 44.9124C47.6969 44.3701 48.3403 43.9398 49.0485 43.6463C49.7567 43.3528 50.5158 43.2017 51.2824 43.2017H195.842C196.611 43.199 197.372 43.348 198.083 43.6403C198.793 43.9326 199.439 44.3624 199.983 44.905C200.527 45.4476 200.959 46.0923 201.253 46.8022C201.547 47.512 201.698 48.2729 201.698 49.0413Z" fill="#263238"/>
<path d="M201.698 49.0413V157.44C201.698 158.208 201.548 158.967 201.254 159.676C200.961 160.385 200.531 161.029 199.989 161.571C199.446 162.114 198.802 162.544 198.094 162.837C197.385 163.13 196.625 163.281 195.858 163.28H51.298C50.5301 163.282 49.7693 163.133 49.0593 162.84C48.3493 162.547 47.704 162.117 47.1605 161.575C46.617 161.032 46.186 160.388 45.8921 159.678C45.5982 158.969 45.4473 158.208 45.448 157.44V49.0413C45.4473 48.2747 45.5977 47.5154 45.8906 46.807C46.1835 46.0985 46.6132 45.4547 47.155 44.9124C47.6969 44.3701 48.3403 43.9398 49.0485 43.6463C49.7567 43.3528 50.5158 43.2017 51.2824 43.2017H195.842C196.611 43.199 197.372 43.348 198.083 43.6403C198.793 43.9326 199.439 44.3624 199.983 44.905C200.527 45.4476 200.959 46.0923 201.253 46.8022C201.547 47.512 201.698 48.2729 201.698 49.0413V49.0413Z" stroke="#263238" stroke-width="1.02934" stroke-linecap="round" stroke-linejoin="round"/>
<path d="M45.448 49.0415H201.698" stroke="#263238" stroke-width="1.02934" stroke-linecap="round" stroke-linejoin="round"/>
<path d="M58.474 46.2803C58.474 46.5148 58.4045 46.744 58.2742 46.939C58.1439 47.134 57.9588 47.2859 57.7421 47.3757C57.5255 47.4654 57.2871 47.4889 57.0571 47.4431C56.8271 47.3974 56.6159 47.2845 56.4501 47.1187C56.2843 46.9529 56.1713 46.7416 56.1256 46.5116C56.0798 46.2816 56.1033 46.0433 56.1931 45.8266C56.2828 45.61 56.4348 45.4248 56.6297 45.2945C56.8247 45.1643 57.0539 45.0947 57.2884 45.0947C57.6029 45.0947 57.9044 45.2196 58.1268 45.442C58.3491 45.6643 58.474 45.9659 58.474 46.2803Z" fill="#651FFF"/>
<path d="M64.0848 46.2802C64.0827 46.5151 64.0109 46.7441 63.8784 46.9381C63.7459 47.1321 63.5588 47.2824 63.3408 47.3699C63.1228 47.4574 62.8837 47.4781 62.6539 47.4295C62.424 47.3809 62.2138 47.2651 62.0499 47.0968C61.886 46.9285 61.7758 46.7153 61.7332 46.4842C61.6907 46.2532 61.7178 46.0147 61.811 45.7991C61.9042 45.5835 62.0594 45.4004 62.2569 45.2731C62.4543 45.1458 62.6851 45.0801 62.92 45.0842C63.2326 45.0896 63.5305 45.2184 63.7486 45.4424C63.9668 45.6664 64.0876 45.9675 64.0848 46.2802Z" fill="#651FFF"/>
<path d="M69.68 46.2803C69.68 46.5148 69.6105 46.744 69.4802 46.939C69.3499 47.134 69.1648 47.2859 68.9481 47.3757C68.7315 47.4654 68.4931 47.4889 68.2631 47.4431C68.0331 47.3974 67.8219 47.2845 67.6561 47.1187C67.4903 46.9529 67.3773 46.7416 67.3316 46.5116C67.2858 46.2816 67.3093 46.0433 67.3991 45.8266C67.4888 45.61 67.6407 45.4248 67.8357 45.2945C68.0307 45.1643 68.2599 45.0947 68.4944 45.0947C68.6501 45.0947 68.8043 45.1254 68.9481 45.185C69.092 45.2446 69.2227 45.3319 69.3328 45.442C69.4428 45.5521 69.5302 45.6828 69.5898 45.8266C69.6493 45.9705 69.68 46.1246 69.68 46.2803Z" fill="#651FFF"/>
<path d="M148.528 111.072C148.528 115.981 147.072 120.78 144.345 124.861C141.618 128.943 137.741 132.124 133.206 134.002C128.671 135.881 123.68 136.372 118.866 135.415C114.051 134.457 109.629 132.093 106.158 128.622C102.687 125.151 100.323 120.729 99.3653 115.914C98.4076 111.1 98.8992 106.109 100.778 101.574C102.656 97.0388 105.837 93.1625 109.919 90.4353C114.001 87.7081 118.799 86.2524 123.708 86.2524V86.2524C130.264 86.2523 136.553 88.8458 141.203 93.4667C145.853 98.0876 148.486 104.361 148.528 110.916V111.072Z" stroke="#263238" stroke-width="4.11736" stroke-miterlimit="10"/>
<path d="M240.656 55.1201H152.318C149.096 55.1201 146.484 57.7323 146.484 60.9545V80.5637C146.484 83.786 149.096 86.3981 152.318 86.3981H240.656C243.878 86.3981 246.49 83.786 246.49 80.5637V60.9545C246.49 57.7323 243.878 55.1201 240.656 55.1201Z" fill="white" stroke="#263238" stroke-width="1.02934" stroke-miterlimit="10"/>
<path d="M163.987 70.6211H232.144" stroke="#263238" stroke-width="1.02934" stroke-miterlimit="10"/>
<path d="M161.86 70.6215L172.624 63.0347H200.039L211.224 70.6215" stroke="#263238" stroke-width="1.02934" stroke-miterlimit="10"/>
<path d="M213.346 70.6214C213.346 71.0423 213.221 71.4537 212.987 71.8036C212.753 72.1534 212.42 72.426 212.032 72.5868C211.643 72.7477 211.215 72.7895 210.802 72.707C210.389 72.6245 210.01 72.4214 209.713 72.1235C209.416 71.8255 209.214 71.4461 209.132 71.0332C209.051 70.6203 209.094 70.1925 209.255 69.8039C209.417 69.4154 209.691 69.0836 210.041 68.8505C210.391 68.6175 210.803 68.4936 211.224 68.4946C211.787 68.496 212.327 68.7207 212.725 69.1194C213.122 69.5181 213.346 70.0583 213.346 70.6214Z" fill="#651FFF" stroke="#263238" stroke-width="1.02934" stroke-miterlimit="10"/>
<path d="M172.624 65.1613C173.799 65.1613 174.751 64.2091 174.751 63.0345C174.751 61.8599 173.799 60.9077 172.624 60.9077C171.45 60.9077 170.498 61.8599 170.498 63.0345C170.498 64.2091 171.45 65.1613 172.624 65.1613Z" fill="#651FFF" stroke="#263238" stroke-width="1.02934" stroke-miterlimit="10"/>
<path d="M202.16 63.0347C202.161 63.4558 202.037 63.8677 201.804 64.2182C201.571 64.5688 201.239 64.8422 200.85 65.0038C200.461 65.1654 200.033 65.208 199.62 65.1261C199.207 65.0442 198.827 64.8415 198.53 64.5438C198.232 64.246 198.029 63.8666 197.947 63.4535C197.866 63.0405 197.908 62.6124 198.07 62.2236C198.231 61.8348 198.505 61.5027 198.855 61.2694C199.206 61.0361 199.618 60.9121 200.039 60.9131C200.601 60.9145 201.14 61.1384 201.538 61.536C201.935 61.9336 202.159 62.4724 202.16 63.0347Z" fill="#651FFF" stroke="#263238" stroke-width="1.02934" stroke-miterlimit="10"/>
<path d="M161.86 70.6211L172.624 78.2079H223.148L232.144 70.6211" stroke="#263238" stroke-width="1.02934" stroke-miterlimit="10"/>
<path d="M191.209 78.2083C191.209 78.629 191.085 79.0402 190.851 79.3899C190.617 79.7397 190.285 80.0123 189.896 80.1733C189.508 80.3342 189.08 80.3763 188.668 80.2943C188.255 80.2122 187.876 80.0097 187.579 79.7122C187.281 79.4148 187.079 79.0358 186.996 78.6233C186.914 78.2107 186.957 77.7831 187.118 77.3945C187.278 77.0058 187.551 76.6737 187.901 76.44C188.251 76.2063 188.662 76.0815 189.082 76.0815C189.646 76.0815 190.187 76.3056 190.586 76.7045C190.985 77.1033 191.209 77.6443 191.209 78.2083Z" fill="#651FFF" stroke="#263238" stroke-width="1.02934" stroke-miterlimit="10"/>
<path d="M174.751 78.2083C174.751 78.629 174.626 79.0402 174.393 79.3899C174.159 79.7397 173.827 80.0123 173.438 80.1733C173.05 80.3342 172.622 80.3763 172.21 80.2943C171.797 80.2122 171.418 80.0097 171.121 79.7122C170.823 79.4148 170.621 79.0358 170.538 78.6233C170.456 78.2107 170.499 77.7831 170.66 77.3945C170.82 77.0058 171.093 76.6737 171.443 76.44C171.793 76.2063 172.204 76.0815 172.624 76.0815C173.188 76.0815 173.729 76.3056 174.128 76.7045C174.527 77.1033 174.751 77.6443 174.751 78.2083Z" fill="#651FFF" stroke="#263238" stroke-width="1.02934" stroke-miterlimit="10"/>
<path d="M225.274 78.2083C225.274 78.629 225.15 79.0402 224.916 79.3899C224.682 79.7397 224.35 80.0123 223.962 80.1733C223.573 80.3342 223.145 80.3763 222.733 80.2943C222.32 80.2122 221.941 80.0097 221.644 79.7122C221.346 79.4148 221.144 79.0358 221.062 78.6233C220.98 78.2107 221.022 77.7831 221.183 77.3945C221.344 77.0058 221.616 76.6737 221.966 76.44C222.316 76.2063 222.727 76.0815 223.148 76.0815C223.712 76.0815 224.253 76.3056 224.651 76.7045C225.05 77.1033 225.274 77.6443 225.274 78.2083Z" fill="#651FFF" stroke="#263238" stroke-width="1.02934" stroke-miterlimit="10"/>
<path d="M232.144 72.7482C233.318 72.7482 234.27 71.796 234.27 70.6214C234.27 69.4468 233.318 68.4946 232.144 68.4946C230.969 68.4946 230.017 69.4468 230.017 70.6214C230.017 71.796 230.969 72.7482 232.144 72.7482Z" fill="#651FFF" stroke="#263238" stroke-width="1.02934" stroke-miterlimit="10"/>
<path d="M163.987 70.6214C163.987 71.0423 163.862 71.4537 163.628 71.8036C163.394 72.1534 163.062 72.426 162.673 72.5868C162.284 72.7477 161.856 72.7895 161.444 72.707C161.031 72.6245 160.652 72.4214 160.355 72.1235C160.057 71.8255 159.855 71.4461 159.774 71.0332C159.692 70.6203 159.735 70.1925 159.897 69.8039C160.059 69.4154 160.332 69.0836 160.683 68.8505C161.033 68.6175 161.445 68.4936 161.866 68.4946C162.429 68.496 162.968 68.7207 163.366 69.1194C163.764 69.5181 163.987 70.0583 163.987 70.6214Z" fill="#651FFF" stroke="#263238" stroke-width="1.02934" stroke-miterlimit="10"/>
<path d="M99.8764 121.004H48.984C45.7617 121.004 43.1496 123.616 43.1496 126.838V177.731C43.1496 180.953 45.7617 183.565 48.984 183.565H99.8764C103.099 183.565 105.711 180.953 105.711 177.731V126.838C105.711 123.616 103.099 121.004 99.8764 121.004Z" fill="white" stroke="#263238" stroke-width="1.02934" stroke-miterlimit="10"/>
<path d="M66.6068 156.723L58.5052 172.474H95.2276" stroke="#263238" stroke-width="1.02934" stroke-linecap="round" stroke-linejoin="round"/>
<path d="M95.2276 132.928L78.0884 144.321L95.2276 149.479" stroke="#263238" stroke-width="1.02934" stroke-linecap="round" stroke-linejoin="round"/>
<path d="M99.2784 128.877H91.1768V136.979H99.2784V128.877Z" fill="#651FFF" stroke="#263238" stroke-width="1.02934" stroke-miterlimit="10"/>
<path d="M99.2784 145.429H91.1768V153.53H99.2784V145.429Z" fill="#651FFF" stroke="#263238" stroke-width="1.02934" stroke-miterlimit="10"/>
<path d="M82.1392 140.27H74.0376V148.372H82.1392V140.27Z" fill="#651FFF" stroke="#263238" stroke-width="1.02934" stroke-miterlimit="10"/>
<path d="M70.6576 152.672H62.556V160.773H70.6576V152.672Z" fill="#651FFF" stroke="#263238" stroke-width="1.02934" stroke-miterlimit="10"/>
<path d="M62.556 168.417H54.4544V176.519H62.556V168.417Z" fill="#651FFF" stroke="#263238" stroke-width="1.02934" stroke-miterlimit="10"/>
<path d="M99.2784 168.417H91.1768V176.519H99.2784V168.417Z" fill="#651FFF" stroke="#263238" stroke-width="1.02934" stroke-miterlimit="10"/>
<path d="M70.2104 96.4863H19.318C16.0958 96.4863 13.4836 99.0985 13.4836 102.321V153.213C13.4836 156.435 16.0958 159.048 19.318 159.048H70.2104C73.4327 159.048 76.0448 156.435 76.0448 153.213V102.321C76.0448 99.0985 73.4327 96.4863 70.2104 96.4863Z" fill="white" stroke="#263238" stroke-width="1.02934" stroke-miterlimit="10"/>
<path d="M61.7188 102.539H20.1032V105.763H61.7188V102.539Z" fill="#651FFF"/>
<path d="M44.148 107.848H20.1032V111.072H44.148V107.848Z" fill="#651FFF"/>
<path d="M34.1068 113.157H20.1032V116.381H34.1068V113.157Z" fill="#651FFF"/>
<path d="M43.1496 118.461H20.1032V121.685H43.1496V118.461Z" fill="#651FFF"/>
<path d="M56.03 123.771H20.1032V126.995H56.03V123.771Z" fill="#651FFF"/>
<path d="M44.148 129.075H20.1032V132.299H44.148V129.075Z" fill="#651FFF"/>
<path d="M36.8784 134.384H20.1032V137.608H36.8784V134.384Z" fill="#651FFF"/>
<path d="M47.2628 139.693H20.1032V142.917H47.2628V139.693Z" fill="#651FFF"/>
<path d="M53.0296 144.997H20.1032V148.221H53.0296V144.997Z" fill="#651FFF"/>
<path d="M61.7188 150.306H20.1032V153.53H61.7188V150.306Z" fill="#651FFF"/>
<path opacity="0.3" d="M61.7188 102.539H20.1032V105.763H61.7188V102.539Z" fill="black"/>
<path opacity="0.3" d="M44.148 107.848H20.1032V111.072H44.148V107.848Z" fill="black"/>
<path opacity="0.3" d="M34.1068 113.157H20.1032V116.381H34.1068V113.157Z" fill="black"/>
<path opacity="0.3" d="M43.1496 118.461H20.1032V121.685H43.1496V118.461Z" fill="black"/>
<path opacity="0.3" d="M56.03 123.771H20.1032V126.995H56.03V123.771Z" fill="black"/>
<path opacity="0.3" d="M44.148 129.075H20.1032V132.299H44.148V129.075Z" fill="black"/>
<path opacity="0.3" d="M36.8784 134.384H20.1032V137.608H36.8784V134.384Z" fill="black"/>
<path opacity="0.3" d="M47.2628 139.693H20.1032V142.917H47.2628V139.693Z" fill="black"/>
<path opacity="0.3" d="M53.0296 144.997H20.1032V148.221H53.0296V144.997Z" fill="black"/>
<path opacity="0.3" d="M61.7188 150.306H20.1032V153.53H61.7188V150.306Z" fill="black"/>
<path d="M46.8988 91H62.0412C62.7722 91 63.4732 91.2904 63.99 91.8072C64.5069 92.3241 64.7972 93.0251 64.7972 93.756V96.4964H44.1428V93.756C44.1428 93.0251 44.4332 92.3241 44.95 91.8072C45.4669 91.2904 46.1679 91 46.8988 91Z" fill="white" stroke="#263238" stroke-width="1.02934" stroke-miterlimit="10"/>
<path d="M36.66 91H51.6256C52.3814 91 53.1062 91.3002 53.6406 91.8346C54.175 92.3691 54.4752 93.0939 54.4752 93.8496V96.5016H33.8V93.8496C33.8 93.4745 33.8741 93.1031 34.0179 92.7567C34.1618 92.4103 34.3726 92.0957 34.6383 91.831C34.904 91.5662 35.2194 91.3565 35.5663 91.2139C35.9133 91.0714 36.2849 90.9987 36.66 91Z" fill="#651FFF" stroke="#263238" stroke-width="1.02934" stroke-miterlimit="10"/>
<path d="M25.1524 91H40.482C41.1886 90.9973 41.8674 91.2749 42.3695 91.7721C42.8716 92.2693 43.1559 92.9454 43.16 93.652V96.486H22.49V93.652C22.4941 92.9481 22.7763 92.2744 23.275 91.7776C23.7737 91.2809 24.4485 91.0014 25.1524 91Z" fill="white" stroke="#263238" stroke-width="1.02934" stroke-miterlimit="10"/>
<path d="M220.054 205.681H231.426" stroke="#263238" stroke-width="1.02934" stroke-linecap="round" stroke-linejoin="round"/>
<path d="M40.9084 205.681H214.068" stroke="#263238" stroke-width="1.02934" stroke-linecap="round" stroke-linejoin="round"/>
<path d="M216.934 199.019C216.934 199.019 218.946 197.371 219.908 199.17C220.735 200.73 218.754 202.472 216.492 202.472V203.788C216.492 203.788 221.338 203.918 221.692 199.836C222.045 195.754 216.913 196.882 216.913 196.882L216.934 199.019Z" fill="#651FFF" stroke="#263238" stroke-width="1.02934" stroke-linecap="round" stroke-linejoin="round"/>
<path d="M216.767 205.655H207.064L205.608 193.471H218.223L216.767 205.655Z" fill="#651FFF" stroke="#263238" stroke-width="1.02934" stroke-linecap="round" stroke-linejoin="round"/>
<path d="M218.202 192.889H205.629C205.261 192.889 204.963 193.187 204.963 193.554V193.617C204.963 193.984 205.261 194.282 205.629 194.282H218.202C218.57 194.282 218.868 193.984 218.868 193.617V193.554C218.868 193.187 218.57 192.889 218.202 192.889Z" fill="white" stroke="#263238" stroke-width="1.02934" stroke-linecap="round" stroke-linejoin="round"/>
<path d="M210.267 191.563C210.267 191.563 214.729 188.885 213.273 185.811C211.817 182.738 206.892 180.715 206.892 175.931C206.892 171.813 211.271 170.289 214.131 168.651" stroke="#263238" stroke-width="1.02934" stroke-linecap="round" stroke-linejoin="round"/>
<path d="M211.734 171.558C211.151 171.952 210.652 172.458 210.266 173.046C209.879 173.633 209.613 174.291 209.481 174.982C209.35 175.673 209.356 176.383 209.5 177.072C209.644 177.76 209.922 178.413 210.319 178.994" stroke="#263238" stroke-width="1.02934" stroke-linecap="round" stroke-linejoin="round"/>
<path d="M214.162 183.7C215.056 185.416 215.303 187.397 214.859 189.28" stroke="#263238" stroke-width="1.02934" stroke-linecap="round" stroke-linejoin="round"/>
<path d="M94.64 204.672C94.64 204.672 94.4372 201.177 91.3536 199.945C88.27 198.712 86.6216 199.222 79.742 201.073C75.4036 202.208 70.9605 202.896 66.482 203.127V204.687L94.64 204.672Z" fill="white" stroke="#263238" stroke-width="1.02934" stroke-linecap="round" stroke-linejoin="round"/>
<path d="M94.5412 204.672C94.5412 204.672 94.744 201.177 97.8276 199.945C100.911 198.712 102.554 199.222 109.439 201.073C113.784 202.21 118.234 202.899 122.72 203.127V204.687L94.5412 204.672Z" fill="white" stroke="#263238" stroke-width="1.02934" stroke-linecap="round" stroke-linejoin="round"/>
<path d="M123.838 204.053H65.7748V205.181H123.838V204.053Z" fill="#263238" stroke="#263238" stroke-width="1.02934" stroke-linecap="round" stroke-linejoin="round"/>
<path d="M96.0388 204.609C96.3152 203.785 96.7623 203.028 97.351 202.389C97.9397 201.749 98.6567 201.24 99.4552 200.896" stroke="#263238" stroke-width="1.02934" stroke-linecap="round" stroke-linejoin="round"/>
<path d="M97.7964 204.36C98.2067 203.653 98.7639 203.042 99.4304 202.568C100.097 202.094 100.857 201.769 101.66 201.614C103.579 201.261 105.534 201.921 107.344 202.654C109.153 203.388 112.32 204.36 114.254 204.36" stroke="#263238" stroke-width="1.02934" stroke-linecap="round" stroke-linejoin="round"/>
<path d="M77.688 204.043C79.6106 203.835 81.4952 203.363 83.2884 202.639C84.3686 202.132 85.4843 201.704 86.6268 201.36C87.7824 201.019 89.0254 201.144 90.09 201.708C90.5479 202.006 90.9507 202.38 91.2808 202.816C91.7396 203.395 92.1191 204.034 92.4092 204.714" stroke="#263238" stroke-width="1.02934" stroke-linecap="round" stroke-linejoin="round"/>
<path d="M88.3064 202.472C88.9392 202.554 89.5238 202.854 89.96 203.32C90.382 203.787 90.7501 204.299 91.0572 204.849" stroke="#263238" stroke-width="1.02934" stroke-linecap="round" stroke-linejoin="round"/>
<path d="M138.632 204.11C136.508 205.084 134.208 205.615 131.872 205.67C128.274 205.67 120.952 198.234 120.952 198.234C120.952 198.234 120.687 197.434 121.259 194.438C121.831 191.443 127.208 163.961 127.208 163.961C127.208 163.961 127.842 157.565 131.477 153.639C135.112 149.713 142.246 148.314 142.246 148.314C142.246 148.314 158.023 141.445 166.873 143.567C175.713 147.077 185.37 150.644 188.594 153.41C191.818 156.177 199.742 178.37 202.488 189.769C202.488 189.769 196.44 202.618 190.798 206.227C185.156 209.836 171.558 208.66 171.558 208.66L138.632 204.11Z" fill="#651FFF"/>
<path opacity="0.3" d="M136.63 181.777L134.347 151.487C132.853 152.092 131.528 153.052 130.487 154.283C129.447 155.514 128.721 156.98 128.372 158.554C127.192 163.972 120.052 197.32 120.936 198.245C121.82 199.171 126.474 203.159 126.474 203.159C126.474 203.159 131.492 207.449 136.63 204.886C141.768 202.322 136.63 181.777 136.63 181.777Z" fill="black"/>
<path opacity="0.3" d="M159.281 154.295C159.016 155.2 157.877 155.491 156.931 155.501C154.211 155.531 151.574 154.57 149.51 152.797C149.136 152.47 142.444 156.604 141.674 157.014C140.457 157.67 139.266 158.387 138.034 158.996C136.88 159.562 135.788 159.843 135.034 160.987C134.534 161.831 134.157 162.741 133.916 163.691C132.293 169.006 130.582 174.304 129.106 179.655C127.826 184.288 126.105 189.416 126.178 194.278C126.179 194.625 126.203 194.973 126.251 195.318C127.291 201.532 138.637 204.111 138.637 204.111C138.637 204.111 134.623 206.57 131.877 205.671C129.132 204.771 122.715 201.1 120.692 197.668L126.261 168.548C126.261 168.548 126.194 154.508 136.313 150.348C146.432 146.188 150.405 145.548 150.405 145.548L159.281 154.295Z" fill="black"/>
<path opacity="0.3" d="M196.622 200.102C196.622 200.102 201.042 195.219 202.472 189.78C202.472 189.78 195.712 167.451 193.955 163.26C192.197 159.068 189.353 154.31 187.361 152.272L184.127 198.23L183.446 207.902C183.446 207.902 187.086 208.052 189.608 206.862C192.13 205.671 196.622 200.102 196.622 200.102Z" fill="black"/>
<path d="M183.446 207.917L187.361 152.277C187.361 152.277 168.402 143.437 163.441 142.594C158.48 141.752 134.389 151.247 134.389 151.247L137.894 204.61" stroke="#263238" stroke-width="1.02934" stroke-linecap="round" stroke-linejoin="round"/>
<path d="M149.271 115.44L147.326 124.774C147.326 124.774 144.83 123.011 144.3 125.003C143.77 126.995 145.392 129.735 148.528 129.886C148.528 129.886 149.38 134.113 152.168 136.984C153.48 138.384 154.869 139.71 156.328 140.957C156.328 140.957 157.425 148.044 161.008 148.315C164.59 148.585 165.287 145.361 166.01 140.879C166.01 140.879 169.104 135.512 170.009 132.611C170.009 132.611 173.805 129.964 171.272 126.1C171.272 126.1 172.526 116.86 170.347 115.3C168.168 113.74 153.072 114.535 149.271 115.44Z" fill="white"/>
<path d="M160.831 149.053C160.831 149.053 159.63 155.106 158.881 155.257C158.132 155.408 155.168 152.579 152.578 149.053C149.989 145.528 150.389 145.522 150.389 145.522C150.389 145.522 151.59 140.894 152.578 140.218C153.566 139.542 157.128 139.626 157.128 139.626L164.928 139.329C164.928 139.329 167.528 138.96 169.135 139.995C170.742 141.03 171.522 145.522 171.522 145.522C171.522 145.522 166.842 154.149 163.025 155.257C162.174 153.233 161.442 151.162 160.831 149.053Z" fill="white"/>
<path d="M135.262 194.501L136.297 179.982" stroke="#263238" stroke-width="1.02934" stroke-miterlimit="10"/>
<path d="M171.522 118.113C171.522 118.113 167.092 119.829 163.176 119.502C163.176 119.502 159.042 123.662 153.748 121.192C153.748 121.192 148.975 134.119 159.921 142.574C157.152 141.512 154.675 139.807 152.695 137.6C150.714 135.394 149.286 132.748 148.528 129.881C148.528 129.881 145.408 130.364 144.3 125.721C144.3 125.721 143.4 123.927 147.503 123.916L147.326 114.92L157.867 117.037L165.433 115.929L171.522 118.113Z" fill="#651FFF"/>
<path opacity="0.4" d="M171.522 118.113C171.522 118.113 167.092 119.829 163.176 119.501C163.176 119.501 159.042 123.661 153.748 121.191C153.748 121.191 149.89 135.034 159.468 142.34C159.468 142.34 150.779 139.329 148.522 129.86C148.522 129.86 145.434 129.532 144.295 125.7C144.295 125.7 143.395 123.906 147.498 123.895L147.321 114.899L157.862 117.016L165.428 115.908L171.522 118.113Z" fill="white"/>
<path d="M159.474 136.032C159.817 136.31 160.176 136.567 160.55 136.802C160.794 136.958 161.164 137.083 161.335 136.854C161.394 136.76 161.425 136.652 161.424 136.542C161.58 133.989 160.982 131.409 161.346 128.877" stroke="#263238" stroke-width="1.02934" stroke-linecap="round" stroke-linejoin="round"/>
<path d="M163.025 127.426C163.025 127.426 164.294 124.629 167.565 127.14" stroke="#263238" stroke-width="2.05868" stroke-linecap="round" stroke-linejoin="round"/>
<path d="M158.912 127.92C158.912 127.92 156.52 124.946 153.556 128.014" stroke="#263238" stroke-width="2.05868" stroke-linecap="round" stroke-linejoin="round"/>
<path d="M155.683 140.509C155.683 140.509 156.957 148.138 161.45 148.372C165.09 148.559 165.807 142.251 165.948 139.995" stroke="#263238" stroke-width="1.02934" stroke-linecap="round" stroke-linejoin="round"/>
<path d="M147.94 125.622C147.94 125.622 145.959 123.256 144.617 124.41C143.276 125.565 145.288 130.65 148.528 129.881" stroke="#263238" stroke-width="1.02934" stroke-linecap="round" stroke-linejoin="round"/>
<path d="M156.52 136.979C157.498 138.157 158.835 138.983 160.326 139.329" stroke="#263238" stroke-width="1.02934" stroke-linecap="round" stroke-linejoin="round"/>
<path d="M156.302 132.554C156.586 132.554 156.816 132.065 156.816 131.462C156.816 130.859 156.586 130.37 156.302 130.37C156.017 130.37 155.787 130.859 155.787 131.462C155.787 132.065 156.017 132.554 156.302 132.554Z" fill="#263238"/>
<path d="M165.162 131.461C165.162 132.065 164.928 132.553 164.642 132.553C164.356 132.553 164.122 132.065 164.122 131.461C164.122 130.858 164.351 130.364 164.642 130.364C164.934 130.364 165.162 130.858 165.162 131.461Z" fill="#263238"/>
<path d="M160.976 148.31C160.976 148.31 159.728 155.106 158.896 155.257C158.064 155.408 151.663 149.604 150.405 145.522C150.405 145.522 151.757 140.187 153.005 139.995C153.592 139.901 154.268 139.813 154.804 139.745" stroke="#263238" stroke-width="1.02934" stroke-linecap="round" stroke-linejoin="round"/>
<path d="M160.976 148.309C160.976 148.309 162.183 155.106 163.025 155.257C163.868 155.407 170.264 149.604 171.522 145.522C171.522 145.522 169.993 140.223 168.834 139.776C168.094 139.499 167.332 139.283 166.556 139.131" stroke="#263238" stroke-width="1.02934" stroke-linecap="round" stroke-linejoin="round"/>
<path d="M149.141 131.592C149.963 133.016 150.982 127.998 150.55 126.392C150.259 125.352 149.692 124.343 149.64 123.272C149.588 122.055 150.16 120.916 150.608 119.777C151.055 118.638 151.289 117.281 150.608 116.262C152.969 117.932 155.741 118.926 158.626 119.138C159.362 119.241 160.111 119.181 160.82 118.961C161.172 118.845 161.488 118.641 161.737 118.368C161.987 118.094 162.162 117.761 162.245 117.401C164.949 117.744 167.627 118.098 170.321 117.728C172.583 117.422 176.098 116.85 177.258 114.541C178.958 111.171 174.58 107.672 171.995 106.491C165.755 103.636 157.321 103.153 151.684 107.635C151.106 108.137 150.5 108.605 149.869 109.039C148.626 109.819 145.798 110.422 144.804 111.509C143.473 112.97 145.142 124.254 145.142 124.254C145.142 124.254 147.316 123.246 148.21 126.61C148.834 128.877 148.309 130.156 149.141 131.592Z" fill="#263238"/>
<path d="M169.588 117C169.551 117.14 169.527 117.283 169.515 117.427C169.457 118.707 169.61 119.987 169.967 121.218C170.108 121.769 170.31 122.304 170.399 122.866C170.607 124.202 170.607 125.492 171.595 126.579C171.595 126.579 173.488 119.959 172.723 115.227C172.635 114.707 172.463 113.303 171.626 113.558C171.012 113.745 170.586 114.796 170.316 115.305C170.014 115.843 169.77 116.411 169.588 117Z" fill="#263238"/>
<path d="M143.463 110.76C144.3 110.179 145.263 109.805 146.273 109.67C147.283 109.534 148.311 109.64 149.271 109.98C150.782 107.289 152.886 104.977 155.423 103.22" stroke="#263238" stroke-width="1.02934" stroke-linecap="round" stroke-linejoin="round"/>
<path opacity="0.47" d="M151.596 109.169C151.596 109.169 161.788 116.418 167.96 114.624C174.132 112.83 172.406 107.521 172.406 107.521" stroke="white" stroke-width="1.02934" stroke-linecap="round" stroke-linejoin="round"/>
<path opacity="0.47" d="M152.578 107.952C152.578 107.952 165.376 113.834 167.528 105.508" stroke="white" stroke-width="1.02934" stroke-linecap="round" stroke-linejoin="round"/>
<path d="M155.683 140.509C155.683 140.509 158.116 145.236 160.025 145.158C161.933 145.08 165.433 139.995 165.433 139.995C165.433 139.995 163.545 142.428 160.68 142.678C158.792 142.844 155.683 140.509 155.683 140.509Z" fill="#263238"/>
<path d="M170.409 175.022L170.804 174.84C171.026 174.742 171.207 174.572 171.32 174.357C171.432 174.143 171.469 173.897 171.423 173.659L171.345 173.181C171.307 172.943 171.189 172.724 171.01 172.562C170.832 172.399 170.603 172.302 170.362 172.286L169.884 172.245C169.695 172.232 169.513 172.168 169.357 172.061C169.201 171.954 169.076 171.808 168.995 171.636C168.865 171.366 168.73 171.116 168.579 170.846C168.484 170.683 168.434 170.499 168.434 170.31C168.434 170.122 168.484 169.938 168.579 169.775L168.823 169.359C168.943 169.149 168.991 168.906 168.96 168.667C168.929 168.428 168.821 168.205 168.652 168.033L168.308 167.695C168.141 167.517 167.917 167.403 167.675 167.373C167.432 167.344 167.187 167.401 166.982 167.534L166.561 167.783C166.399 167.878 166.214 167.928 166.026 167.928C165.837 167.928 165.653 167.878 165.49 167.783C164.808 167.389 164.075 167.09 163.311 166.894C163.125 166.845 162.955 166.747 162.819 166.61C162.684 166.473 162.588 166.301 162.542 166.114L162.417 165.594C162.365 165.352 162.229 165.136 162.033 164.986C161.836 164.835 161.593 164.76 161.346 164.772H160.867C160.621 164.759 160.378 164.834 160.182 164.984C159.985 165.133 159.849 165.348 159.796 165.589L159.661 166.109C159.617 166.294 159.524 166.463 159.391 166.599C159.258 166.735 159.091 166.831 158.907 166.878C158.636 166.956 158.387 167.034 158.116 167.133C157.937 167.198 157.744 167.213 157.557 167.178C157.369 167.144 157.195 167.06 157.05 166.936L156.619 166.566C156.442 166.404 156.215 166.307 155.975 166.292C155.735 166.278 155.498 166.348 155.303 166.488L154.924 166.748C154.714 166.881 154.559 167.083 154.486 167.319C154.412 167.556 154.426 167.811 154.523 168.038L154.716 168.558C154.785 168.735 154.806 168.928 154.777 169.116C154.748 169.304 154.669 169.481 154.549 169.629C154.377 169.834 154.215 170.047 154.066 170.269C153.957 170.428 153.807 170.554 153.632 170.635C153.457 170.715 153.264 170.747 153.072 170.726L152.552 170.68C152.311 170.647 152.065 170.701 151.859 170.831C151.653 170.961 151.499 171.16 151.424 171.392L151.252 171.86C151.169 172.083 151.162 172.327 151.233 172.553C151.304 172.78 151.448 172.977 151.642 173.113L152.162 173.462C152.316 173.572 152.438 173.721 152.517 173.894C152.595 174.066 152.627 174.256 152.61 174.444C152.577 174.722 152.564 175.002 152.568 175.282C152.563 175.464 152.513 175.643 152.422 175.802C152.332 175.961 152.203 176.095 152.048 176.192L151.528 176.472C151.314 176.588 151.147 176.774 151.052 176.998C150.958 177.221 150.942 177.471 151.008 177.705L151.133 178.173C151.193 178.409 151.332 178.616 151.527 178.762C151.722 178.908 151.961 178.982 152.204 178.974H152.724C152.912 178.972 153.097 179.019 153.261 179.11C153.425 179.201 153.563 179.333 153.66 179.494C153.806 179.754 153.956 180.014 154.123 180.237C154.23 180.393 154.294 180.574 154.308 180.762C154.323 180.95 154.288 181.138 154.206 181.308L153.988 181.766C153.88 181.983 153.849 182.231 153.9 182.468C153.951 182.705 154.081 182.918 154.268 183.071L154.638 183.383C154.822 183.54 155.053 183.63 155.295 183.639C155.537 183.647 155.774 183.574 155.969 183.43L156.354 183.16C156.503 183.053 156.678 182.988 156.86 182.97C157.043 182.953 157.227 182.984 157.394 183.061C157.669 183.191 157.945 183.305 158.231 183.414C158.407 183.479 158.562 183.59 158.682 183.734C158.801 183.878 158.881 184.051 158.912 184.236L158.99 184.704C159.03 184.942 159.15 185.16 159.329 185.323C159.508 185.485 159.737 185.582 159.978 185.598L160.467 185.64C160.707 185.663 160.947 185.604 161.149 185.473C161.351 185.342 161.503 185.146 161.58 184.917L161.73 184.501C161.794 184.321 161.905 184.161 162.051 184.037C162.197 183.914 162.374 183.832 162.562 183.799C162.865 183.751 163.166 183.686 163.462 183.607C163.645 183.558 163.837 183.559 164.02 183.608C164.202 183.657 164.369 183.754 164.502 183.888L164.819 184.21C164.986 184.382 165.206 184.493 165.444 184.525C165.681 184.557 165.923 184.508 166.13 184.387L166.556 184.148C166.771 184.032 166.939 183.845 167.034 183.62C167.128 183.395 167.143 183.145 167.076 182.91L166.956 182.494C166.9 182.308 166.896 182.11 166.944 181.921C166.991 181.733 167.089 181.56 167.227 181.423C167.45 181.204 167.662 180.973 167.861 180.731C167.985 180.582 168.148 180.469 168.331 180.405C168.514 180.341 168.711 180.328 168.901 180.367L169.333 180.45C169.57 180.496 169.816 180.461 170.03 180.349C170.244 180.238 170.414 180.057 170.513 179.837L170.716 179.4C170.823 179.181 170.851 178.932 170.796 178.694C170.741 178.457 170.606 178.245 170.414 178.095L170.092 177.83C169.942 177.715 169.827 177.563 169.757 177.388C169.687 177.213 169.667 177.022 169.697 176.836C169.748 176.518 169.781 176.197 169.796 175.874C169.816 175.692 169.883 175.517 169.991 175.368C170.098 175.218 170.242 175.099 170.409 175.022ZM163.966 175.297C163.967 175.857 163.802 176.404 163.492 176.87C163.182 177.336 162.741 177.7 162.224 177.914C161.707 178.129 161.138 178.186 160.589 178.078C160.04 177.969 159.535 177.7 159.139 177.305C158.743 176.909 158.473 176.405 158.364 175.856C158.254 175.307 158.31 174.738 158.524 174.221C158.738 173.704 159.1 173.262 159.565 172.951C160.031 172.64 160.578 172.474 161.138 172.474C161.884 172.472 162.601 172.767 163.13 173.294C163.66 173.82 163.958 174.535 163.961 175.282L163.966 175.297Z" fill="#263238"/>
<path d="M135.372 192.546C134.947 193.014 134.483 193.443 133.983 193.83C132.629 195.142 131.614 196.762 131.024 198.552C130.733 199.38 130.733 200.282 131.024 201.11C131.654 202.67 133.65 204.23 135.247 203.232" stroke="#263238" stroke-width="1.02934" stroke-linecap="round" stroke-linejoin="round"/>
<path d="M135.247 189.8C133.723 189.561 132.226 190.445 131.186 191.573C130.146 192.702 129.423 194.095 128.476 195.307" stroke="#263238" stroke-width="1.02934" stroke-linecap="round" stroke-linejoin="round"/>
<path d="M135.127 205.437C133.099 205.831 130.999 205.606 129.1 204.792C127.897 204.145 126.777 203.356 125.762 202.441L121.81 199.176C121.176 198.656 120.474 197.902 120.734 197.122C120.734 197.122 127.338 162.318 128.372 158.553C129.574 154.211 134.41 151.273 134.41 151.273" stroke="#263238" stroke-width="1.02934" stroke-linecap="round" stroke-linejoin="round"/>
<path d="M184.678 192.92C186.379 194.199 187.679 195.936 188.427 197.928C189.019 199.776 189.415 201.681 189.608 203.612C188.568 204.184 186.488 205.692 184.678 205.692" stroke="#263238" stroke-width="1.02934" stroke-linecap="round" stroke-linejoin="round"/>
<path d="M184.902 190.024C186.503 189.597 188.089 190.689 189.301 191.823C190.512 192.956 191.755 194.272 193.404 194.449" stroke="#263238" stroke-width="1.02934" stroke-linecap="round" stroke-linejoin="round"/>
<path d="M185.208 208.11C188.328 207.782 191.136 206.082 193.383 203.913C195.629 201.745 197.356 199.114 199.066 196.508C200.455 194.397 201.864 192.229 202.472 189.78C202.472 189.78 196.997 171.678 193.955 163.26C190.783 154.508 187.361 152.272 187.361 152.272" stroke="#263238" stroke-width="1.02934" stroke-linecap="round" stroke-linejoin="round"/>
<path d="M184.902 190.024C187.725 187.653 192.057 189.572 195.094 191.163" stroke="#263238" stroke-width="1.02934" stroke-linecap="round" stroke-linejoin="round"/>
<path d="M184.673 180.336H135.372V208.671H184.673V180.336Z" fill="white"/>
<path d="M184.902 208.671H135.127V210.153H184.902V208.671Z" fill="#263238"/>
<path d="M135.127 208.671L184.678 180.336L184.902 208.671H135.127Z" fill="#263238"/>
<path opacity="0.9" d="M135.127 208.671L184.678 180.336L184.902 208.671H135.127Z" fill="white"/>
<path d="M163.658 197.011C165.299 195.37 165.299 192.71 163.658 191.069C162.017 189.428 159.357 189.428 157.716 191.069C156.076 192.71 156.076 195.37 157.716 197.011C159.357 198.652 162.017 198.652 163.658 197.011Z" fill="#263238"/>
<path d="M184.673 180.336H135.372V208.671H184.673V180.336Z" stroke="#263238" stroke-width="1.02934" stroke-linecap="round" stroke-linejoin="round"/>
<path d="M147.711 122.751C147.711 122.751 148.793 132.631 150.166 134.415C151.538 136.199 155.948 142.652 160.753 142.553C165.558 142.454 168.693 136.277 169.478 133.63C170.456 130.278 171.047 126.825 171.241 123.339" stroke="#263238" stroke-width="1.02934" stroke-linecap="round" stroke-linejoin="round"/>
<path d="M169.978 132.6C169.978 132.6 173.54 130.759 171.241 126.09" stroke="#263238" stroke-width="1.02934" stroke-linecap="round" stroke-linejoin="round"/>
</svg>
