<svg width="391" height="391" viewBox="0 0 391 391" fill="none" xmlns="http://www.w3.org/2000/svg">
<path d="M102.976 176.967C107.033 167.787 102.879 157.056 93.6986 152.999C84.5179 148.942 73.7868 153.096 69.73 162.276C65.6732 171.457 69.8269 182.188 79.0076 186.245C88.1882 190.302 98.9193 186.148 102.976 176.967Z" stroke="#263238" stroke-linecap="round" stroke-linejoin="round"/>
<path d="M88.7054 184.508C96.9218 183.211 102.531 175.499 101.234 167.283C99.9372 159.066 92.2252 153.457 84.0087 154.754C75.7923 156.051 70.183 163.763 71.4799 171.979C72.7769 180.196 80.489 185.805 88.7054 184.508Z" stroke="#263238" stroke-linecap="round" stroke-linejoin="round"/>
<path d="M76.7533 169.631H86.3563V183.488" stroke="#263238" stroke-linecap="round" stroke-linejoin="round"/>
<path d="M162.515 62.7946L159.598 55.5063H112.24V62.7946V86.2155V257.45H297.52V62.7946H162.515Z" fill="#A3A3A3"/>
<path d="M293.876 67.479H114.837V255.37H293.876V67.479Z" fill="white"/>
<path d="M293.876 67.479H114.837V75.2834H293.876V67.479Z" fill="#651FFF"/>
<path d="M239.769 83.4551H174.277C173.621 83.4551 172.971 83.5844 172.365 83.8356C171.76 84.0868 171.209 84.455 170.746 84.9191C170.282 85.3832 169.915 85.9342 169.665 86.5404C169.415 87.1466 169.286 87.7962 169.287 88.4521V115.275L175.191 109.019H239.769C240.427 109.019 241.078 108.889 241.685 108.637C242.292 108.385 242.844 108.015 243.308 107.55C243.772 107.084 244.14 106.531 244.39 105.923C244.64 105.315 244.768 104.664 244.766 104.006V88.4521C244.766 87.1268 244.24 85.8558 243.302 84.9187C242.365 83.9815 241.094 83.4551 239.769 83.4551Z" fill="#A3A3A3"/>
<path d="M182.652 101.457C186.53 101.457 189.674 98.3128 189.674 94.4345C189.674 90.5561 186.53 87.4121 182.652 87.4121C178.773 87.4121 175.629 90.5561 175.629 94.4345C175.629 98.3128 178.773 101.457 182.652 101.457Z" fill="white"/>
<path d="M186.194 93.9575C186.194 93.9575 186.929 92.9721 187.093 93.9575C187.258 94.9428 185.834 96.1627 185.834 96.1627L186.194 93.9575Z" fill="white" stroke="#263238" stroke-linecap="round" stroke-linejoin="round"/>
<path d="M179.133 93.9575C179.133 93.9575 178.398 92.9721 178.233 93.9575C178.069 94.9428 179.492 96.1627 179.492 96.1627L179.133 93.9575Z" fill="white" stroke="#263238" stroke-linecap="round" stroke-linejoin="round"/>
<path d="M182.91 89.1481C182.91 89.1481 180.134 88.9292 179.492 90.7825C179.053 92.5595 179.053 94.417 179.492 96.194C179.704 96.7648 181.487 99.5409 181.987 99.7599C182.301 99.8658 182.633 99.9073 182.964 99.8818C183.295 99.8562 183.617 99.7642 183.911 99.6113C184.122 99.3298 185.905 96.6944 186.046 95.7717C186.096 94.4106 186.07 93.0478 185.967 91.6896C185.942 91.2108 185.782 90.7489 185.505 90.3573C185.228 89.9657 184.846 89.6603 184.403 89.4766C183.927 89.2843 183.423 89.1733 182.91 89.1481Z" fill="white" stroke="#263238" stroke-linecap="round" stroke-linejoin="round"/>
<path d="M185.967 91.6584C185.942 91.1795 185.782 90.7176 185.505 90.326C185.228 89.9344 184.846 89.6291 184.403 89.4453C183.927 89.2531 183.423 89.1421 182.91 89.1169C182.91 89.1169 180.134 88.8979 179.492 90.7513C179.19 91.8073 179.084 92.91 179.18 94.0044C179.313 94.1686 179.782 94.6613 179.711 94.0044C179.641 93.3475 179.547 91.0562 180.118 90.5714C180.689 90.0866 180.775 89.6643 181.588 90.3212C182.401 90.978 182.331 91.5489 183.152 91.1032C183.973 90.6574 184.138 89.7894 184.873 90.1178C185.608 90.4463 185.365 92.0025 185.365 92.7375C185.365 93.4726 185.365 94.8646 185.858 94.2155C185.948 94.0759 186.021 93.9264 186.077 93.7698C186.046 93.0582 185.999 92.2762 185.967 91.6584Z" fill="#263238" stroke="#263238" stroke-linecap="round" stroke-linejoin="round"/>
<path d="M193.811 89.4219H208.356" stroke="white" stroke-width="2" stroke-linecap="round" stroke-linejoin="round"/>
<path d="M193.811 94.4893H238.33" stroke="white" stroke-linecap="round" stroke-linejoin="round"/>
<path d="M193.811 98.6729H238.33" stroke="white" stroke-linecap="round" stroke-linejoin="round"/>
<path d="M193.811 103.302H238.33" stroke="white" stroke-linecap="round" stroke-linejoin="round"/>
<path d="M239.769 188.861H174.277C173.621 188.86 172.972 188.988 172.366 189.239C171.76 189.489 171.21 189.856 170.746 190.32C170.283 190.783 169.915 191.334 169.665 191.94C169.415 192.545 169.286 193.195 169.287 193.85V220.673L175.191 214.417H239.769C241.093 214.417 242.363 213.891 243.3 212.956C244.237 212.02 244.764 210.751 244.766 209.427V193.85C244.766 193.194 244.637 192.545 244.385 191.939C244.134 191.333 243.766 190.783 243.302 190.319C242.838 189.856 242.287 189.489 241.681 189.238C241.074 188.988 240.425 188.86 239.769 188.861Z" fill="#A3A3A3"/>
<path d="M188.761 204.394C191.592 201.718 191.718 197.253 189.041 194.422C186.365 191.591 181.901 191.465 179.07 194.141C176.239 196.817 176.113 201.282 178.789 204.113C181.465 206.944 185.929 207.07 188.761 204.394Z" fill="white"/>
<path d="M186.194 199.355C186.194 199.355 186.929 198.37 187.093 199.355C187.258 200.341 185.834 201.568 185.834 201.568L186.194 199.355Z" fill="white" stroke="#263238" stroke-linecap="round" stroke-linejoin="round"/>
<path d="M179.133 199.355C179.133 199.355 178.398 198.37 178.233 199.355C178.069 200.341 179.492 201.568 179.492 201.568L179.133 199.355Z" fill="white" stroke="#263238" stroke-linecap="round" stroke-linejoin="round"/>
<path d="M182.91 194.515C182.91 194.515 180.134 194.304 179.492 196.149C179.053 197.929 179.053 199.789 179.492 201.568C179.704 202.131 181.487 204.915 181.987 205.126C182.301 205.232 182.633 205.274 182.963 205.249C183.293 205.225 183.616 205.136 183.911 204.986C184.122 204.696 185.905 202.061 186.046 201.138C186.096 199.777 186.07 198.414 185.967 197.056C185.94 196.578 185.779 196.117 185.503 195.725C185.226 195.334 184.845 195.028 184.403 194.843C183.926 194.655 183.422 194.544 182.91 194.515Z" fill="white" stroke="#263238" stroke-linecap="round" stroke-linejoin="round"/>
<path d="M185.967 197.064C185.94 196.586 185.779 196.124 185.503 195.733C185.226 195.342 184.845 195.036 184.403 194.851C183.926 194.662 183.422 194.551 182.91 194.522C182.91 194.522 180.134 194.311 179.492 196.157C179.19 197.213 179.084 198.316 179.18 199.41C179.313 199.574 179.782 200.075 179.711 199.41C179.641 198.745 179.547 196.462 180.118 195.969C180.689 195.477 180.775 195.07 181.588 195.719C182.401 196.368 182.331 196.954 183.152 196.54C183.973 196.126 184.138 195.234 184.873 195.563C185.608 195.891 185.365 197.439 185.365 198.182C185.365 198.925 185.365 200.309 185.858 199.652C185.949 199.514 186.023 199.364 186.077 199.207C186.046 198.487 185.999 197.682 185.967 197.064Z" fill="#263238" stroke="#263238" stroke-linecap="round" stroke-linejoin="round"/>
<path d="M193.811 194.82H208.356" stroke="white" stroke-width="2" stroke-linecap="round" stroke-linejoin="round"/>
<path d="M193.811 199.887H238.33" stroke="white" stroke-linecap="round" stroke-linejoin="round"/>
<path d="M193.811 204.079H238.33" stroke="white" stroke-linecap="round" stroke-linejoin="round"/>
<path d="M193.811 208.708H238.33" stroke="white" stroke-linecap="round" stroke-linejoin="round"/>
<path d="M274.482 154.171H209.013C207.69 154.171 206.421 154.697 205.485 155.633C204.549 156.568 204.024 157.837 204.024 159.161V174.738C204.024 176.061 204.549 177.33 205.485 178.266C206.421 179.202 207.69 179.727 209.013 179.727H273.598L279.502 185.983V159.161C279.502 158.503 279.372 157.851 279.12 157.244C278.867 156.637 278.497 156.085 278.03 155.622C277.564 155.158 277.01 154.791 276.401 154.542C275.792 154.293 275.14 154.167 274.482 154.171Z" fill="#A3A3A3"/>
<path d="M217.396 172.173C221.274 172.173 224.418 169.029 224.418 165.151C224.418 161.272 221.274 158.128 217.396 158.128C213.518 158.128 210.374 161.272 210.374 165.151C210.374 169.029 213.518 172.173 217.396 172.173Z" fill="white"/>
<path d="M220.931 164.666C220.931 164.666 221.713 163.688 221.83 164.666C221.947 165.643 220.579 166.879 220.579 166.879L220.931 164.666Z" fill="white" stroke="#263238" stroke-linecap="round" stroke-linejoin="round"/>
<path d="M213.877 164.666C213.877 164.666 213.142 163.688 212.978 164.666C212.813 165.643 214.268 166.879 214.268 166.879L213.877 164.666Z" fill="white" stroke="#263238" stroke-linecap="round" stroke-linejoin="round"/>
<path d="M217.654 159.825C217.654 159.825 214.878 159.614 214.237 161.46C213.793 163.239 213.793 165.1 214.237 166.879C214.448 167.442 216.231 170.226 216.724 170.437C217.037 170.542 217.369 170.584 217.699 170.56C218.03 170.536 218.352 170.446 218.647 170.296C218.866 170.007 220.641 167.371 220.782 166.449C220.841 165.088 220.815 163.724 220.704 162.367C220.679 161.888 220.518 161.426 220.241 161.034C219.965 160.643 219.583 160.337 219.14 160.154C218.666 159.964 218.164 159.853 217.654 159.825Z" fill="white" stroke="#263238" stroke-linecap="round" stroke-linejoin="round"/>
<path d="M220.704 162.367C220.679 161.888 220.518 161.426 220.241 161.034C219.965 160.643 219.583 160.337 219.14 160.154C218.666 159.964 218.164 159.853 217.654 159.825C217.654 159.825 214.878 159.614 214.237 161.46C213.935 162.516 213.827 163.618 213.916 164.713C214.057 164.877 214.518 165.377 214.448 164.752C214.37 163.97 214.284 161.804 214.862 161.311C215.441 160.818 215.511 160.412 216.332 161.069C217.154 161.725 217.068 162.296 217.896 161.851C218.725 161.405 218.882 160.545 219.617 160.873C220.352 161.202 220.11 162.75 220.11 163.493C220.11 164.236 220.11 165.62 220.594 164.963C220.689 164.826 220.763 164.676 220.813 164.517C220.782 163.806 220.743 162.992 220.704 162.367Z" fill="#263238" stroke="#263238" stroke-linecap="round" stroke-linejoin="round"/>
<path d="M214.862 161.311C215.177 161.773 215.587 162.162 216.064 162.452C216.542 162.742 217.076 162.926 217.631 162.992C218.159 163.1 218.703 163.101 219.231 162.993C219.759 162.886 220.26 162.673 220.704 162.367C220.704 162.367 221.595 162.367 221.595 161.311C221.595 160.255 221.892 160.701 220.375 160.701C218.858 160.701 215.269 157.87 214.862 161.311Z" fill="#263238" stroke="#263238" stroke-linecap="round" stroke-linejoin="round"/>
<path d="M217.287 165.119H214.526L214.823 166.034C214.851 166.12 214.905 166.195 214.978 166.248C215.051 166.302 215.139 166.331 215.23 166.331H216.653C216.749 166.33 216.842 166.298 216.917 166.238C216.992 166.179 217.045 166.096 217.068 166.003L217.287 165.119Z" fill="white" stroke="#263238" stroke-linecap="round" stroke-linejoin="round"/>
<path d="M220.344 165.119H217.584L217.881 166.034C217.909 166.12 217.963 166.195 218.036 166.248C218.109 166.302 218.197 166.331 218.287 166.331H219.742C219.838 166.332 219.932 166.3 220.007 166.24C220.082 166.18 220.135 166.097 220.156 166.003L220.344 165.119Z" fill="white" stroke="#263238" stroke-linecap="round" stroke-linejoin="round"/>
<path d="M228.547 160.13H243.093" stroke="white" stroke-width="2" stroke-linecap="round" stroke-linejoin="round"/>
<path d="M228.547 165.197H273.067" stroke="white" stroke-linecap="round" stroke-linejoin="round"/>
<path d="M228.547 169.389H273.067" stroke="white" stroke-linecap="round" stroke-linejoin="round"/>
<path d="M228.547 174.019H273.067" stroke="white" stroke-linecap="round" stroke-linejoin="round"/>
<path d="M240.7 120.271H175.207C173.882 120.271 172.611 120.798 171.674 121.735C170.737 122.672 170.21 123.943 170.21 125.268V152.091L176.114 145.835H240.7C242.023 145.835 243.292 145.309 244.227 144.374C245.163 143.438 245.689 142.169 245.689 140.846V125.268C245.69 124.613 245.562 123.963 245.311 123.357C245.061 122.751 244.694 122.2 244.23 121.736C243.767 121.271 243.217 120.903 242.611 120.652C242.005 120.401 241.355 120.271 240.7 120.271Z" fill="#651FFF"/>
<path d="M184.43 140.11C188.254 139.467 190.834 135.846 190.191 132.021C189.548 128.196 185.927 125.617 182.102 126.259C178.277 126.902 175.698 130.524 176.341 134.349C176.983 138.173 180.605 140.753 184.43 140.11Z" fill="white"/>
<path d="M182.386 127.849C182.053 127.714 181.697 127.648 181.338 127.654C180.979 127.66 180.625 127.738 180.297 127.884C179.97 128.03 179.675 128.241 179.43 128.504C179.186 128.766 178.997 129.076 178.875 129.413C177.913 131.955 179.117 135.458 179.117 136.905C179.117 138.352 180.572 139.571 182.143 139.689C183.715 139.806 185.772 140.049 186.976 138.125C188.18 136.201 187.703 131.963 187.219 129.523C186.734 127.083 184.075 127.724 182.386 127.849Z" fill="white" stroke="#263238" stroke-linecap="round" stroke-linejoin="round"/>
<path d="M186.804 132.698C186.804 132.698 187.586 131.712 187.711 132.698C187.836 133.683 186.452 134.911 186.452 134.911L186.804 132.698Z" fill="white" stroke="#263238" stroke-linecap="round" stroke-linejoin="round"/>
<path d="M179.751 132.698C179.751 132.698 179.015 131.712 178.851 132.698C178.687 133.683 180.11 134.911 180.11 134.911L179.751 132.698Z" fill="white" stroke="#263238" stroke-linecap="round" stroke-linejoin="round"/>
<path d="M183.528 127.857C183.528 127.857 180.751 127.646 180.11 129.491C179.666 131.27 179.666 133.131 180.11 134.911C180.321 135.474 182.104 138.258 182.597 138.469C182.911 138.574 183.243 138.616 183.573 138.592C183.903 138.568 184.225 138.478 184.521 138.328C184.74 138.039 186.515 135.403 186.663 134.48C186.714 133.119 186.688 131.757 186.585 130.398C186.557 129.92 186.396 129.46 186.119 129.068C185.843 128.677 185.463 128.371 185.021 128.185C184.545 127.995 184.04 127.884 183.528 127.857Z" fill="white" stroke="#263238" stroke-linecap="round" stroke-linejoin="round"/>
<path d="M181.424 128.576C181.424 128.576 185.913 132.697 186.812 132.697C187.711 132.697 187.829 129.663 186.867 128.209C185.905 126.754 181.299 125.902 181.424 128.576Z" fill="white" stroke="#263238" stroke-linecap="round" stroke-linejoin="round"/>
<path d="M193.873 125.769H208.419" stroke="#263238" stroke-width="2" stroke-linecap="round" stroke-linejoin="round"/>
<path d="M193.873 130.836H238.393" stroke="#263238" stroke-linecap="round" stroke-linejoin="round"/>
<path d="M193.873 135.02H238.393" stroke="#263238" stroke-linecap="round" stroke-linejoin="round"/>
<path d="M193.873 139.649H238.393" stroke="#263238" stroke-linecap="round" stroke-linejoin="round"/>
<path d="M162.109 82.4229H134.426V253.571H162.109V82.4229Z" fill="#651FFF"/>
<path d="M153.771 137.988C157.231 134.528 157.231 128.918 153.771 125.458C150.311 121.998 144.701 121.998 141.241 125.458C137.781 128.918 137.781 134.528 141.241 137.988C144.701 141.448 150.311 141.448 153.771 137.988Z" fill="white"/>
<path d="M146.398 124.995C146.398 124.995 143.192 123.775 141.972 126.981C140.752 130.187 142.277 134.606 142.277 136.436C142.277 138.265 144.107 139.79 146.093 139.947C148.08 140.103 150.668 140.4 152.193 137.96C153.718 135.521 153.108 130.18 152.498 127.13C151.888 124.08 148.533 124.838 146.398 124.995Z" fill="white" stroke="#263238" stroke-linecap="round" stroke-linejoin="round"/>
<path d="M151.974 131.11C151.974 131.11 152.904 129.875 153.116 131.11C153.327 132.346 151.552 133.902 151.552 133.902L151.974 131.11Z" fill="white" stroke="#263238" stroke-linecap="round" stroke-linejoin="round"/>
<path d="M143.106 131.11C143.106 131.11 142.175 129.875 141.964 131.11C141.753 132.346 143.528 133.902 143.528 133.902L143.106 131.11Z" fill="white" stroke="#263238" stroke-linecap="round" stroke-linejoin="round"/>
<path d="M147.837 125.003C147.837 125.003 144.334 124.737 143.52 127.067C142.707 129.398 143.255 133.183 143.52 133.902C143.786 134.621 146.039 138.125 146.648 138.391C147.258 138.657 148.807 138.571 149.08 138.211C149.354 137.851 151.599 134.528 151.771 133.362C151.851 131.658 151.831 129.95 151.708 128.248C151.674 127.644 151.47 127.062 151.12 126.568C150.77 126.074 150.288 125.689 149.73 125.456C149.128 125.203 148.488 125.05 147.837 125.003Z" fill="white" stroke="#263238" stroke-linecap="round" stroke-linejoin="round"/>
<path d="M145.178 125.902C145.178 125.902 150.84 131.102 151.974 131.102C153.108 131.102 153.256 127.278 152.036 125.44C150.817 123.603 145.022 122.555 145.178 125.902Z" fill="white" stroke="#263238" stroke-linecap="round" stroke-linejoin="round"/>
<path d="M149.539 110.595C154.302 109.476 157.257 104.707 156.138 99.9434C155.019 95.1798 150.25 92.2253 145.486 93.3444C140.723 94.4634 137.768 99.2323 138.887 103.996C140.006 108.759 144.775 111.714 149.539 110.595Z" fill="white"/>
<path d="M151.974 101.37C151.974 101.37 152.904 100.127 153.116 101.37C153.327 102.614 151.552 104.154 151.552 104.154L151.974 101.37Z" fill="white" stroke="#263238" stroke-linecap="round" stroke-linejoin="round"/>
<path d="M143.106 101.37C143.106 101.37 142.175 100.127 141.964 101.37C141.753 102.614 143.528 104.154 143.528 104.154L143.106 101.37Z" fill="white" stroke="#263238" stroke-linecap="round" stroke-linejoin="round"/>
<path d="M147.837 95.2633C147.837 95.2633 144.334 94.9896 143.52 97.3277C142.707 99.6659 143.255 103.435 143.52 104.155C143.786 104.874 146.039 108.377 146.648 108.651C147.258 108.925 148.807 108.831 149.08 108.471C149.354 108.112 151.599 104.788 151.771 103.615C151.843 101.9 151.811 100.181 151.677 98.4695C151.644 97.8648 151.441 97.2817 151.091 96.7876C150.741 96.2935 150.258 95.9087 149.698 95.6777C149.105 95.4378 148.476 95.2977 147.837 95.2633Z" fill="white" stroke="#263238" stroke-linecap="round" stroke-linejoin="round"/>
<path d="M151.708 98.4695C151.676 97.8648 151.472 97.2817 151.122 96.7876C150.772 96.2935 150.289 95.9087 149.73 95.6777C149.131 95.4361 148.497 95.296 147.853 95.2633C147.853 95.2633 144.349 94.9896 143.536 97.3277C143.157 98.661 143.021 100.052 143.137 101.433C143.317 101.637 143.919 102.262 143.81 101.433C143.708 100.503 143.606 97.7188 144.326 97.0932C145.045 96.4676 145.155 95.9592 146.187 96.7882C147.219 97.6171 147.118 98.3522 148.15 97.8204C149.182 97.2886 149.385 96.1626 150.316 96.577C151.247 96.9915 150.942 98.923 150.942 99.8849C150.942 100.847 150.942 102.567 151.559 101.746C151.674 101.57 151.766 101.381 151.833 101.183C151.786 100.276 151.708 99.2515 151.708 98.4695Z" fill="#263238" stroke="#263238" stroke-linecap="round" stroke-linejoin="round"/>
<path d="M147.509 170.155C152.402 170.155 156.369 166.188 156.369 161.295C156.369 156.402 152.402 152.435 147.509 152.435C142.615 152.435 138.649 156.402 138.649 161.295C138.649 166.188 142.615 170.155 147.509 170.155Z" fill="white"/>
<path d="M151.974 160.685C151.974 160.685 152.904 159.45 153.116 160.685C153.327 161.921 151.552 163.477 151.552 163.477L151.974 160.685Z" fill="white" stroke="#263238" stroke-linecap="round" stroke-linejoin="round"/>
<path d="M143.106 160.685C143.106 160.685 142.175 159.45 141.964 160.685C141.753 161.921 143.528 163.477 143.528 163.477L143.106 160.685Z" fill="white" stroke="#263238" stroke-linecap="round" stroke-linejoin="round"/>
<path d="M147.837 154.578C147.837 154.578 144.334 154.304 143.52 156.642C142.707 158.98 143.255 162.757 143.52 163.477C143.786 164.196 146.039 167.7 146.648 167.966C147.258 168.231 148.807 168.145 149.08 167.786C149.354 167.426 151.599 164.102 151.771 162.937C151.843 161.219 151.811 159.498 151.677 157.784C151.644 157.179 151.441 156.596 151.091 156.102C150.741 155.608 150.258 155.223 149.698 154.992C149.104 154.756 148.476 154.616 147.837 154.578Z" fill="white" stroke="#263238" stroke-linecap="round" stroke-linejoin="round"/>
<path d="M151.708 157.784C151.676 157.179 151.472 156.596 151.122 156.102C150.772 155.608 150.289 155.223 149.73 154.992C149.13 154.754 148.497 154.614 147.853 154.578C147.853 154.578 144.349 154.304 143.536 156.642C143.157 157.975 143.022 159.366 143.137 160.748C143.317 160.951 143.919 161.584 143.81 160.787C143.708 159.864 143.606 157.072 144.326 156.455C145.045 155.837 145.155 155.313 146.187 156.142C147.219 156.971 147.118 157.706 148.15 157.174C149.182 156.642 149.385 155.524 150.316 155.938C151.247 156.353 150.942 158.284 150.942 159.238C150.942 160.192 150.942 161.929 151.559 161.1C151.672 160.926 151.764 160.74 151.833 160.544C151.786 159.598 151.708 158.574 151.708 157.784Z" fill="#263238" stroke="#263238" stroke-linecap="round" stroke-linejoin="round"/>
<path d="M144.31 156.455C145.148 157.564 146.373 158.316 147.741 158.563C149.109 158.809 150.52 158.531 151.692 157.784C151.692 157.784 152.803 157.784 152.803 156.455C152.803 155.125 153.194 155.673 151.239 155.673C149.284 155.673 144.826 152.115 144.31 156.455Z" fill="#263238" stroke="#263238" stroke-linecap="round" stroke-linejoin="round"/>
<path d="M147.376 161.264H143.888L144.256 162.414C144.292 162.522 144.361 162.615 144.454 162.681C144.547 162.747 144.658 162.782 144.772 162.781H146.562C146.683 162.781 146.799 162.742 146.894 162.668C146.989 162.594 147.057 162.491 147.086 162.375L147.376 161.264Z" fill="white" stroke="#263238" stroke-linecap="round" stroke-linejoin="round"/>
<path d="M151.231 161.264H147.751L148.119 162.414C148.156 162.521 148.226 162.614 148.318 162.68C148.411 162.746 148.521 162.781 148.635 162.781H150.433C150.553 162.782 150.669 162.743 150.763 162.669C150.857 162.595 150.923 162.491 150.949 162.375L151.231 161.264Z" fill="white" stroke="#263238" stroke-linecap="round" stroke-linejoin="round"/>
<path d="M141.839 115.235H153.241" stroke="#263238" stroke-width="2" stroke-linecap="round" stroke-linejoin="round"/>
<path d="M141.839 144.381H153.241" stroke="#263238" stroke-width="2" stroke-linecap="round" stroke-linejoin="round"/>
<path d="M141.839 173.534H153.241" stroke="#263238" stroke-width="2" stroke-linecap="round" stroke-linejoin="round"/>
<path d="M66.47 230.557C66.47 230.557 66.47 227.843 62.6773 224.043C58.8846 220.242 56.4213 218.076 56.4213 218.076C56.4213 218.076 54.5211 224.332 58.0479 228.117C60.6471 230.787 63.4642 233.235 66.47 235.437V230.557Z" fill="#651FFF"/>
<path d="M60.996 247.495C60.996 247.495 60.996 244.781 57.2033 240.989C53.4106 237.196 50.9473 235.014 50.9473 235.014C50.9473 235.014 49.047 241.27 52.5739 245.055C55.173 247.725 57.9902 250.173 60.996 252.375V247.495Z" fill="#651FFF"/>
<path d="M66.251 235.178C66.251 235.178 66.5326 232.48 70.7163 229.102C74.9 225.724 77.5431 223.832 77.5431 223.832C77.5431 223.832 78.7787 230.236 74.8687 233.638C72.0073 236.018 68.9521 238.155 65.7349 240.027L66.251 235.178Z" fill="#651FFF"/>
<path d="M59.5884 255.182C59.5884 255.182 60.1593 252.531 64.6714 249.614C69.1835 246.697 72.0222 245.086 72.0222 245.086C72.0222 245.086 72.5696 251.585 68.3233 254.556C65.2282 256.623 61.9664 258.427 58.5718 259.952L59.5884 255.182Z" fill="#651FFF"/>
<path d="M60.8396 276.992C60.8396 276.992 60.8396 274.278 64.6401 270.486C68.4406 266.693 70.8961 264.511 70.8961 264.511C70.8961 264.511 72.7964 270.767 69.2696 274.552C66.6735 277.222 63.859 279.67 60.8552 281.872L60.8396 276.992Z" fill="#651FFF"/>
<path d="M60.777 282.302C60.777 282.302 61.168 279.612 57.9462 275.319C54.7244 271.025 52.6208 268.523 52.6208 268.523C52.6208 268.523 49.8525 274.427 52.8006 278.689C54.9907 281.702 57.4286 284.527 60.0889 287.135L60.777 282.302Z" fill="#651FFF"/>
<path d="M57.0313 298.098C57.0313 298.098 57.0313 295.385 60.8318 291.584C64.6323 287.784 67.0878 285.618 67.0878 285.618C67.0878 285.618 68.988 291.874 65.4612 295.651C62.8666 298.325 60.0519 300.776 57.0469 302.978L57.0313 298.098Z" fill="#651FFF"/>
<path d="M59.5728 312.401C59.5728 312.401 58.8846 309.774 61.5981 305.144C64.3117 300.515 66.1181 297.786 66.1181 297.786C66.1181 297.786 69.5354 303.346 67.0878 307.905C65.263 311.147 63.1703 314.231 60.8318 317.125L59.5728 312.401Z" fill="#651FFF"/>
<path d="M66.8297 229.861C66.6411 232.685 66.2938 235.497 65.7897 238.283C64.2882 246.04 60.5346 251.022 59.0332 258.06C57.5317 265.098 61.8484 274.091 60.691 283.084C59.5337 292.077 55.999 297.082 57.0313 303.087C58.0635 309.093 63.2873 325.351 63.2873 325.351" stroke="#263238" stroke-width="0.5" stroke-linecap="round" stroke-linejoin="round"/>
<path d="M66.2119 236.977L70.3018 233.833" stroke="#263238" stroke-width="0.5" stroke-linecap="round" stroke-linejoin="round"/>
<path d="M66.3996 233.364L64.687 230.314" stroke="#263238" stroke-width="0.5" stroke-linecap="round" stroke-linejoin="round"/>
<path d="M59.26 257.724C59.26 257.724 62.6929 255.159 66.2119 252.586" stroke="#263238" stroke-width="0.5" stroke-linecap="round" stroke-linejoin="round"/>
<path d="M60.996 252.375C59.2878 249.075 57.2494 245.957 54.912 243.069" stroke="#263238" stroke-width="0.5" stroke-linecap="round" stroke-linejoin="round"/>
<path d="M60.996 280.847C62.9498 277.243 65.4182 273.942 68.3233 271.049" stroke="#263238" stroke-width="0.5" stroke-linecap="round" stroke-linejoin="round"/>
<path d="M60.3078 284.648C59.2688 282.203 58.029 279.849 56.6012 277.61C54.5992 274.654 54.3177 274.278 54.3177 274.278" stroke="#263238" stroke-width="0.5" stroke-linecap="round" stroke-linejoin="round"/>
<path d="M57.0313 303.079C57.9005 300.919 58.9331 298.827 60.1202 296.823C61.3085 294.977 62.6477 293.233 64.124 291.607" stroke="#263238" stroke-width="0.5" stroke-linecap="round" stroke-linejoin="round"/>
<path d="M60.8083 317.124C60.6111 315.067 60.9647 312.994 61.8327 311.118C63.2638 308.358 64.8825 304.737 65.5472 303.298" stroke="#263238" stroke-width="0.5" stroke-linecap="round" stroke-linejoin="round"/>
<path d="M41.618 266.795C41.618 266.795 41.3287 265.09 43.2915 262.298C45.2543 259.506 46.5603 257.88 46.5603 257.88C46.5603 257.88 48.4293 261.587 46.6307 264.347C45.2937 266.294 43.7947 268.126 42.1498 269.821L41.618 266.795Z" fill="#651FFF"/>
<path d="M46.92 276.828C46.92 276.828 46.6307 275.131 48.6013 272.339C50.5719 269.547 51.8622 267.921 51.8622 267.921C51.8622 267.921 53.7312 271.628 51.9326 274.388C50.5933 276.334 49.0945 278.165 47.4518 279.862L46.92 276.828Z" fill="#651FFF"/>
<path d="M42.2749 269.665C42.2749 269.665 41.7979 267.999 38.8107 266.341C35.8234 264.683 33.9544 263.776 33.9544 263.776C33.9544 263.776 33.8762 267.921 36.6993 269.634C38.7513 270.817 40.8988 271.827 43.1195 272.652L42.2749 269.665Z" fill="#651FFF"/>
<path d="M48.6169 281.52C48.6169 281.52 47.9757 279.956 44.8321 278.572C41.6884 277.188 39.7334 276.531 39.7334 276.531C39.7334 276.531 40.0931 280.668 43.0726 282.075C45.2403 283.042 47.4845 283.826 49.7821 284.421L48.6169 281.52Z" fill="#651FFF"/>
<path d="M50.2044 295.298C50.2044 295.298 49.9072 293.594 47.0764 291.631C44.2456 289.668 42.5564 288.558 42.5564 288.558C42.5564 288.558 42.0403 292.671 44.66 294.673C46.5758 296.067 48.6058 297.296 50.7284 298.348L50.2044 295.298Z" fill="#651FFF"/>
<path d="M50.83 298.63C50.83 298.63 50.2904 296.988 51.8466 293.938C53.4028 290.888 54.4507 289.098 54.4507 289.098C54.4507 289.098 56.7967 292.499 55.436 295.494C54.3915 297.621 53.1699 299.656 51.7841 301.578L50.83 298.63Z" fill="#651FFF"/>
<path d="M55.5846 312.346C55.5846 312.346 55.7801 310.634 58.4623 308.507C61.1446 306.38 62.8337 305.191 62.8337 305.191C62.8337 305.191 63.6157 309.273 61.082 311.447C59.2463 312.946 57.2899 314.29 55.2327 315.466L55.5846 312.346Z" fill="#651FFF"/>
<path d="M54.8808 308.108C54.8808 308.108 54.5836 306.411 51.7528 304.44C48.9219 302.47 47.1937 301.375 47.1937 301.375C47.1937 301.375 46.6776 305.496 49.3051 307.49C51.2205 308.887 53.2505 310.119 55.3734 311.173L54.8808 308.108Z" fill="#651FFF"/>
<path d="M54.8417 317.367C54.8417 317.367 54.9902 315.646 52.785 313.034C50.5798 310.422 49.1487 308.89 49.1487 308.89C49.1487 308.89 47.5847 312.745 49.6414 315.341C51.1444 317.175 52.7975 318.88 54.5836 320.44L54.8417 317.367Z" fill="#651FFF"/>
<path d="M41.3287 266.396C41.7565 268.146 42.2786 269.871 42.8927 271.565C44.6757 276.257 47.5847 278.994 49.2738 283.225C50.9629 287.455 49.2738 293.578 50.9551 299.099C52.6364 304.62 55.3969 307.373 55.4203 311.244C55.4438 315.115 53.958 325.883 53.958 325.883" stroke="#263238" stroke-width="0.5" stroke-linecap="round" stroke-linejoin="round"/>
<path d="M42.4939 270.791L39.5848 269.266" stroke="#263238" stroke-width="0.5" stroke-linecap="round" stroke-linejoin="round"/>
<path d="M41.9778 268.539L42.7207 266.443" stroke="#263238" stroke-width="0.5" stroke-linecap="round" stroke-linejoin="round"/>
<path d="M49.1018 283.084C49.1018 283.084 46.6698 281.848 44.183 280.613" stroke="#263238" stroke-width="0.5" stroke-linecap="round" stroke-linejoin="round"/>
<path d="M47.4439 279.878C48.1563 277.622 49.097 275.444 50.2513 273.379" stroke="#263238" stroke-width="0.5" stroke-linecap="round" stroke-linejoin="round"/>
<path d="M50.5328 297.731C48.9157 295.685 47.0114 293.883 44.879 292.382" stroke="#263238" stroke-width="0.5" stroke-linecap="round" stroke-linejoin="round"/>
<path d="M51.3696 300.045C51.7535 298.398 52.2768 296.787 52.9336 295.228C53.8642 293.164 54.0049 292.882 54.0049 292.882" stroke="#263238" stroke-width="0.5" stroke-linecap="round" stroke-linejoin="round"/>
<path d="M55.2874 314.184C56.2331 313.013 57.2797 311.927 58.4154 310.939C59.1387 310.404 59.8186 309.813 60.4486 309.171" stroke="#263238" stroke-width="0.5" stroke-linecap="round" stroke-linejoin="round"/>
<path d="M55.4203 311.236C54.6428 309.977 53.7696 308.779 52.8085 307.654C51.8623 306.624 50.8346 305.672 49.7352 304.808" stroke="#263238" stroke-width="0.5" stroke-linecap="round" stroke-linejoin="round"/>
<path d="M54.5836 320.463C54.4849 319.15 54.0367 317.886 53.2855 316.804C52.089 315.24 50.6814 313.136 50.1106 312.315" stroke="#263238" stroke-width="0.5" stroke-linecap="round" stroke-linejoin="round"/>
<path d="M46.138 324.006H70.9978V342.219C70.9978 342.841 70.7506 343.438 70.3107 343.878C69.8707 344.317 69.274 344.565 68.6518 344.565H48.5387C47.9165 344.565 47.3198 344.317 46.8799 343.878C46.4399 343.438 46.1927 342.841 46.1927 342.219V324.006H46.138Z" fill="#263238"/>
<path d="M70.7866 327.251H46.138C45.627 327.245 45.1389 327.038 44.779 326.676C44.4191 326.313 44.2163 325.823 44.2143 325.312C44.2122 324.798 44.4132 324.304 44.7735 323.938C45.1338 323.572 45.6243 323.363 46.138 323.357H70.7866C71.0423 323.358 71.2953 323.409 71.5312 323.508C71.767 323.607 71.9811 323.751 72.1612 323.933C72.3413 324.114 72.4839 324.33 72.5808 324.566C72.6777 324.803 72.727 325.056 72.726 325.312C72.7239 325.826 72.519 326.318 72.1557 326.681C71.7924 327.044 71.3004 327.249 70.7866 327.251Z" fill="#263238"/>
<path d="M304.253 236.813H265.88C263.026 236.813 262.924 237.157 262.924 239.753V290.638H307.193V239.753C307.209 237.157 307.107 236.813 304.253 236.813Z" fill="#651FFF" stroke="#263238" stroke-linecap="round" stroke-linejoin="round"/>
<path d="M286.392 304.957H282.842V333.625H286.392V304.957Z" fill="#263238"/>
<path d="M288.519 310.548H280.707V334.336H288.519V310.548Z" fill="#263238"/>
<path d="M297.043 298.56H272.183V307.083H297.043V298.56Z" fill="#263238"/>
<path d="M259.108 344.862C260.067 344.862 260.844 344.084 260.844 343.126C260.844 342.167 260.067 341.39 259.108 341.39C258.149 341.39 257.372 342.167 257.372 343.126C257.372 344.084 258.149 344.862 259.108 344.862Z" fill="#263238"/>
<path d="M311.854 343.126C311.854 342.782 311.752 342.447 311.561 342.161C311.37 341.876 311.099 341.653 310.782 341.522C310.465 341.39 310.116 341.356 309.779 341.423C309.442 341.49 309.133 341.655 308.89 341.898C308.647 342.141 308.482 342.45 308.415 342.787C308.348 343.124 308.382 343.473 308.514 343.79C308.645 344.107 308.868 344.378 309.153 344.569C309.439 344.76 309.774 344.862 310.118 344.862C310.578 344.862 311.02 344.679 311.345 344.353C311.671 344.028 311.854 343.586 311.854 343.126Z" fill="#263238"/>
<path d="M280.707 334.336L257.169 339.959V341.593L284.335 339.349V334.234L280.707 334.336Z" fill="#263238"/>
<path d="M288.519 334.336L312.065 339.959V341.593L284.89 339.349V334.234L288.519 334.336Z" fill="#263238"/>
<path d="M284.711 344.862C284.545 344.862 284.381 344.829 284.229 344.766C284.076 344.703 283.937 344.61 283.82 344.493C283.703 344.376 283.611 344.237 283.547 344.085C283.484 343.932 283.452 343.768 283.452 343.603V338.364C283.452 338.029 283.584 337.708 283.82 337.47C284.056 337.233 284.376 337.099 284.711 337.097C285.045 337.099 285.365 337.233 285.601 337.47C285.837 337.708 285.97 338.029 285.97 338.364V343.603C285.97 343.768 285.937 343.932 285.874 344.085C285.81 344.237 285.718 344.376 285.601 344.493C285.484 344.61 285.345 344.703 285.192 344.766C285.04 344.829 284.876 344.862 284.711 344.862Z" fill="#263238"/>
<path d="M282.834 342H286.58V334.234H282.834V342Z" fill="#263238"/>
<path d="M307.506 286.884H262.494C261.522 286.884 260.734 287.672 260.734 288.644V297.676C260.734 298.648 261.522 299.435 262.494 299.435H307.506C308.478 299.435 309.265 298.648 309.265 297.676V288.644C309.265 287.672 308.478 286.884 307.506 286.884Z" fill="#651FFF" stroke="#263238" stroke-linecap="round" stroke-linejoin="round"/>
<path d="M271.456 270.126L268.547 275.983L276.343 286.657H298.56L303.815 277.664L301.234 270.126H271.456Z" fill="#263238" stroke="#263238" stroke-linecap="round" stroke-linejoin="round"/>
<path d="M268.547 275.983C268.547 275.983 264.238 278.689 263.229 283.123C262.736 285.297 267.022 292.937 269.485 293.758C271.831 294.54 285 285.219 285 285.219" fill="#263238"/>
<path d="M268.547 275.983C268.547 275.983 264.238 278.689 263.229 283.123C262.736 285.297 267.022 292.937 269.485 293.758C271.831 294.54 285 285.219 285 285.219" stroke="#263238" stroke-linecap="round" stroke-linejoin="round"/>
<path d="M269.524 278.259C269.524 278.259 264.441 277.477 263.174 281.144C262.291 283.717 263.448 291.31 263.737 292.178C264.027 293.046 268.945 335.188 268.945 335.188H275.874L278.22 282.012" fill="#263238"/>
<path d="M269.524 278.259C269.524 278.259 264.441 277.477 263.174 281.144C262.291 283.717 263.448 291.31 263.737 292.178C264.027 293.046 268.945 335.188 268.945 335.188H275.874L278.22 282.012" stroke="#263238" stroke-linecap="round" stroke-linejoin="round"/>
<path d="M268.945 335.189L268.163 338.418L260.562 342.977C260.562 342.977 260.805 344.416 261.954 344.416H275.123C275.366 344.423 275.607 344.377 275.831 344.281C276.054 344.185 276.253 344.042 276.416 343.861C276.578 343.68 276.699 343.466 276.77 343.234C276.841 343.001 276.861 342.757 276.828 342.516L275.905 335.157L268.945 335.189Z" fill="white" stroke="#263238" stroke-linecap="round" stroke-linejoin="round"/>
<path d="M260.601 343.079C260.68 343.4 261 344.416 261.97 344.416H275.139C275.523 344.415 275.894 344.281 276.19 344.037C276.487 343.794 276.69 343.455 276.765 343.079H260.601Z" fill="white" stroke="#263238" stroke-linecap="round" stroke-linejoin="round"/>
<path d="M268.179 338.418C270.028 338.3 271.884 338.427 273.7 338.793" stroke="#263238" stroke-linecap="round" stroke-linejoin="round"/>
<path d="M273.301 341.413L271.08 344.228" stroke="#263238" stroke-linecap="round" stroke-linejoin="round"/>
<path d="M302.634 275.983C302.634 275.983 306.943 278.689 307.952 283.123C308.444 285.297 304.159 292.937 301.696 293.758C299.35 294.54 286.181 285.219 286.181 285.219" fill="#263238"/>
<path d="M302.634 275.983C302.634 275.983 306.943 278.689 307.952 283.123C308.444 285.297 304.159 292.937 301.696 293.758C299.35 294.54 286.181 285.219 286.181 285.219" stroke="#263238" stroke-linecap="round" stroke-linejoin="round"/>
<path d="M301.625 278.259C301.625 278.259 306.708 277.477 307.975 281.144C308.859 283.717 307.701 291.31 307.412 292.178C307.123 293.046 302.204 335.188 302.204 335.188H295.275L292.968 282.012" fill="#263238"/>
<path d="M301.625 278.259C301.625 278.259 306.708 277.477 307.975 281.144C308.859 283.717 307.701 291.31 307.412 292.178C307.123 293.046 302.204 335.188 302.204 335.188H295.275L292.968 282.012" stroke="#263238" stroke-linecap="round" stroke-linejoin="round"/>
<path d="M302.204 335.188L302.986 338.418L310.587 342.977C310.587 342.977 310.345 344.416 309.195 344.416H296.01C295.775 344.415 295.541 344.365 295.326 344.268C295.111 344.171 294.919 344.03 294.763 343.853C294.606 343.677 294.489 343.469 294.418 343.244C294.347 343.019 294.325 342.781 294.353 342.547L295.275 335.188H302.204Z" fill="white" stroke="#263238" stroke-linecap="round" stroke-linejoin="round"/>
<path d="M310.548 343.079C310.47 343.4 310.149 344.416 309.179 344.416H296.01C295.627 344.415 295.255 344.281 294.959 344.037C294.663 343.794 294.46 343.455 294.384 343.079H310.548Z" fill="white" stroke="#263238" stroke-linecap="round" stroke-linejoin="round"/>
<path d="M302.97 338.418C301.121 338.3 299.265 338.427 297.449 338.793" stroke="#263238" stroke-linecap="round" stroke-linejoin="round"/>
<path d="M297.848 341.413L300.069 344.228" stroke="#263238" stroke-linecap="round" stroke-linejoin="round"/>
<path d="M290.529 223.847L289.661 224.285L281.864 224.082L281.035 224.801V224.285L280.167 223.847L264.59 231.096L271.456 270.126H301.234L305.965 231.096L290.529 223.847Z" fill="white" stroke="#263238" stroke-linecap="round" stroke-linejoin="round"/>
<path d="M279.753 222.471C279.753 222.471 276.554 224.621 276.554 225.294C276.554 225.966 276.101 233.114 276.101 233.114L280.136 231.769L285.61 236.461L290.927 231.972L295.862 233.098L294.298 224.801L288.245 220.766L279.753 222.471Z" fill="white" stroke="#263238" stroke-linecap="round" stroke-linejoin="round"/>
<path d="M305.965 231.097L319.588 254.189L309.383 255.362L303.987 247.831L305.965 231.097Z" fill="white" stroke="#263238" stroke-linecap="round" stroke-linejoin="round"/>
<path d="M264.738 231.097L251.194 254.189L261.399 255.362L269.18 246.604L264.738 231.097Z" fill="white" stroke="#263238" stroke-linecap="round" stroke-linejoin="round"/>
<path d="M291.365 227.265L285.586 236.508L279.933 227.265V213.783H291.365V227.265Z" fill="white" stroke="#263238" stroke-linecap="round" stroke-linejoin="round"/>
<path d="M278.689 210.202C278.689 210.202 276.57 209.646 276.781 211.132C276.992 212.618 277.633 215.379 278.689 216.012L279.753 216.645L278.689 210.202Z" fill="white" stroke="#263238" stroke-linecap="round" stroke-linejoin="round"/>
<path d="M292.89 210.202C292.89 210.202 295.01 209.646 294.798 211.132C294.587 212.618 293.946 215.379 292.89 216.012L291.827 216.645L292.89 210.202Z" fill="white" stroke="#263238" stroke-linecap="round" stroke-linejoin="round"/>
<path d="M293.883 207.738C293.818 205.644 292.941 203.658 291.436 202.2C289.932 200.742 287.92 199.927 285.825 199.927C283.73 199.927 281.718 200.742 280.213 202.2C278.709 203.658 277.832 205.644 277.766 207.738C277.769 208.574 277.898 209.404 278.15 210.201L280.206 219.851L283.952 225.106H287.565L291.201 220.532L293.422 210.428C293.728 209.564 293.884 208.655 293.883 207.738Z" fill="white" stroke="#263238" stroke-linecap="round" stroke-linejoin="round"/>
<path d="M292.155 207.105C291.7 208.112 291.412 209.187 291.303 210.287C291.483 211.602 291.84 212.886 292.366 214.104C292.366 214.104 294.908 208.802 294.712 206.894C294.517 204.986 291.936 206.448 292.155 207.105Z" fill="#263238" stroke="#263238" stroke-linecap="round" stroke-linejoin="round"/>
<path d="M278.791 213.681C278.791 213.681 278.791 213.345 278.846 212.852C278.963 211.484 279.283 208.841 280.065 208.379C281.121 207.738 281.012 204.391 281.012 204.391C281.012 204.391 279.534 206.065 284.625 207.762C289.715 209.459 293.844 208.802 296.605 205.197C299.365 201.592 296.816 199.042 296.394 200.317C295.971 201.592 295.119 203.289 293.633 202.014C292.147 200.739 289.817 198.198 285.579 198.198C281.34 198.198 279.424 202.014 279.424 202.014C278.742 202.345 278.164 202.855 277.75 203.49C277.337 204.126 277.105 204.862 277.078 205.619C277.094 208.16 278.791 213.681 278.791 213.681Z" fill="#263238" stroke="#263238" stroke-linecap="round" stroke-linejoin="round"/>
<path d="M293.711 206.964C290.708 207.089 288.151 205.064 285.547 203.281C282.943 201.498 281.168 203.281 281.168 203.281C281.371 202.311 281.888 201.436 282.639 200.79C283.389 200.144 284.332 199.763 285.321 199.707C288.863 199.48 290.013 204.344 293.32 204.766" stroke="white" stroke-width="0.5" stroke-linecap="round" stroke-linejoin="round"/>
<path d="M285.25 213.486H278.15L278.932 215.832C278.997 216.057 279.134 216.255 279.322 216.396C279.509 216.537 279.737 216.613 279.972 216.614H283.639C283.883 216.613 284.12 216.531 284.312 216.381C284.505 216.231 284.642 216.021 284.703 215.785L285.25 213.486Z" fill="white" stroke="#263238" stroke-linecap="round" stroke-linejoin="round"/>
<path d="M293.117 213.486H286.024L286.806 215.832C286.875 216.057 287.013 216.254 287.202 216.395C287.39 216.536 287.619 216.612 287.854 216.614H291.522C291.766 216.613 292.003 216.531 292.195 216.381C292.387 216.231 292.525 216.021 292.585 215.785L293.117 213.486Z" fill="white" stroke="#263238" stroke-linecap="round" stroke-linejoin="round"/>
<path d="M278.15 213.501L277.79 210.037" stroke="#263238" stroke-linecap="round" stroke-linejoin="round"/>
<path d="M293.117 213.502L293.93 210.217" stroke="#263238" stroke-linecap="round" stroke-linejoin="round"/>
<path d="M285.25 213.501H286.024" stroke="#263238" stroke-linecap="round" stroke-linejoin="round"/>
<path d="M285.055 214.604H286.306" stroke="#263238" stroke-linecap="round" stroke-linejoin="round"/>
<path d="M287.111 219.085C287.111 219.085 286.58 219.867 285.946 219.867C285.313 219.867 284.781 219.085 284.781 219.085" stroke="#263238" stroke-linecap="round" stroke-linejoin="round"/>
<path d="M292.922 252.492C292.922 252.492 289.958 249.903 289.207 250.146C288.456 250.388 287.581 253.641 288.222 254.47C288.863 255.299 290.278 252.468 290.278 252.468L292.945 256.152L292.922 252.492Z" fill="white" stroke="#263238" stroke-linecap="round" stroke-linejoin="round"/>
<path d="M292.468 253.642L289.723 254.627C289.09 255.397 288.308 256.033 287.424 256.496C286.165 257.051 285.524 257.645 286.916 258.255C288.308 258.865 290.31 256.691 290.31 256.691L293.438 257.012C293.604 256.729 293.711 256.415 293.752 256.09C293.794 255.764 293.768 255.434 293.677 255.118C293.587 254.803 293.433 254.509 293.225 254.256C293.017 254.002 292.759 253.793 292.468 253.642Z" fill="white" stroke="#263238" stroke-linecap="round" stroke-linejoin="round"/>
<path d="M295.158 258.928C295.991 259.389 296.957 259.552 297.895 259.389C299.412 259.108 301.852 255.941 301.852 255.941L300.624 253.673L295.932 253.556L295.158 258.928Z" fill="white" stroke="#263238" stroke-linecap="round" stroke-linejoin="round"/>
<path d="M292.601 251.366C292.601 251.366 290.865 255.909 291.076 256.652C291.287 257.395 294.204 259.194 295.158 258.928C295.776 258.756 297.043 257.176 297.856 256.113C298.051 255.853 298.136 255.526 298.092 255.204C298.048 254.882 297.879 254.591 297.621 254.392C296.112 253.243 293.25 251.178 292.601 251.366Z" fill="white" stroke="#263238" stroke-linecap="round" stroke-linejoin="round"/>
<path d="M292.484 257.739L294.618 252.484" stroke="#263238" stroke-linecap="round" stroke-linejoin="round"/>
<path d="M296.847 254.173L293.907 258.639" stroke="#263238" stroke-linecap="round" stroke-linejoin="round"/>
<path d="M298.575 253.446C299.309 255.306 299.538 257.327 299.24 259.303L299.201 259.522L317.555 261.086C318.402 260.968 319.177 260.543 319.732 259.891C320.286 259.24 320.583 258.407 320.565 257.552V256.199C320.556 255.73 320.453 255.268 320.262 254.84C320.071 254.412 319.796 254.027 319.453 253.707C319.111 253.388 318.707 253.14 318.267 252.98C317.826 252.82 317.358 252.75 316.89 252.774L298.575 253.446Z" fill="white" stroke="#263238" stroke-linecap="round" stroke-linejoin="round"/>
<path d="M272.48 252.492C272.48 252.492 275.436 249.903 276.187 250.146C276.937 250.388 277.821 253.641 277.18 254.47C276.539 255.299 275.123 252.468 275.123 252.468L272.449 256.152L272.48 252.492Z" fill="white" stroke="#263238" stroke-linecap="round" stroke-linejoin="round"/>
<path d="M272.957 253.642L275.71 254.627C276.341 255.4 277.123 256.036 278.009 256.496C279.26 257.051 279.901 257.645 278.517 258.255C277.133 258.865 275.123 256.691 275.123 256.691L271.995 257.012C271.83 256.729 271.723 256.416 271.682 256.091C271.641 255.766 271.666 255.436 271.756 255.121C271.846 254.806 271.998 254.513 272.205 254.258C272.411 254.004 272.667 253.794 272.957 253.642Z" fill="white" stroke="#263238" stroke-linecap="round" stroke-linejoin="round"/>
<path d="M270.236 258.928C269.402 259.389 268.437 259.552 267.499 259.389C265.982 259.108 263.542 255.941 263.542 255.941L264.77 253.673L269.462 253.556L270.236 258.928Z" fill="white" stroke="#263238" stroke-linecap="round" stroke-linejoin="round"/>
<path d="M272.801 251.366C272.801 251.366 274.537 255.909 274.318 256.652C274.099 257.395 271.19 259.194 270.236 258.928C269.626 258.756 268.351 257.176 267.546 256.113C267.351 255.853 267.266 255.526 267.31 255.204C267.354 254.882 267.523 254.591 267.78 254.392C269.282 253.243 272.136 251.178 272.801 251.366Z" fill="white" stroke="#263238" stroke-linecap="round" stroke-linejoin="round"/>
<path d="M272.91 257.739L270.775 252.484" stroke="#263238" stroke-linecap="round" stroke-linejoin="round"/>
<path d="M268.554 254.173L271.495 258.639" stroke="#263238" stroke-linecap="round" stroke-linejoin="round"/>
<path d="M266.818 253.446C266.267 255.346 266.099 257.337 266.326 259.303V259.522L252.477 261.086C251.155 260.836 250.177 259.326 250.201 257.551V256.198C250.201 254.22 251.483 252.672 252.969 252.773L266.818 253.446Z" fill="white" stroke="#263238" stroke-linecap="round" stroke-linejoin="round"/>
<path d="M299.092 256.786H257.646V258.256H299.092V256.786Z" fill="white" stroke="#263238" stroke-linecap="round" stroke-linejoin="round"/>
<path d="M322.223 256.942H301.563V258.099H322.223V256.942Z" fill="white" stroke="#263238" stroke-linecap="round" stroke-linejoin="round"/>
<path d="M338.661 217.678H290.466V248.754H338.661V217.678Z" fill="white" stroke="#263238" stroke-linecap="round" stroke-linejoin="round"/>
<path d="M338.661 217.678H291.858V248.754H338.661V217.678Z" fill="#263238" stroke="#263238" stroke-linecap="round" stroke-linejoin="round"/>
<path d="M322.794 232.004H311.095V258.623H322.794V232.004Z" fill="white" stroke="#263238" stroke-linecap="round" stroke-linejoin="round"/>
<path d="M323.873 232.004H312.174V258.623H323.873V232.004Z" fill="#263238" stroke="#263238" stroke-linecap="round" stroke-linejoin="round"/>
<path d="M311.4 232.317H324.147V250.545" stroke="white" stroke-linecap="round" stroke-linejoin="round"/>
<path d="M217.294 249.184H208.63V259.241H217.294V249.184Z" fill="white" stroke="#263238" stroke-linecap="round" stroke-linejoin="round"/>
<path d="M232.528 220.086H192.278V250.271H232.528V220.086Z" fill="#263238" stroke="#263238" stroke-linecap="round" stroke-linejoin="round"/>
<path d="M230.424 221.666H194.382V248.699H230.424V221.666Z" fill="white" stroke="#263238" stroke-linecap="round" stroke-linejoin="round"/>
<path d="M190.714 297.418L198.98 334.032L202.734 332.984L202.483 295.847L190.714 297.418Z" fill="white" stroke="#263238" stroke-linecap="round" stroke-linejoin="round"/>
<path d="M198.98 334.031L193.975 342.954L192.966 344.792H198.479L202.733 338.755V344.534H204.587V334.821L202.733 332.983L198.98 334.031Z" fill="white" stroke="#263238" stroke-linecap="round" stroke-linejoin="round"/>
<path d="M221.861 297.418L213.595 334.032L209.842 332.984L210.092 295.847L221.861 297.418Z" fill="white" stroke="#263238" stroke-linecap="round" stroke-linejoin="round"/>
<path d="M213.595 334.031L218.608 342.954L219.609 344.792H214.096L209.842 338.755V344.534H207.996V334.821L209.842 332.983L213.595 334.031Z" fill="white" stroke="#263238" stroke-linecap="round" stroke-linejoin="round"/>
<path d="M216.661 252.055H207.887V262.244H216.661V252.055Z" fill="white" stroke="#263238" stroke-linecap="round" stroke-linejoin="round"/>
<path d="M205.322 285.219C205.322 287.301 204.705 289.336 203.548 291.067C202.391 292.798 200.748 294.147 198.824 294.944C196.901 295.74 194.785 295.949 192.743 295.543C190.701 295.136 188.825 294.134 187.353 292.662C185.881 291.19 184.879 289.314 184.473 287.273C184.067 285.231 184.275 283.114 185.072 281.191C185.868 279.268 187.217 277.624 188.948 276.467C190.679 275.311 192.714 274.693 194.796 274.693C196.178 274.693 197.547 274.966 198.824 275.495C200.101 276.024 201.262 276.799 202.239 277.776C203.216 278.754 203.992 279.914 204.521 281.191C205.05 282.468 205.322 283.837 205.322 285.219Z" fill="#263238" stroke="#263238" stroke-linecap="round" stroke-linejoin="round"/>
<path d="M206.315 285.219C206.315 287.301 206.932 289.336 208.089 291.067C209.246 292.798 210.889 294.147 212.813 294.944C214.736 295.74 216.852 295.949 218.894 295.543C220.936 295.136 222.812 294.134 224.284 292.662C225.756 291.19 226.758 289.314 227.164 287.273C227.57 285.231 227.362 283.114 226.565 281.191C225.769 279.268 224.42 277.624 222.689 276.467C220.958 275.311 218.923 274.693 216.841 274.693C214.049 274.693 211.372 275.802 209.398 277.776C207.424 279.75 206.315 282.428 206.315 285.219Z" fill="#263238" stroke="#263238" stroke-linecap="round" stroke-linejoin="round"/>
<path d="M202.256 220.125L202.78 226.327L208.724 226.843L208.982 220.9C208.982 220.9 204.102 217.795 202.256 220.125Z" fill="white" stroke="#263238" stroke-linecap="round" stroke-linejoin="round"/>
<path d="M198.026 226.858C199.224 225.663 200.824 224.957 202.515 224.88C205.603 224.59 210.28 224.763 211.945 225.904C213.052 226.726 213.987 227.757 214.698 228.938L195.86 228.618L198.026 226.858Z" fill="white" stroke="#263238" stroke-linecap="round" stroke-linejoin="round"/>
<path d="M225.286 232.739C223.277 230.456 221.064 228.767 218.694 228.563C211.476 227.93 203.719 226.804 196.415 228.43C193.428 229.087 190.159 229.994 187.813 232.004C185.467 234.014 184.685 237.056 183.035 239.636L177.717 248.113C175.496 251.617 173.281 255.146 171.07 258.701C171.07 258.701 170.116 261.564 173.69 262.995C177.264 264.426 179.414 262.275 179.414 262.275L187.86 249.458L190.581 274.052H220.149L223.277 247.003C224.285 248.817 232.426 263.245 235.343 263.503C238.471 263.792 240.152 262.94 241.278 259.828C242.529 256.379 235.366 248.058 233.646 245.501C231.644 242.467 228.766 236.704 225.286 232.739Z" fill="white" stroke="#263238" stroke-linecap="round" stroke-linejoin="round"/>
<path d="M225.826 230.862L235.499 245.259L222.385 251.71L191.215 252.14L178.961 241.826L187.133 230.213C187.133 230.213 194.444 226.561 206.683 226.342C218.921 226.123 225.826 230.862 225.826 230.862Z" fill="white" stroke="#263238" stroke-linecap="round" stroke-linejoin="round"/>
<path d="M190.581 274.021L188.345 282.983C187.954 284.549 188.149 286.203 188.892 287.636L193.099 295.745H218.741L222.8 288.167C223.326 287.184 223.633 286.097 223.697 284.983C223.762 283.869 223.584 282.754 223.175 281.716L220.149 274.021H190.581Z" fill="#263238" stroke="#263238" stroke-linecap="round" stroke-linejoin="round"/>
<path d="M209.271 290.067H203.907V310.532H209.271V290.067Z" fill="#263238" stroke="#263238" stroke-linecap="round" stroke-linejoin="round"/>
<path d="M210.624 307.311H202.538V335.072H210.624V307.311Z" fill="#263238" stroke="#263238" stroke-linecap="round" stroke-linejoin="round"/>
<path d="M210.46 334.391L206.714 333.383V333.203L206.37 333.289L206.034 333.203V333.383L202.288 334.391L176.748 339.161V341.03H206.034H206.714H236V339.161L210.46 334.391Z" fill="#263238" stroke="#263238" stroke-linecap="round" stroke-linejoin="round"/>
<path d="M178.961 344.018C179.95 344.018 180.751 343.216 180.751 342.227C180.751 341.238 179.95 340.436 178.961 340.436C177.972 340.436 177.17 341.238 177.17 342.227C177.17 343.216 177.972 344.018 178.961 344.018Z" fill="#263238" stroke="#263238" stroke-linecap="round" stroke-linejoin="round"/>
<path d="M208.161 342.227C208.161 342.581 208.056 342.927 207.859 343.222C207.662 343.516 207.382 343.746 207.055 343.881C206.728 344.017 206.368 344.052 206.02 343.983C205.673 343.914 205.354 343.744 205.104 343.493C204.853 343.243 204.683 342.924 204.613 342.576C204.544 342.229 204.58 341.869 204.715 341.542C204.851 341.214 205.08 340.935 205.375 340.738C205.669 340.541 206.016 340.436 206.37 340.436C206.605 340.435 206.839 340.481 207.056 340.57C207.274 340.66 207.472 340.792 207.638 340.958C207.805 341.125 207.937 341.323 208.026 341.54C208.116 341.758 208.162 341.991 208.161 342.227Z" fill="#263238" stroke="#263238" stroke-linecap="round" stroke-linejoin="round"/>
<path d="M235.742 342.227C235.742 342.581 235.636 342.928 235.439 343.223C235.242 343.517 234.962 343.747 234.634 343.882C234.307 344.017 233.946 344.052 233.599 343.983C233.251 343.913 232.932 343.742 232.682 343.49C232.432 343.239 232.262 342.919 232.194 342.571C232.125 342.223 232.162 341.863 232.299 341.536C232.435 341.209 232.666 340.93 232.962 340.734C233.257 340.538 233.604 340.435 233.959 340.436C234.194 340.436 234.426 340.482 234.643 340.573C234.86 340.663 235.057 340.795 235.222 340.961C235.388 341.127 235.519 341.325 235.608 341.542C235.697 341.759 235.743 341.992 235.742 342.227Z" fill="#263238" stroke="#263238" stroke-linecap="round" stroke-linejoin="round"/>
<path d="M223.019 296.534H190.175C189.26 296.535 188.355 296.356 187.51 296.007C186.665 295.657 185.897 295.145 185.251 294.498C184.604 293.852 184.092 293.084 183.742 292.239C183.393 291.394 183.214 290.489 183.215 289.575L187.125 240.434C187.125 238.896 187.735 237.422 188.822 236.334C189.908 235.246 191.382 234.633 192.919 234.631H220.289C221.051 234.631 221.805 234.781 222.509 235.073C223.212 235.365 223.851 235.792 224.39 236.331C224.928 236.87 225.354 237.51 225.645 238.214C225.936 238.918 226.085 239.672 226.084 240.434L229.994 289.575C229.995 290.49 229.815 291.397 229.465 292.243C229.114 293.089 228.6 293.857 227.952 294.504C227.304 295.151 226.535 295.663 225.688 296.011C224.841 296.36 223.934 296.538 223.019 296.534Z" fill="#651FFF" stroke="#263238" stroke-linecap="round" stroke-linejoin="round"/>
<path d="M223.019 299.123H190.175C189.26 299.124 188.355 298.945 187.51 298.595C186.665 298.246 185.897 297.733 185.251 297.087C184.604 296.44 184.092 295.673 183.742 294.828C183.393 293.983 183.214 293.077 183.215 292.163L187.125 243.022C187.125 241.485 187.735 240.01 188.822 238.922C189.908 237.834 191.382 237.222 192.919 237.22H220.289C221.051 237.22 221.805 237.37 222.509 237.662C223.212 237.953 223.851 238.381 224.39 238.92C224.928 239.459 225.354 240.098 225.645 240.802C225.936 241.506 226.085 242.261 226.084 243.022L229.994 292.163C229.995 293.079 229.815 293.985 229.465 294.831C229.114 295.677 228.6 296.446 227.952 297.092C227.304 297.739 226.535 298.251 225.688 298.6C224.841 298.948 223.934 299.126 223.019 299.123Z" fill="#651FFF" stroke="#263238" stroke-linecap="round" stroke-linejoin="round"/>
<path d="M205.494 223.535C204.064 223.535 202.679 223.033 201.58 222.117C200.481 221.201 199.738 219.929 199.48 218.522C199.301 217.521 199.152 216.52 198.894 215.535L197.557 208.395C197.557 206.289 198.393 204.27 199.881 202.78C201.369 201.29 203.388 200.452 205.494 200.45C207.601 200.45 209.622 201.287 211.112 202.777C212.602 204.267 213.439 206.288 213.439 208.395L212.102 215.535C211.844 216.52 211.695 217.521 211.515 218.522C211.257 219.93 210.513 221.203 209.413 222.119C208.313 223.035 206.926 223.536 205.494 223.535Z" fill="#263238" stroke="#263238" stroke-linecap="round" stroke-linejoin="round"/>
<path d="M200.544 202.069C199.433 202.533 198.471 203.292 197.761 204.264C197.051 205.235 196.621 206.383 196.517 207.582C196.196 211.711 197.471 216.27 197.682 219.242C197.893 222.213 196.939 224.544 194.397 228.571C191.856 232.598 193.443 238.534 199.59 241.818C205.736 245.102 213.955 243.108 216.661 239.699C221.767 233.255 215.175 224.544 214.315 219.985C213.455 215.426 215.48 209.49 213.048 204.931C210.616 200.372 207.324 198.886 204.563 198.886C201.803 198.886 200.544 202.069 200.544 202.069Z" fill="white" stroke="#263238" stroke-linecap="round" stroke-linejoin="round"/>
<path d="M213.361 215.167C213.361 215.167 212.071 223.551 214.002 230.025C215.934 236.5 212.931 242.491 205.83 242.702C198.73 242.913 197.017 233.677 200.888 233.458C204.759 233.24 204.759 237.329 203.899 237.548" stroke="#263238" stroke-linecap="round" stroke-linejoin="round"/>
<path d="M200.544 202.069C200.544 202.069 203.899 204.415 204.118 207.856" stroke="#263238" stroke-linecap="round" stroke-linejoin="round"/>
<path d="M155.125 248.355H145.749V259.241H155.125V248.355Z" fill="white" stroke="#263238" stroke-linecap="round" stroke-linejoin="round"/>
<path d="M171.626 216.856H128.06V249.528H171.626V216.856Z" fill="#263238" stroke="#263238" stroke-linecap="round" stroke-linejoin="round"/>
<path d="M169.342 218.569H130.336V247.823H169.342V218.569Z" fill="white" stroke="#263238" stroke-linecap="round" stroke-linejoin="round"/>
<path d="M161.78 257.129H120.952V258.944H161.78V257.129Z" fill="white" stroke="#263238" stroke-linecap="round" stroke-linejoin="round"/>
<path d="M69.207 344.518H67.0565L65.5003 260.875H70.7554L69.207 344.518Z" fill="white" stroke="#263238" stroke-linecap="round" stroke-linejoin="round"/>
<path d="M87.3572 344.518H85.2067L83.6505 260.875H88.9134L87.3572 344.518Z" fill="#263238" stroke="#263238" stroke-linecap="round" stroke-linejoin="round"/>
<path d="M219.492 344.518H217.341L215.785 260.875H221.048L219.492 344.518Z" fill="#263238" stroke="#263238" stroke-linecap="round" stroke-linejoin="round"/>
<path d="M242.811 344.518H240.653L239.104 260.875H244.359L242.811 344.518Z" fill="#263238" stroke="#263238" stroke-linecap="round" stroke-linejoin="round"/>
<path d="M236.172 344.518H234.021L232.465 260.875H237.728L236.172 344.518Z" fill="#263238" stroke="#263238" stroke-linecap="round" stroke-linejoin="round"/>
<path d="M319.58 344.518H317.429L315.873 260.875H321.128L319.58 344.518Z" fill="#263238" stroke="#263238" stroke-linecap="round" stroke-linejoin="round"/>
<path d="M109.934 344.518H107.775L106.227 260.875H111.482L109.934 344.518Z" fill="#263238" stroke="#263238" stroke-linecap="round" stroke-linejoin="round"/>
<path d="M126.23 344.518H124.08L122.524 260.875H127.787L126.23 344.518Z" fill="#263238" stroke="#263238" stroke-linecap="round" stroke-linejoin="round"/>
<path d="M324.89 344.518H322.731L321.183 260.875H326.438L324.89 344.518Z" fill="#263238" stroke="#263238" stroke-linecap="round" stroke-linejoin="round"/>
<path d="M332.631 344.518H330.481L328.925 260.875H334.188L332.631 344.518Z" fill="#263238" stroke="#263238" stroke-linecap="round" stroke-linejoin="round"/>
<path d="M210.96 344.518H208.81L207.261 260.875H212.516L210.96 344.518Z" fill="white" stroke="#263238" stroke-linecap="round" stroke-linejoin="round"/>
<path d="M340.741 344.518H338.59L337.034 260.875H342.289L340.741 344.518Z" fill="white" stroke="#263238" stroke-linecap="round" stroke-linejoin="round"/>
<path d="M346.833 258.404H63.6001V280.034H346.833V258.404Z" fill="white" stroke="#263238" stroke-linecap="round" stroke-linejoin="round"/>
<path d="M346.833 258.404H63.6001V263.902H346.833V258.404Z" fill="#263238" stroke="#263238" stroke-linecap="round" stroke-linejoin="round"/>
<path d="M348.811 258.404H61.6138V261.407H348.811V258.404Z" fill="white" stroke="#263238" stroke-linecap="round" stroke-linejoin="round"/>
<path d="M93.5116 334.274L86.8646 342.688C86.8646 342.688 85.7619 344.018 87.7482 344.252C89.7345 344.487 99.7128 344.252 99.7128 344.252L99.3922 335.94L93.5116 334.274Z" fill="white" stroke="#263238" stroke-linecap="round" stroke-linejoin="round"/>
<path d="M92.9251 283.804L92.5341 335.517C92.532 335.843 92.5944 336.166 92.7177 336.468C92.8409 336.769 93.0226 337.044 93.2523 337.275C93.482 337.506 93.7551 337.689 94.0559 337.815C94.3567 337.94 94.6794 338.004 95.0052 338.004H96.968C97.5552 338.003 98.1227 337.793 98.5695 337.412C99.0163 337.031 99.3134 336.504 99.4079 335.924L106.845 288.918L92.9251 283.804Z" fill="#263238" stroke="#263238" stroke-linecap="round" stroke-linejoin="round"/>
<path d="M115.124 286.431C116.561 280.384 112.824 274.318 106.778 272.88C100.731 271.443 94.6649 275.18 93.2278 281.226C91.7907 287.273 95.5273 293.339 101.574 294.776C107.62 296.214 113.687 292.477 115.124 286.431Z" fill="#263238" stroke="#263238" stroke-linecap="round" stroke-linejoin="round"/>
<path d="M138.414 334.274L145.053 342.688C145.053 342.688 146.164 344.018 144.17 344.252C142.175 344.487 132.213 344.252 132.213 344.252L132.518 335.22L138.414 334.274Z" fill="white" stroke="#263238" stroke-linecap="round" stroke-linejoin="round"/>
<path d="M138.993 283.804L139.384 335.517C139.386 335.843 139.323 336.166 139.2 336.468C139.077 336.769 138.895 337.044 138.665 337.275C138.436 337.506 138.163 337.689 137.862 337.815C137.561 337.94 137.238 338.004 136.913 338.004H134.965C134.377 338.006 133.808 337.797 133.361 337.415C132.913 337.034 132.617 336.505 132.526 335.924L125.12 288.918L138.993 283.804Z" fill="#263238" stroke="#263238" stroke-linecap="round" stroke-linejoin="round"/>
<path d="M135.696 291.759C140.091 287.364 140.091 280.239 135.696 275.845C131.301 271.45 124.176 271.45 119.782 275.845C115.387 280.239 115.387 287.364 119.782 291.759C124.177 296.153 131.301 296.153 135.696 291.759Z" fill="#263238" stroke="#263238" stroke-linecap="round" stroke-linejoin="round"/>
<path d="M112.154 214.221L112.702 220.853L119.06 221.4L119.333 215.05C119.333 215.05 114.086 211.734 112.154 214.221Z" fill="white" stroke="#263238" stroke-linecap="round" stroke-linejoin="round"/>
<path d="M108.964 212.485C108.619 212.525 108.272 212.426 107.999 212.211C107.727 211.995 107.551 211.681 107.509 211.336L107.095 207.832C107.075 207.661 107.09 207.487 107.137 207.321C107.185 207.155 107.265 207 107.372 206.865C107.48 206.73 107.613 206.617 107.764 206.534C107.915 206.45 108.081 206.397 108.252 206.378C108.597 206.338 108.944 206.437 109.217 206.652C109.489 206.868 109.666 207.182 109.707 207.527L110.121 211.023C110.142 211.195 110.128 211.369 110.081 211.536C110.034 211.703 109.955 211.859 109.847 211.995C109.739 212.131 109.606 212.244 109.454 212.328C109.303 212.412 109.136 212.466 108.964 212.485Z" fill="white" stroke="#263238" stroke-linecap="round" stroke-linejoin="round"/>
<path d="M122.391 212.04C122.045 212.01 121.725 211.844 121.5 211.579C121.276 211.314 121.166 210.97 121.194 210.624L121.484 207.113C121.498 206.94 121.545 206.772 121.624 206.618C121.704 206.464 121.812 206.327 121.945 206.215C122.077 206.103 122.23 206.018 122.395 205.966C122.56 205.913 122.734 205.894 122.907 205.909C123.079 205.923 123.246 205.972 123.4 206.052C123.553 206.131 123.689 206.24 123.8 206.372C123.911 206.504 123.995 206.657 124.047 206.822C124.099 206.987 124.118 207.16 124.103 207.332L123.814 210.843C123.799 211.015 123.751 211.183 123.671 211.336C123.592 211.489 123.483 211.625 123.351 211.736C123.218 211.848 123.066 211.932 122.901 211.984C122.736 212.036 122.563 212.055 122.391 212.04Z" fill="white" stroke="#263238" stroke-linecap="round" stroke-linejoin="round"/>
<path d="M115.611 217.865C114.082 217.865 112.602 217.329 111.428 216.35C110.253 215.372 109.459 214.012 109.183 212.509C108.987 211.437 108.831 210.366 108.557 209.318L107.134 201.678C107.134 199.428 108.028 197.27 109.619 195.678C111.21 194.087 113.368 193.193 115.619 193.193C117.868 193.195 120.025 194.09 121.616 195.681C123.207 197.271 124.101 199.428 124.103 201.678L122.672 209.318C122.399 210.366 122.234 211.437 122.047 212.509C121.77 214.014 120.975 215.374 119.799 216.353C118.623 217.332 117.141 217.867 115.611 217.865Z" fill="#263238" stroke="#263238" stroke-linecap="round" stroke-linejoin="round"/>
<path d="M106.157 221.635C107.435 220.356 109.144 219.6 110.95 219.516C114.25 219.211 119.74 218.429 121.515 219.649C123.427 221.128 125.254 222.713 126.989 224.395L103.873 223.52L106.157 221.635Z" fill="white" stroke="#263238" stroke-linecap="round" stroke-linejoin="round"/>
<path d="M95.2554 224.7L78.8334 255.456C78.8334 255.456 77.8168 258.514 81.6408 260.039C85.4648 261.564 87.756 259.257 87.756 259.257L97.3981 244.586L95.2554 224.7Z" fill="#263238" stroke="#263238" stroke-linecap="round" stroke-linejoin="round"/>
<path d="M133.871 223.707C133.871 223.707 155.086 253.298 153.882 256.629C152.678 259.961 150.856 260.86 147.532 260.539C144.209 260.219 134.504 242.717 134.504 242.717L133.871 223.707Z" fill="#263238" stroke="#263238" stroke-linecap="round" stroke-linejoin="round"/>
<path d="M132.041 223.449C132.041 223.449 118.786 222.174 111.396 222.174C104.006 222.174 95.2554 224.7 95.2554 224.7L99.6659 271.831H131.274L133.871 223.707L132.041 223.449Z" fill="#263238" stroke="#263238" stroke-linecap="round" stroke-linejoin="round"/>
<path d="M99.6659 271.831L97.3199 281.411C96.9027 283.084 97.1113 284.853 97.9064 286.384L102.395 295.056H129.804L134.105 286.994C134.669 285.943 134.997 284.781 135.068 283.59C135.138 282.399 134.948 281.207 134.512 280.097L131.274 271.87L99.6659 271.831Z" fill="#263238" stroke="#263238" stroke-linecap="round" stroke-linejoin="round"/>
<path d="M119.638 288.98H113.906V310.853H119.638V288.98Z" fill="#263238" stroke="#263238" stroke-linecap="round" stroke-linejoin="round"/>
<path d="M121.101 307.42H112.452V335.087H121.101V307.42Z" fill="#263238" stroke="#263238" stroke-linecap="round" stroke-linejoin="round"/>
<path d="M120.921 334.352L116.909 333.281V333.085L116.549 333.179L116.182 333.085V333.281L112.178 334.352L84.8783 339.451V341.453H116.182H116.909H148.22V339.451L120.921 334.352Z" fill="#263238" stroke="#263238" stroke-linecap="round" stroke-linejoin="round"/>
<path d="M87.2477 344.635C88.3015 344.635 89.1558 343.781 89.1558 342.727C89.1558 341.674 88.3015 340.819 87.2477 340.819C86.1939 340.819 85.3397 341.674 85.3397 342.727C85.3397 343.781 86.1939 344.635 87.2477 344.635Z" fill="#263238" stroke="#263238" stroke-linecap="round" stroke-linejoin="round"/>
<path d="M118.457 342.727C118.457 343.105 118.345 343.474 118.136 343.787C117.926 344.101 117.628 344.346 117.279 344.49C116.931 344.635 116.547 344.672 116.177 344.599C115.807 344.525 115.467 344.343 115.2 344.077C114.933 343.81 114.751 343.47 114.678 343.1C114.604 342.73 114.642 342.346 114.786 341.997C114.931 341.649 115.175 341.351 115.489 341.141C115.803 340.931 116.172 340.819 116.549 340.819C117.055 340.819 117.541 341.02 117.898 341.378C118.256 341.736 118.457 342.221 118.457 342.727Z" fill="#263238" stroke="#263238" stroke-linecap="round" stroke-linejoin="round"/>
<path d="M147.947 342.727C147.948 343.107 147.837 343.478 147.628 343.794C147.418 344.11 147.119 344.357 146.769 344.503C146.419 344.649 146.034 344.688 145.662 344.615C145.29 344.542 144.947 344.36 144.679 344.093C144.41 343.825 144.227 343.484 144.152 343.112C144.078 342.74 144.115 342.354 144.26 342.004C144.405 341.653 144.65 341.354 144.965 341.143C145.281 340.932 145.651 340.819 146.031 340.819C146.537 340.819 147.024 341.02 147.383 341.378C147.742 341.735 147.945 342.221 147.947 342.727Z" fill="#263238" stroke="#263238" stroke-linecap="round" stroke-linejoin="round"/>
<path d="M89.148 268.007H94.8175V292.586H94.6142C93.1624 292.586 91.7701 292.009 90.7435 290.982C89.7169 289.956 89.1402 288.563 89.1402 287.112V268.007H89.148Z" fill="#651FFF" stroke="#263238" stroke-linecap="round" stroke-linejoin="round"/>
<path d="M94.794 262.877H85.8792V267.468H94.794V262.877Z" fill="#651FFF" stroke="#263238" stroke-linecap="round" stroke-linejoin="round"/>
<path d="M138.961 292.586C139.71 292.592 140.451 292.45 141.144 292.167C141.837 291.885 142.467 291.468 142.998 290.941C143.529 290.414 143.95 289.787 144.237 289.096C144.524 288.405 144.671 287.664 144.67 286.916V268.007H138.961V292.586Z" fill="#651FFF" stroke="#263238" stroke-linecap="round" stroke-linejoin="round"/>
<path d="M138.961 267.476H147.876V262.885H138.961V267.476Z" fill="#651FFF" stroke="#263238" stroke-linecap="round" stroke-linejoin="round"/>
<path d="M134.348 295.901H99.2123C98.2351 295.902 97.2672 295.711 96.364 295.338C95.4608 294.964 94.6401 294.417 93.9487 293.726C93.2573 293.035 92.7088 292.215 92.3345 291.312C91.9603 290.41 91.7677 289.442 91.7677 288.465L95.9358 235.93C95.9358 234.285 96.5891 232.708 97.7521 231.545C98.915 230.382 100.492 229.729 102.137 229.729H131.415C132.231 229.726 133.039 229.885 133.793 230.196C134.547 230.507 135.233 230.963 135.81 231.539C136.388 232.115 136.846 232.8 137.158 233.553C137.471 234.306 137.632 235.114 137.632 235.93L141.8 288.465C141.8 289.442 141.607 290.411 141.232 291.314C140.858 292.217 140.309 293.038 139.616 293.729C138.924 294.419 138.102 294.967 137.198 295.34C136.294 295.713 135.326 295.903 134.348 295.901Z" fill="#651FFF" stroke="#263238" stroke-linecap="round" stroke-linejoin="round"/>
<path d="M134.348 298.662H99.2123C98.2351 298.663 97.2672 298.471 96.364 298.098C95.4608 297.724 94.6401 297.177 93.9487 296.486C93.2573 295.796 92.7088 294.975 92.3345 294.073C91.9603 293.17 91.7677 292.202 91.7677 291.225L95.9358 238.69C95.9378 237.047 96.5921 235.471 97.7548 234.31C98.9176 233.149 100.494 232.497 102.137 232.497H131.415C133.058 232.497 134.635 233.149 135.797 234.31C136.96 235.471 137.614 237.047 137.616 238.69L141.784 291.225C141.784 293.197 141.001 295.089 139.606 296.483C138.212 297.878 136.32 298.662 134.348 298.662Z" fill="#651FFF" stroke="#263238" stroke-linecap="round" stroke-linejoin="round"/>
<path d="M35.104 344.596H353.964" stroke="#263238" stroke-linecap="round" stroke-linejoin="round"/>
</svg>
