<svg width="24" height="24" viewBox="0 0 24 24" fill="none" xmlns="http://www.w3.org/2000/svg">
<g clip-path="url(#clip0_550_1076)">
<path d="M12 15.75C11.1562 15.75 10.5 16.4062 10.5 17.25C10.5 18.0938 11.1141 18.75 12 18.75C12.8016 18.75 13.5 18.1359 13.5 17.25C13.5 16.4062 12.8016 15.75 12 15.75ZM13.5516 6H11.1562C9.28594 6 7.875 7.41094 7.875 9.28125C7.875 9.84844 8.39062 10.4062 9 10.4062C9.60938 10.4062 10.125 9.89062 10.125 9.28125C10.125 8.71875 10.5516 8.25 11.1141 8.25H13.5094C14.1141 8.25 14.625 8.71875 14.625 9.28125C14.625 9.65625 14.4375 9.94219 14.1094 10.1297L11.4375 11.7656C11.0625 12 10.875 12.375 10.875 12.75V13.5C10.875 14.1094 11.3906 14.625 12 14.625C12.6094 14.625 13.125 14.1094 13.125 13.5V13.4062L15.2391 12.0938C16.2234 11.4844 16.8328 10.4062 16.8328 9.28125C16.875 7.41094 15.3797 6 13.5516 6Z" fill="#651FFF"/>
<path opacity="0.4" d="M12 0C5.37188 0 0 5.37188 0 12C0 18.6281 5.37188 24 12 24C18.6281 24 24 18.6281 24 12C24 5.37188 18.6281 0 12 0ZM12 18.75C11.1562 18.75 10.5 18.0938 10.5 17.25C10.5 16.4062 11.1141 15.75 12 15.75C12.8016 15.75 13.5 16.4062 13.5 17.25C13.5 18.0938 12.8016 18.75 12 18.75ZM15.2391 12.0938L13.125 13.4062V13.5C13.125 14.1094 12.6094 14.625 12 14.625C11.3906 14.625 10.875 14.1094 10.875 13.5V12.75C10.875 12.375 11.0625 12 11.4375 11.7656L14.1094 10.1719C14.4375 9.98438 14.625 9.65625 14.625 9.28125C14.625 8.71875 14.1141 8.25 13.5516 8.25H11.1562C10.5516 8.25 10.125 8.71875 10.125 9.28125C10.125 9.89062 9.60938 10.4062 9 10.4062C8.39062 10.4062 7.875 9.89062 7.875 9.28125C7.875 7.45312 9.32812 6 11.1141 6H13.5094C15.4219 6 16.875 7.45312 16.875 9.28125C16.875 10.4062 16.2656 11.4844 15.2391 12.0938Z" fill="#651FFF"/>
</g>
<defs>
<clipPath id="clip0_550_1076">
<rect width="24" height="24" fill="white"/>
</clipPath>
</defs>
</svg>
