<svg width="40" height="36" viewBox="0 0 40 36" fill="none" xmlns="http://www.w3.org/2000/svg">
<path d="M40 15.75H0V9H40V15.75Z" fill="#651FFF"/>
<path opacity="0.4" d="M35.5556 2.25C38.0069 2.25 40 4.26445 40 6.75V9H0V6.75C0 4.26445 1.98958 2.25 4.44444 2.25H35.5556ZM40 29.25C40 31.732 38.0069 33.75 35.5556 33.75H4.44444C1.98958 33.75 0 31.732 0 29.25V15.75H40V29.25ZM7.77778 24.75C7.16667 24.75 6.66667 25.2563 6.66667 25.875C6.66667 26.4937 7.16667 27 7.77778 27H12.2222C12.8333 27 13.3333 26.4937 13.3333 25.875C13.3333 25.2563 12.8333 24.75 12.2222 24.75H7.77778ZM16.6667 27H25.5556C26.1667 27 26.6667 26.4937 26.6667 25.875C26.6667 25.2563 26.1667 24.75 25.5556 24.75H16.6667C16.0556 24.75 15.5556 25.2563 15.5556 25.875C15.5556 26.4937 16.0556 27 16.6667 27Z" fill="#651FFF"/>
</svg>
