<svg width="38" height="34" viewBox="0 0 38 34" fill="none" xmlns="http://www.w3.org/2000/svg">
<g clip-path="url(#clip0_548_1061)">
<path d="M14.7773 10.625V0L25.3329 10.625H14.7773ZM18.9996 24.4375C18.9996 19.1582 23.2548 14.875 28.4996 14.875C33.7444 14.875 37.9996 19.1582 37.9996 24.4375C37.9996 29.7168 33.7444 34 28.4996 34C23.2548 34 18.9996 29.7168 18.9996 24.4375ZM28.4996 30.8125C29.377 30.8125 30.0829 30.102 30.0829 29.2188C30.0829 28.3355 29.377 27.625 28.4996 27.625C27.6221 27.625 26.9162 28.3355 26.9162 29.2188C26.9162 30.102 27.6221 30.8125 28.4996 30.8125ZM24.2773 21.7812C24.2773 22.3656 24.7523 22.8438 25.3329 22.8438C25.9135 22.8438 26.3885 22.3656 26.3885 21.7812V21.3563C26.3885 21.0043 26.6721 20.7188 27.0218 20.7188H29.6937C30.2016 20.7188 30.6107 21.1305 30.6107 21.6418C30.6107 21.9871 30.4194 22.2992 30.1225 22.4652L28.0114 23.5809C27.6617 23.7668 27.444 24.1254 27.444 24.5172V25.5C27.444 26.0844 27.919 26.5625 28.4996 26.5625C29.0801 26.5625 29.5551 26.0844 29.5551 25.5V25.1613L31.1055 24.3445C32.1017 23.8133 32.7218 22.7176 32.7218 21.6418C32.7218 19.9617 31.3628 18.5938 29.6937 18.5938H27.0218C25.5044 18.5938 24.2773 19.8289 24.2773 21.3563V21.7812Z" fill="#651FFF"/>
<path opacity="0.4" d="M0 4.25C0 1.90254 1.8901 0 4.22222 0H14.7778V10.625H25.3333V13.1883C20.458 14.5762 16.8889 19.0852 16.8889 24.4375C16.8889 28.3621 18.8087 31.8285 21.751 33.9535C21.5465 33.9801 21.3288 34 21.1111 34H4.22222C1.8901 34 0 32.0941 0 29.75V4.25Z" fill="#651FFF"/>
</g>
<defs>
<clipPath id="clip0_548_1061">
<rect width="38" height="34" fill="white"/>
</clipPath>
</defs>
</svg>
