<svg width="653" height="384" viewBox="0 0 653 384" fill="none" xmlns="http://www.w3.org/2000/svg">
<g clip-path="url(#clip0_545_1547)">
<path d="M132.997 154.312L132.587 150.723C159.476 146.339 142.151 120.365 124.007 125.762C106.463 108.775 78.5903 147.737 76.1855 192.096L144.119 191.685C144.146 191.658 144.146 163.984 132.997 154.312Z" fill="#0B0D0E"/>
<path d="M160.104 302.405L161.17 383.589H53.832L72.6052 299.309L151.961 302.104L160.104 302.405Z" fill="#651FFF"/>
<path opacity="0.1" d="M159.284 304.542L66.1016 328.352L72.5779 299.336L157.207 302.104L159.284 304.542Z" fill="#0B0D0E"/>
<path d="M109.167 384L108.074 383.863L112.692 348.737L134.745 342.134L135.045 343.203L113.676 349.587L109.167 384Z" fill="#0B0D0E"/>
<path d="M61.0742 216.673L68.4523 298.843C68.7256 302.022 71.5402 304.515 74.9833 304.624L158.41 306.953C164.504 307.09 169.396 302.323 168.986 296.651L162.181 202.59L116.191 181.41L61.0742 216.673Z" fill="#00E5FF"/>
<path d="M195.519 228.811L173.603 199.192C169.012 192.644 161.935 188.287 154.065 187.109L115.152 181.328L180.326 261.991C186.72 269.91 198.88 269.444 204.673 261.087L224.813 232.099L207.816 214.81L195.519 228.811Z" fill="#00E5FF"/>
<path d="M253.314 206.809C258.096 202.014 255.035 200.644 245.444 203.713C235.852 206.809 220.823 204.398 216.369 206.124C214.674 206.782 211.341 210.481 207.815 214.81L224.812 232.126L233.803 219.166C233.803 219.139 248.532 211.604 253.314 206.809Z" fill="#FF8F78"/>
<path d="M116.218 181.41L76.4312 185.958C71.813 186.479 67.4408 188.424 63.9704 191.521L15.4936 234.619C10.3562 239.195 7.54162 245.853 7.86953 252.73C8.17012 258.868 10.9027 264.594 15.4662 268.677L47.1921 296.898L65.6646 277.417L44.2955 252.073L115.235 191.658L116.218 181.41Z" fill="#00E5FF"/>
<path d="M47.2197 296.898C47.2197 296.898 69.8732 313.529 72.2506 313.228C75.885 312.735 71.2669 306.159 71.2669 306.159C71.2669 306.159 79.0275 312.844 80.995 311.282C82.1974 310.296 80.7491 306.652 74.9286 300.323C74.9286 300.323 86.6516 308.433 88.783 306.899C93.1552 303.72 76.8687 292.048 76.8687 292.048C76.8687 292.048 87.7993 298.131 89.7394 296.186C91.6796 294.24 65.6923 277.417 65.6923 277.417L47.2197 296.898Z" fill="#FF8F78"/>
<path d="M120.052 233.763C121.92 232.987 122.808 230.839 122.034 228.966C121.26 227.093 119.118 226.203 117.249 226.979C115.381 227.755 114.494 229.903 115.268 231.776C116.041 233.65 118.184 234.539 120.052 233.763Z" fill="white"/>
<g opacity="0.8">
<path d="M168.138 193.356C162.482 193.986 156.825 196.233 151.906 198.891C140.757 204.919 130.482 215.029 117.12 215.44C104.359 215.824 94.7944 206.015 83.9458 200.864C75.666 196.918 66.2657 195.932 57.3027 197.521L55.7178 198.946C65.4459 196.836 75.8573 197.85 84.8749 202.508C94.1932 207.302 102.555 215.056 113.322 216.344C124.908 217.742 135.265 210.782 144.501 204.727C151.551 200.124 160.405 194.945 169.177 194.233C168.821 193.904 168.493 193.63 168.138 193.356Z" fill="white"/>
<path d="M34.103 285.226C41.809 279.253 49.4877 273.307 57.1937 267.334L56.5106 266.54C48.7772 272.54 41.0439 278.513 33.3105 284.513L34.103 285.226Z" fill="white"/>
<path d="M199.263 224.564C203.908 232.674 208.554 240.757 213.199 248.867L213.855 247.908C209.237 239.853 204.619 231.797 199.973 223.742L199.263 224.564Z" fill="white"/>
</g>
<path d="M74.0635 225.768L57.8154 239.259L58.5126 240.103L74.7606 226.612L74.0635 225.768Z" fill="#0B0D0E"/>
<path d="M30.9775 250.164L30.8672 251.254L44.2431 252.614L44.3534 251.524L30.9775 250.164Z" fill="#0B0D0E"/>
<path d="M163.199 222.087L162.114 222.219L164.909 245.338L165.994 245.207L163.199 222.087Z" fill="#0B0D0E"/>
<path d="M206.998 214.756L189.174 235.089L189.995 235.812L207.819 215.48L206.998 214.756Z" fill="#0B0D0E"/>
<path d="M128.077 154.97V185.246C128.077 191.931 122.667 197.357 115.999 197.357C109.332 197.357 103.921 191.931 103.921 185.246V154.97H128.077Z" fill="#FF8F78"/>
<path d="M128.078 171.053V183.191C120.153 180.78 114.223 174.286 109.086 166.286L128.078 171.053Z" fill="#CC7260"/>
<path d="M136.576 160.861C136.33 165.628 135.182 169.492 132.395 170.505C123.623 173.711 109.086 166.313 109.086 166.313L105.506 150.723L111.08 138.339L128.815 132.53L133.597 136.147C133.597 136.147 135.893 145.627 136.494 154.669C136.63 156.806 136.685 158.915 136.576 160.861Z" fill="#FF8F78"/>
<path d="M106.299 153.901C112.392 142.366 121.082 135.654 133.598 136.119L134.991 131.735L122.039 130.53L105.315 135.928L101.325 149.709L106.299 153.901Z" fill="#0B0D0E"/>
<path d="M132.86 151.408C132.86 152.394 132.258 153.162 131.493 153.162C130.728 153.162 130.127 152.367 130.127 151.408C130.127 150.422 130.728 149.655 131.493 149.655C132.258 149.655 132.86 150.449 132.86 151.408Z" fill="#0B0D0E"/>
<path d="M122.667 151.353C122.667 152.34 122.066 153.107 121.301 153.107C120.536 153.107 119.935 152.312 119.935 151.353C119.935 150.367 120.536 149.6 121.301 149.6C122.066 149.6 122.667 150.367 122.667 151.353Z" fill="#0B0D0E"/>
<path d="M128.57 153.573C129.007 153.984 129.39 154.422 129.69 154.943C130.018 155.436 130.264 156.011 130.401 156.641C130.455 156.97 130.483 157.299 130.428 157.682C130.373 158.039 130.155 158.45 129.827 158.669C129.745 158.724 129.663 158.778 129.581 158.833L129.335 158.943C129.171 158.998 129.007 159.025 128.843 159.052C128.515 159.08 128.215 159.052 127.914 158.998V158.587C128.187 158.504 128.433 158.45 128.679 158.34C128.898 158.258 129.089 158.121 129.226 157.984C129.335 157.847 129.39 157.71 129.417 157.518C129.444 157.326 129.417 157.107 129.362 156.861C129.28 156.395 129.089 155.874 128.87 155.381L128.215 153.847L128.57 153.573Z" fill="#0B0D0E"/>
<path d="M122.229 160.231C123.541 164.532 127.941 165.436 129.28 161.573L122.229 160.231Z" fill="white"/>
<path d="M123.705 145.435C123.787 146.12 123.186 146.504 122.612 146.723C121.328 147.161 119.907 147.49 118.486 147.517C118.021 147.517 117.174 147.682 116.874 147.216C116.546 146.75 117.01 146.339 117.42 146.147C118.185 145.764 123.487 143.517 123.705 145.435Z" fill="#0B0D0E"/>
<path d="M129.28 145.216C129.226 145.901 129.772 146.284 130.291 146.504C131.466 146.942 132.805 147.298 134.09 147.353C134.499 147.38 135.292 147.517 135.565 147.079C135.838 146.613 135.429 146.23 135.046 146.01C134.336 145.654 129.417 143.353 129.28 145.216Z" fill="#0B0D0E"/>
<path opacity="0.4" d="M118.399 160.056C119.616 158.836 119.616 156.858 118.399 155.639C117.183 154.419 115.21 154.419 113.994 155.639C112.777 156.858 112.777 158.836 113.994 160.056C115.21 161.276 117.183 161.276 118.399 160.056Z" fill="#FF5970"/>
<path opacity="0.4" d="M136.576 160.861C136.439 160.888 136.33 160.888 136.193 160.888C134.472 160.888 133.078 159.491 133.078 157.765C133.078 156.039 134.472 154.641 136.193 154.641C136.303 154.641 136.412 154.641 136.521 154.669C136.631 156.806 136.685 158.915 136.576 160.861Z" fill="#FF5970"/>
<path d="M107.181 159.43C109.704 157.97 110.323 154.311 108.565 151.257C106.807 148.204 103.337 146.913 100.814 148.373C98.2919 149.833 97.6724 153.492 99.4306 156.545C101.189 159.599 104.659 160.89 107.181 159.43Z" fill="#FF8F78"/>
<path d="M105.424 156.039C105.288 155.491 105.151 154.997 104.932 154.532C104.741 154.066 104.495 153.627 104.195 153.244C103.894 152.86 103.512 152.559 103.102 152.285C102.692 152.011 102.227 151.819 101.681 151.655L101.708 151.244C102.309 151.134 102.938 151.216 103.512 151.463C104.085 151.709 104.605 152.093 104.987 152.586C105.37 153.079 105.643 153.655 105.78 154.258C105.916 154.86 105.916 155.463 105.807 156.039H105.424Z" fill="#0B0D0E"/>
<path d="M528.026 151.545V176.533C528.026 183.958 522.014 189.986 514.609 189.986C507.203 189.986 501.219 183.958 501.219 176.533V151.545H528.026Z" fill="#FF8F78"/>
<path d="M521.577 160.751C517.177 168.231 511.056 174.012 501.219 176.067V161.107L514.691 158.313L521.577 160.751Z" fill="#0B0D0E"/>
<path d="M527.125 146.586L521.577 160.751C510.292 168.67 502.176 166.889 497.64 162.998C496.465 161.984 495.672 159.546 495.18 156.504C494.798 154.175 494.552 151.518 494.442 148.833C494.114 141.544 494.497 134.284 494.497 134.284L515.839 122.146L526.278 131.078L527.125 146.586Z" fill="#FF8F78"/>
<path d="M525.43 144.065C524.938 136.064 521.331 130.502 516.686 128.037C516.686 128.037 491.272 147.901 485.835 131.16C481.298 117.159 499.634 115.816 502.066 117.926C509.226 110.337 518.626 109.323 521.987 118.693C538.055 120.447 541.635 128.694 531.251 144.229L525.43 144.065Z" fill="#0B0D0E"/>
<path d="M499.771 145.572C499.771 146.394 499.252 147.052 498.623 147.052C497.995 147.052 497.476 146.394 497.476 145.572C497.476 144.75 497.995 144.092 498.623 144.092C499.252 144.092 499.771 144.75 499.771 145.572Z" fill="#0B0D0E"/>
<path d="M509.226 145.079C509.226 145.901 508.707 146.558 508.078 146.558C507.45 146.558 506.931 145.901 506.931 145.079C506.931 144.257 507.45 143.599 508.078 143.599C508.707 143.599 509.226 144.257 509.226 145.079Z" fill="#0B0D0E"/>
<path d="M502.996 146.586C502.613 147.216 502.231 147.819 501.875 148.449C501.711 148.75 501.52 149.079 501.383 149.381C501.247 149.682 501.11 150.011 501.055 150.285C501.028 150.422 501.028 150.559 501.028 150.641C501.028 150.696 501.055 150.723 501.055 150.75C501.055 150.778 501.055 150.778 501.083 150.805L501.165 150.887C501.356 151.134 501.602 151.353 501.848 151.545C502.394 151.956 503.023 152.285 503.651 152.586L503.57 152.997C502.804 152.942 502.039 152.723 501.356 152.34C501.001 152.148 500.673 151.901 500.372 151.572L500.263 151.463C500.236 151.408 500.181 151.326 500.154 151.271C500.072 151.134 500.044 150.997 500.017 150.86C499.962 150.586 499.99 150.339 500.044 150.12C500.126 149.682 500.29 149.298 500.482 148.97C500.673 148.613 500.892 148.312 501.11 148.011C501.575 147.408 502.094 146.86 502.668 146.367L502.996 146.586Z" fill="#0B0D0E"/>
<path d="M499.853 140.339C500.181 141.243 499.006 141.435 497.667 141.791C496.328 142.147 495.153 142.12 495.044 141.681C494.934 141.243 495.891 140.585 497.23 140.229C498.569 139.846 499.552 139.517 499.853 140.339Z" fill="#0B0D0E"/>
<path d="M506.438 139.681C506.056 140.668 507.395 140.914 508.898 141.325C510.4 141.736 511.712 141.681 511.849 141.188C511.985 140.695 510.892 139.955 509.389 139.544C507.886 139.133 506.766 138.777 506.438 139.681Z" fill="#0B0D0E"/>
<path d="M502.559 157.271C503.269 157.244 503.952 157.189 504.608 157.08C505.264 156.97 505.92 156.806 506.548 156.559C507.177 156.313 507.778 156.011 508.352 155.655C508.926 155.299 509.499 154.915 510.073 154.504L510.374 154.778C509.964 155.408 509.472 155.956 508.871 156.422C508.297 156.888 507.614 157.271 506.903 157.545C505.482 158.093 503.898 158.148 502.477 157.682L502.559 157.271Z" fill="#0B0D0E"/>
<path opacity="0.4" d="M515.347 154.011C517.535 154.011 519.309 152.232 519.309 150.038C519.309 147.844 517.535 146.065 515.347 146.065C513.159 146.065 511.385 147.844 511.385 150.038C511.385 152.232 513.159 154.011 515.347 154.011Z" fill="#FF5970"/>
<path opacity="0.4" d="M497.858 152.751C497.858 154.504 496.738 155.984 495.18 156.504C494.798 154.175 494.552 151.518 494.442 148.833C496.355 149.079 497.858 150.723 497.858 152.751Z" fill="#FF5970"/>
<path d="M532.392 148.475C533.705 144.832 532.41 141.024 529.5 139.97C526.591 138.916 523.167 141.015 521.855 144.658C520.542 148.301 521.836 152.109 524.746 153.163C527.656 154.218 531.079 152.119 532.392 148.475Z" fill="#FF8F78"/>
<path d="M525.676 147.983C525.485 147.435 525.485 146.805 525.649 146.202C525.813 145.627 526.114 145.079 526.496 144.613C526.879 144.147 527.371 143.764 527.917 143.517C528.464 143.27 529.092 143.134 529.693 143.271V143.681C529.201 143.818 528.764 144.065 528.382 144.339C527.999 144.613 527.617 144.942 527.316 145.298C526.988 145.654 526.742 146.065 526.524 146.504C526.332 146.942 526.196 147.408 526.114 147.928L525.676 147.983Z" fill="#0B0D0E"/>
<path d="M473.865 300.843L456.349 383.616H580.41L571.638 299.583L473.865 300.843Z" fill="#FF5970"/>
<path d="M521.549 384L515.51 348.271L502.284 341.449L502.776 340.463L516.494 347.532L516.549 347.806L522.615 383.836L521.549 384Z" fill="#0B0D0E"/>
<path opacity="0.1" d="M477.499 311.255L574.644 330.599L571.638 299.583L477.499 311.255Z" fill="#0B0D0E"/>
<path d="M402.626 240.73L389.154 229.715C386.148 227.249 382.431 225.797 378.524 225.605C365.981 224.92 338.983 225.304 339.065 227.386C339.311 233.606 369.288 241.223 369.288 241.223L395.002 266.046L402.626 240.73Z" fill="#FF8F78"/>
<path d="M516.44 179.602L476.079 184.397C466.269 185.575 457.77 191.822 453.754 200.891L431.674 250.73L402.626 240.702L385.957 267.91L437.248 292.952C445.255 296.87 454.929 293.747 459.137 285.883L516.44 179.602Z" fill="#651FFF"/>
<path d="M516.439 179.602L553.33 182.095C561.664 182.671 569.589 185.958 575.874 191.521L604.676 216.947L603.829 192.205L636.866 188.424L650.038 251.169C652.114 261.032 647.004 271.006 637.795 275.061C630.554 278.266 622.11 277.143 615.934 272.156L521.85 196.37L516.439 179.602Z" fill="#651FFF"/>
<path d="M516.439 179.602L569.78 200.617L578.688 299.967C579.262 306.405 574.234 311.967 567.785 312.05L475.723 313.009C469.602 313.063 464.601 308.132 464.547 301.994L464.055 216.399L516.439 179.602Z" fill="#651FFF"/>
<path d="M603.856 192.205C603.856 192.205 584.427 163.382 588.882 161.601C593.336 159.82 599.785 171.437 599.785 171.437L600.55 165.464C600.632 164.806 600.577 164.121 600.413 163.491L600.031 162.149C599.648 160.779 598.692 159.628 597.435 159.025L593.199 156.97C593.199 156.97 589.975 161.792 587.488 161.436C585.821 161.19 586.695 157.299 587.461 154.723C587.871 153.326 588.854 152.203 590.193 151.6L593.664 150.038C594.729 149.572 595.932 149.572 596.997 150.066L602.845 152.86C602.845 152.86 599.102 134.969 601.78 134.612C604.458 134.256 608.393 147.326 608.393 147.326C608.393 147.326 607.136 134.969 609.458 134.969C611.781 134.969 615.525 149.463 615.525 149.463C615.525 149.463 615.033 142.503 616.946 142.12C621.4 141.216 630.882 189.027 630.882 189.027L603.856 192.205Z" fill="#FF8F78"/>
<path d="M496.382 173.464L534.175 172.944L534.967 180.807C523.08 186.561 508.707 187 495.781 182.123L496.382 173.464Z" fill="#E0F7FA"/>
<g opacity="0.6">
<path d="M451.13 206.864C456.978 206.782 462.798 205.138 467.799 201.877C474.248 197.658 478.866 191.164 481.025 183.849L479.904 183.986C477.773 190.863 473.346 197 467.28 200.973C462.58 204.042 457.142 205.631 451.622 205.823L451.13 206.864Z" fill="white"/>
<path d="M581.367 196.37L580.465 195.576C567.758 199.905 553.767 193.932 548.111 181.739L546.936 181.657C552.811 194.891 567.813 201.275 581.367 196.37Z" fill="white"/>
<path d="M513.844 223.358C514.5 223.441 514.8 222.454 514.117 222.345C495.371 219.66 475.997 226.455 463.099 240.373C462.634 240.867 463.372 241.606 463.837 241.113C476.489 227.496 495.481 220.728 513.844 223.358Z" fill="white"/>
<path d="M570.6 233.989C550.406 244.812 525.758 245.881 504.744 236.839C504.143 236.565 503.596 237.469 504.224 237.743C525.621 246.949 550.597 245.908 571.147 234.893C571.72 234.565 571.174 233.661 570.6 233.989Z" fill="white"/>
</g>
<path d="M463.615 222.912L462.522 222.933L463.932 297.115L465.025 297.094L463.615 222.912Z" fill="#0B0D0E"/>
<path d="M563.5 226.76L562.755 227.563L583.195 246.643L583.94 245.841L563.5 226.76Z" fill="#0B0D0E"/>
<path d="M402.676 240.445L402.328 241.484L445.326 255.974L445.675 254.936L402.676 240.445Z" fill="#0B0D0E"/>
<path d="M604.422 192.18L603.33 192.225L605.188 237.863L606.28 237.818L604.422 192.18Z" fill="#0B0D0E"/>
<path d="M308.596 167.19L336.223 227.605H400.494V221.139H340.977L314.799 164.587L308.596 167.19Z" fill="#0B0D0E"/>
<path d="M231.974 161.19C253.163 161.19 270.34 143.967 270.34 122.721C270.34 101.476 253.163 84.2526 231.974 84.2526C210.785 84.2526 193.607 101.476 193.607 122.721C193.607 143.967 210.785 161.19 231.974 161.19Z" fill="white"/>
<path d="M231.973 161.71C210.522 161.71 193.088 144.229 193.088 122.721C193.088 101.213 210.522 83.732 231.973 83.732C253.424 83.732 270.859 101.213 270.859 122.721C270.859 144.202 253.397 161.71 231.973 161.71ZM231.973 84.7732C211.096 84.7732 194.126 101.788 194.126 122.721C194.126 143.654 211.096 160.669 231.973 160.669C252.85 160.669 269.82 143.654 269.82 122.721C269.793 101.788 252.823 84.7732 231.973 84.7732Z" fill="#0B0D0E"/>
<path d="M226.863 129.543L226.808 128.064C226.644 125.132 227.601 122.173 230.169 119.077C232 116.912 233.476 115.077 233.476 113.131C233.476 111.131 232.164 109.816 229.295 109.706C227.409 109.706 225.114 110.391 223.638 111.433L221.698 105.186C223.748 103.98 227.191 102.829 231.235 102.829C238.777 102.829 242.22 107.021 242.22 111.761C242.22 116.118 239.542 118.995 237.356 121.379C235.252 123.735 234.378 125.954 234.432 128.53V129.571H226.863V129.543ZM225.36 137.434C225.36 134.393 227.464 132.229 230.443 132.229C233.531 132.229 235.525 134.393 235.58 137.434C235.58 140.421 233.531 142.64 230.443 142.64C227.409 142.668 225.36 140.421 225.36 137.434Z" fill="#FF5970"/>
<path d="M361.783 55.8577L361.166 56.2628L372.748 74.0088L373.365 73.6037L361.783 55.8577Z" fill="#0B0D0E"/>
<path d="M382.475 49.0399L381.732 72.8652L382.47 72.8884L383.212 49.063L382.475 49.0399Z" fill="#0B0D0E"/>
<path d="M400.762 56.3503L390.966 73.7736L391.609 74.1369L401.405 56.7136L400.762 56.3503Z" fill="#0B0D0E"/>
<path d="M410.469 110.556C410.469 95.2671 398.117 82.8552 382.842 82.8552C367.566 82.8552 355.215 95.2397 355.215 110.556C355.215 118.748 358.767 126.119 364.424 131.187V145.709H401.26V131.187C406.916 126.119 410.469 118.748 410.469 110.556Z" fill="#00E5FF"/>
<path d="M401.26 154.477H364.424V166.012H401.26V154.477Z" fill="#0B0D0E"/>
<path d="M366.063 107.734L365.161 107.679C365.598 98.6646 370.462 96.3356 374.097 95.3493L374.315 96.1986C368.932 97.7056 366.391 101.24 366.063 107.734Z" fill="#0B0D0E"/>
<path d="M553.303 16.9327C551.39 14.4942 549.095 12.494 546.581 10.9871L549.669 3.06871L541.908 0L538.82 7.91837C533.136 6.71281 527.042 7.53478 521.714 10.4391L516.467 3.75369L509.909 8.93214L515.156 15.6176C511.084 20.1384 508.87 25.8649 508.707 31.7009L500.29 32.8791L501.438 41.1536L509.854 39.9755C510.729 42.7702 512.122 45.4827 514.062 47.9212C515.975 50.3598 518.271 52.3599 520.785 53.8669L517.697 61.7852L525.458 64.8265L528.545 56.9082C534.229 58.1137 540.323 57.2918 545.652 54.3874L550.898 61.1003L557.457 55.9218L552.21 49.2364C556.282 44.7155 558.468 38.9891 558.659 33.153L567.075 31.9749L565.928 23.7003L557.511 24.8785C556.609 22.0838 555.216 19.3712 553.303 16.9327ZM542.209 43.3182C536.224 48.0582 527.534 47.0171 522.834 41.0166C518.107 35.0162 519.145 26.3032 525.13 21.5906C531.114 16.8505 539.804 17.8917 544.504 23.8921C549.231 29.8651 548.22 38.5781 542.209 43.3182Z" fill="#D2D2D2"/>
<path d="M614.732 56.1958C612.737 55.2916 610.66 54.8258 608.611 54.6888L607.955 48.7432L602.135 49.4008L602.79 55.3464C598.856 56.4698 595.358 58.9631 592.98 62.525L587.542 60.0865L585.165 65.4567L590.603 67.8952C589.537 72.0325 590.056 76.3068 591.833 80.0057L586.996 83.4854L590.412 88.2529L595.248 84.7732C596.724 86.2253 598.446 87.4583 600.44 88.3351C602.435 89.2118 604.512 89.705 606.562 89.842L607.217 95.7877L613.038 95.1301L612.382 89.1844C616.317 88.0611 619.815 85.5677 622.192 82.0058L627.63 84.4444L630.007 79.0741L624.57 76.6356C625.635 72.4983 625.116 68.224 623.34 64.5251L628.177 61.0454L624.761 56.278L619.924 59.7577C618.476 58.3055 616.727 57.0726 614.732 56.1958ZM616.454 76.1972C614.268 81.1017 608.556 83.2936 603.665 81.1291C598.774 78.9371 596.587 73.2107 598.746 68.3062C600.932 63.4018 606.643 61.2098 611.535 63.3744C616.426 65.5663 618.64 71.2928 616.454 76.1972Z" fill="#D2D2D2"/>
<path d="M152.208 18.9329H26.2061V79.8961H152.208V18.9329Z" fill="white"/>
<path d="M152.726 80.4167H25.6865V18.3849H152.754V80.4167H152.726ZM26.7249 79.3755H151.688V19.4534H26.7249V79.3755Z" fill="#0B0D0E"/>
<g opacity="0.6">
<path d="M140.047 29.9473H38.3662V30.9885H140.047V29.9473Z" fill="#D2D2D2"/>
<path d="M140.047 48.8802H38.3662V49.9214H140.047V48.8802Z" fill="#D2D2D2"/>
<path d="M140.047 67.813H38.3662V68.8542H140.047V67.813Z" fill="#D2D2D2"/>
</g>
<path d="M99.7136 65.0457L81.569 38.0849L62.1127 64.2238L48.8867 52.7161L42.2191 64.0594L41.29 63.484L48.6135 51.0173L61.9487 62.6346L81.6236 36.1944L99.7956 63.21L129.745 26.2758L130.592 26.9882L99.7136 65.0457Z" fill="#0B0D0E"/>
<path d="M290.423 330.983H234.814V308.159H290.423V330.983ZM235.908 329.887H289.33V309.255H235.908V329.887Z" fill="#D2D2D2"/>
<path d="M344.939 330.983H289.33V308.159H344.939V330.983ZM290.423 329.887H343.846V309.255H290.423V329.887Z" fill="#D2D2D2"/>
<path d="M654 382.877H0V383.973H654V382.877Z" fill="#0B0D0E"/>
</g>
<defs>
<clipPath id="clip0_545_1547">
<rect width="654" height="384" fill="white"/>
</clipPath>
</defs>
</svg>
