<svg width="183" height="140" viewBox="0 0 183 140" fill="none" xmlns="http://www.w3.org/2000/svg">
<path d="M169.77 139.302H12.8262C6.06639 139.302 0.629181 133.864 0.629181 127.103V12.9047C0.629181 6.14396 6.06639 0.705948 12.8262 0.705948H169.917C176.677 0.705948 182.114 6.14396 182.114 12.9047V126.956C181.967 133.717 176.53 139.302 169.77 139.302Z" fill="#4D5A64"/>
<path d="M150.175 25.9879L157.705 23.1215V21.8295L150.175 18.9483V20.3889L155.833 22.4681L150.175 24.577V25.9879ZM142.184 16.2305L147.233 26.4631H148.704L143.654 16.2305H142.184ZM133.199 23.1215L140.714 26.0027V24.577L135.07 22.4681L140.714 20.3889V18.9483L133.199 21.8295V23.1215Z" fill="#FAFAFA"/>
<path d="M55.4422 32.7462C69.5496 32.7462 83.51 32.7462 97.6174 32.7462C99.6747 32.7462 101.732 32.7462 103.642 32.7462C105.112 32.7462 105.112 30.5416 103.642 30.5416C89.535 30.5416 75.5746 30.5416 61.4673 30.5416C59.4099 30.5416 57.3526 30.5416 55.4422 30.5416C53.9727 30.5416 53.9727 32.7462 55.4422 32.7462Z" fill="#FAFAFA"/>
<path d="M17.3811 51.5588C21.9366 51.5588 26.6391 51.5588 31.1946 51.5588C42.3629 51.5588 53.3843 51.5588 64.5526 51.5588C78.0721 51.5588 91.5917 51.5588 105.111 51.5588C116.72 51.5588 128.33 51.5588 140.086 51.5588C143.906 51.5588 147.727 51.5588 151.695 51.5588C153.458 51.5588 155.369 51.7058 157.132 51.5588C157.279 51.5588 157.279 51.5588 157.426 51.5588C158.896 51.5588 158.896 49.3542 157.426 49.3542C152.871 49.3542 148.168 49.3542 143.613 49.3542C132.444 49.3542 121.423 49.3542 110.255 49.3542C96.735 49.3542 83.2154 49.3542 69.6959 49.3542C58.0867 49.3542 46.4775 49.3542 34.7214 49.3542C30.9007 49.3542 27.0799 49.3542 23.1122 49.3542C21.3488 49.3542 19.4384 49.2072 17.675 49.3542C17.5281 49.3542 17.5281 49.3542 17.3811 49.3542C16.0585 49.3542 16.0585 51.5588 17.3811 51.5588Z" fill="#FAFAFA"/>
<path d="M141.409 73.8987C146.111 73.8987 150.667 73.8987 155.369 73.8987C155.957 73.8987 156.692 73.8987 157.279 73.8987C158.749 73.8987 158.749 71.6941 157.279 71.6941C152.577 71.6941 148.021 71.6941 143.319 71.6941C142.731 71.6941 141.996 71.6941 141.409 71.6941C140.086 71.6941 140.086 73.8987 141.409 73.8987Z" fill="#FAFAFA"/>
<path d="M57.2053 73.8987C64.6998 73.8987 72.3413 73.8987 79.8358 73.8987C91.8858 73.8987 103.789 73.8987 115.839 73.8987C118.631 73.8987 121.423 73.8987 124.215 73.8987C125.685 73.8987 125.685 71.6941 124.215 71.6941C116.721 71.6941 109.079 71.6941 101.585 71.6941C89.5346 71.6941 77.6315 71.6941 65.5815 71.6941C62.7894 71.6941 59.9974 71.6941 57.2053 71.6941C55.7358 71.6941 55.7358 73.8987 57.2053 73.8987Z" fill="#FAFAFA"/>
<path d="M17.3811 92.2704C21.9366 92.2704 26.6391 92.2704 31.1946 92.2704C42.3629 92.2704 53.3843 92.2704 64.5526 92.2704C78.0721 92.2704 91.5917 92.2704 105.111 92.2704C116.72 92.2704 128.33 92.2704 140.086 92.2704C143.906 92.2704 147.727 92.2704 151.695 92.2704C153.458 92.2704 155.369 92.4173 157.132 92.2704C157.279 92.2704 157.279 92.2704 157.426 92.2704C158.896 92.2704 158.896 90.0658 157.426 90.0658C152.871 90.0658 148.168 90.0658 143.613 90.0658C132.444 90.0658 121.423 90.0658 110.255 90.0658C96.735 90.0658 83.2154 90.0658 69.6959 90.0658C58.0867 90.0658 46.4775 90.0658 34.7214 90.0658C30.9007 90.0658 27.0799 90.0658 23.1122 90.0658C21.3488 90.0658 19.4384 89.9188 17.675 90.0658C17.5281 90.0658 17.5281 90.0658 17.3811 90.0658C16.0585 90.0658 16.0585 92.2704 17.3811 92.2704Z" fill="#FAFAFA"/>
<path d="M116.427 112.7C128.33 112.7 140.233 112.7 152.136 112.7C153.899 112.7 155.516 112.7 157.279 112.7C158.749 112.7 158.749 110.495 157.279 110.495C145.376 110.495 133.473 110.495 121.57 110.495C119.807 110.495 118.19 110.495 116.427 110.495C115.104 110.495 115.104 112.7 116.427 112.7Z" fill="#FAFAFA"/>
<path d="M57.2053 112.7C70.8718 112.7 84.3913 112.7 98.0578 112.7C99.9682 112.7 101.879 112.7 103.789 112.7C105.258 112.7 105.258 110.495 103.789 110.495C90.1224 110.495 76.6029 110.495 62.9364 110.495C61.026 110.495 59.1156 110.495 57.2053 110.495C55.7358 110.495 55.7358 112.7 57.2053 112.7Z" fill="#FAFAFA"/>
</svg>
