<svg width="36" height="42" viewBox="0 0 36 42" fill="none" xmlns="http://www.w3.org/2000/svg">
<g clip-path="url(#clip0_554_1435)">
<path d="M7.84768 8.63036C8.63839 3.735 12.8812 0 18 0C22.7893 0 26.8232 3.27777 27.892 7.71429H25.0714C23.2393 7.71429 21.6321 6.75723 20.7241 5.31643C19.2937 7.52625 16.9232 9 14.1429 9H9.64286C9.00804 9 8.39732 8.86339 7.84768 8.63036ZM16.8027 28.8643L14.1429 24.4286H21.8571L19.1973 28.8643L21.8732 38.8205L25.0473 25.867C31.2509 26.8312 36 32.1991 36 38.6759C36 40.0339 34.8911 41.1429 33.533 41.1429H2.46857C1.10491 41.1429 0 40.0339 0 38.6759C0 32.1991 4.7483 26.8312 10.9527 25.867L14.1268 38.8205L16.8027 28.8643Z" fill="#651FFF"/>
<path opacity="0.4" d="M20.7237 5.31641C21.6317 6.75801 23.2389 7.71426 25.071 7.71426H27.8915C28.1728 8.53391 28.2853 9.32944 28.2853 10.2857C28.2853 15.9669 23.6808 20.5714 17.9996 20.5714C12.3183 20.5714 7.71387 15.9669 7.71387 10.2857C7.71387 9.65087 7.75967 9.16873 7.84646 8.63033C8.3969 8.87141 9.00762 8.99998 9.64244 8.99998H14.1424C16.9228 8.99998 19.2933 7.52623 20.7237 5.31641Z" fill="#651FFF"/>
</g>
<defs>
<clipPath id="clip0_554_1435">
<rect width="36" height="41.1429" fill="white"/>
</clipPath>
</defs>
</svg>
