<svg width="42" height="34" viewBox="0 0 42 34" fill="none" xmlns="http://www.w3.org/2000/svg">
<g clip-path="url(#clip0_548_1064)">
<path d="M14.7 17C19.3397 17 23.1 13.1943 23.1 8.5C23.1 3.80574 19.3397 0 14.7 0C10.0603 0 6.3 3.80574 6.3 8.5C6.3 13.1943 10.0603 17 14.7 17ZM18.0272 20.1875H11.3728C5.09053 20.1875 0 25.3406 0 31.6957C0 32.9707 1.0185 34 2.27456 34H27.1228C28.3828 34 29.4 32.9707 29.4 31.6957C29.4 25.3406 24.3075 20.1875 18.0272 20.1875Z" fill="#651FFF"/>
<path opacity="0.4" d="M31.441 21.25H26.5946C29.61 23.7535 31.5 27.4988 31.5 31.6957C31.5 32.5457 31.2507 33.3293 30.8438 34H39.9C41.0616 34 42 33.0438 42 31.8152C42 26.0047 37.3013 21.25 31.441 21.25ZM28.35 17C32.4122 17 35.7 13.673 35.7 9.5625C35.7 5.45195 32.4122 2.125 28.35 2.125C26.7022 2.125 25.1974 2.69311 23.9715 3.6198C24.7275 5.08871 25.2 6.73359 25.2 8.5C25.2 10.8588 24.4171 13.0249 23.127 14.7893C24.4585 16.15 26.3025 17 28.35 17Z" fill="#651FFF"/>
</g>
<defs>
<clipPath id="clip0_548_1064">
<rect width="42" height="34" fill="white"/>
</clipPath>
</defs>
</svg>
