<svg width="36" height="32" viewBox="0 0 36 32" fill="none" xmlns="http://www.w3.org/2000/svg">
<path d="M0 5C0 3.34312 1.34312 2 3 2H9C10.6562 2 12 3.34312 12 5V11C12 12.6562 10.6562 14 9 14H3C1.34312 14 0 12.6562 0 11V5ZM14 21C14 19.3438 15.3438 18 17 18H23C24.6562 18 26 19.3438 26 21V27C26 28.6562 24.6562 30 23 30H17C15.3438 30 14 28.6562 14 27V21ZM33 2C34.6562 2 36 3.34312 36 5V11C36 12.6562 34.6562 14 33 14H27C25.3438 14 24 12.6562 24 11V5C24 3.34312 25.3438 2 27 2H33Z" fill="#651FFF"/>
<path opacity="0.4" d="M11.9812 11.2563L17 18C15.45 18 14.175 19.175 14.0188 20.6875L9 14C10.55 14 11.825 12.825 11.9812 11.2563ZM12 6H24V10H12V6Z" fill="#651FFF"/>
</svg>
