<svg width="36" height="36" viewBox="0 0 36 36" fill="none" xmlns="http://www.w3.org/2000/svg">
<circle cx="18" cy="18" r="18" fill="#651FFF"/>
<g clip-path="url(#clip0_444_802)">
<path d="M17.9975 19.75C19.4328 19.75 20.575 18.4769 20.575 16.9062C20.575 15.3356 19.4115 14.0625 17.9975 14.0625C16.5623 14.0625 15.42 15.3356 15.42 16.9062C15.3975 18.4758 16.5625 19.75 17.9975 19.75ZM19.2475 20.625H16.7525C14.79 20.625 13.2 22.2574 13.2 24.2699C13.2 24.6746 13.5175 25 13.91 25H22.09C22.4825 25 22.8 24.6746 22.8 24.2699C22.8 22.2574 21.21 20.625 19.2475 20.625Z" fill="white"/>
<path opacity="0.4" d="M13.2 15.375C14.3045 15.375 15.2 14.3955 15.2 13.1875C15.2 11.9795 14.305 11 13.2 11C12.0955 11 11.2 11.9795 11.2 13.1875C11.2 14.3955 12.0955 15.375 13.2 15.375ZM22.8 15.375C23.9045 15.375 24.8 14.3955 24.8 13.1875C24.8 11.9795 23.905 11 22.8 11C21.6955 11 20.8 11.9795 20.8 13.1875C20.8 14.3955 21.695 15.375 22.8 15.375ZM23.7975 16.25H22.2515C21.9315 16.25 21.6295 16.333 21.355 16.4753C21.37 16.6191 21.395 16.7586 21.395 16.9062C21.395 17.828 21.0755 18.662 20.566 19.3125H25.5585C25.8025 19.3125 26 19.0828 26 18.8012C26 17.393 25.015 16.25 23.7975 16.25ZM14.6375 16.4715C14.365 16.3074 14.065 16.25 13.7475 16.25H12.202C10.986 16.25 10 17.393 10 18.8012C10 19.0828 10.1972 19.3125 10.4405 19.3125H15.428C14.9185 18.662 14.599 17.828 14.599 16.9062C14.5975 16.7586 14.6225 16.6164 14.6375 16.4715Z" fill="white"/>
</g>
<defs>
<clipPath id="clip0_444_802">
<rect width="16" height="14" fill="white" transform="translate(10 11)"/>
</clipPath>
</defs>
</svg>
