<svg width="501" height="451" viewBox="0 0 501 451" fill="none" xmlns="http://www.w3.org/2000/svg">
<path d="M136.349 197.65C133.41 192.946 131.499 183.834 132.381 175.016C133.41 166.197 133.703 152.823 122.535 152.235C111.514 151.647 107.693 173.84 107.105 178.69C106.517 183.393 86.6789 186.333 70.9551 181.483C55.0843 176.632 25.694 170.9 12.7623 174.134C-0.169477 177.367 4.53298 188.684 4.53298 188.684C-4.43107 195.004 5.41468 202.941 5.41468 202.941C-3.69631 211.171 6.44334 219.843 12.9092 220.724C12.7623 221.606 12.6153 222.341 12.9092 223.37C14.6726 232.923 54.2026 229.396 76.6862 239.39C99.3167 249.384 114.894 291.566 114.894 291.566L162.065 234.981C162.065 234.981 139.288 202.353 136.349 197.65Z" fill="white"/>
<path d="M59.7869 198.531C59.7869 198.531 14.6727 194.563 5.56174 202.941C-3.54926 211.171 6.5904 219.843 13.0563 220.724" stroke="#263238" stroke-miterlimit="10"/>
<path d="M59.7864 188.537C59.7864 188.537 25.6936 179.425 8.79416 186.333C-6.92966 192.799 5.56123 202.794 5.56123 202.794" stroke="#263238" stroke-miterlimit="10"/>
<path d="M4.53269 188.537C4.53269 188.537 -0.316719 177.22 12.762 173.987C25.6937 170.754 55.231 176.339 71.1018 181.336C86.9725 186.186 106.664 183.393 107.252 178.543C107.84 173.84 111.66 151.5 122.682 152.088C133.703 152.676 133.409 166.05 132.528 174.869C131.499 183.687 133.556 192.8 136.495 197.503C139.434 202.206 162.212 234.834 162.212 234.834L115.04 291.419C115.04 291.419 99.4634 249.237 76.8329 239.243C54.2023 229.249 14.6723 232.776 13.0559 223.223C11.2925 213.67 28.6328 209.261 55.231 212.347" stroke="#263238" stroke-miterlimit="10"/>
<path d="M96.2309 271.577L167.208 230.572C167.208 230.572 228.781 341.683 308.135 370.343L213.645 406.058L137.818 401.208C137.671 401.208 107.546 337.568 96.2309 271.577Z" fill="#651FFF"/>
<g opacity="0.3">
<path d="M96.2309 271.577L167.208 230.572C167.208 230.572 228.781 341.683 308.135 370.343L213.645 406.058L137.818 401.208C137.671 401.208 107.546 337.568 96.2309 271.577Z" fill="white"/>
</g>
<path d="M307.4 370.196C306.959 370.049 306.371 369.755 305.931 369.608V371.225L307.4 370.637V370.196Z" fill="#FAFAFA"/>
<path d="M276.54 359.467V382.248L278.01 381.66V359.467H284.917C284.035 359.026 283.3 358.438 282.418 357.997H278.157V355.352C277.716 355.058 277.128 354.764 276.687 354.47V358.144H248.767V333.159C248.326 332.718 247.738 332.277 247.297 331.836V357.997H219.376V328.75H244.064C243.476 328.309 243.035 327.721 242.448 327.28H219.376V303.323C218.935 302.735 218.348 302.148 217.907 301.707V327.427H189.986V298.179H214.821C214.38 297.738 213.939 297.15 213.645 296.71H190.133V267.462H191.015C190.133 266.286 189.398 265.11 188.663 264.082V265.992H160.743V236.744H170.882C170.588 236.157 170.294 235.716 170 235.275H160.743V234.393L156.775 236.744H159.273V265.992H131.352V251.295L129.883 252.177V265.992H105.93L103.431 267.462H129.883V296.71H101.962V268.344L100.492 269.226V293.035C100.933 295.093 101.521 297.151 101.962 299.208V298.179H129.883V327.427H109.75C109.897 327.868 110.044 328.456 110.191 328.897H129.883V357.997H120.184C120.331 358.438 120.478 359.026 120.772 359.467H130.03V383.13C130.47 384.306 131.058 385.481 131.499 386.657V359.467H159.42V388.715H132.381C132.528 389.156 132.822 389.744 132.969 390.185H159.273V402.53L160.743 402.677V390.185H188.663V404.441L190.133 404.588V390.332H218.054V404.588L219.523 404V390.332H247.444V393.418L248.913 392.83V390.332H255.673L259.494 388.862H248.767V359.467H276.54ZM159.273 357.997H131.352V328.75H159.273V357.997ZM159.273 327.28H131.352V298.032H159.273V327.28ZM159.273 296.563H131.352V267.315H159.273V296.563ZM188.516 388.715H160.596V359.467H188.516V388.715ZM188.516 357.997H160.596V328.75H188.516V357.997ZM188.516 327.28H160.596V298.032H188.516V327.28ZM188.516 296.563H160.596V267.315H188.516V296.563ZM217.907 388.715H189.986V359.467H217.907V388.715ZM217.907 357.997H189.986V328.75H217.907V357.997ZM247.297 388.715H219.376V359.467H247.297V388.715Z" fill="#FAFAFA"/>
<path d="M96.2309 271.577L167.208 230.572C167.208 230.572 228.781 341.683 308.135 370.343L213.645 406.058L137.818 401.208C137.671 401.208 107.546 337.568 96.2309 271.577Z" stroke="#263238" stroke-miterlimit="10"/>
<path d="M102.55 299.943L183.373 257.321" stroke="#263238" stroke-miterlimit="10"/>
<path d="M170 250.707C170 254.087 167.355 256.733 163.975 256.733C160.596 256.733 157.95 254.087 157.95 250.707C157.95 247.327 160.596 244.681 163.975 244.681C167.355 244.681 170 247.474 170 250.707Z" fill="#263238"/>
<path d="M396.748 295.681C396.748 295.681 415.704 345.652 346.196 363.289C276.688 380.925 194.836 377.839 194.836 377.839C194.836 377.839 186.46 377.986 187.048 356.087C187.488 334.335 186.607 291.272 214.528 243.652C242.595 196.033 259.936 178.69 274.19 173.252C279.186 171.341 313.426 168.549 332.383 179.425C367.651 200.148 395.131 248.355 396.748 295.681Z" fill="#651FFF"/>
<g opacity="0.3">
<path d="M396.748 295.681C396.748 295.681 415.704 345.652 346.196 363.289C276.688 380.925 194.836 377.839 194.836 377.839C194.836 377.839 186.46 377.986 187.048 356.087C187.488 334.335 186.607 291.272 214.528 243.652C242.595 196.033 259.936 178.69 274.19 173.252C279.186 171.341 313.426 168.549 332.383 179.425C367.651 200.148 395.131 248.355 396.748 295.681Z" fill="white"/>
</g>
<path d="M374.998 323.018H397.481C397.628 322.577 397.775 321.989 397.922 321.548H375.145V292.3H396.747C396.747 291.859 396.747 291.272 396.6 290.831H375.145V261.583H391.456C391.309 261.142 391.162 260.554 391.015 260.113H375.145V230.866H379.112C378.819 230.425 378.525 229.837 378.378 229.396H375.292V223.811C374.851 223.076 374.263 222.194 373.822 221.459V229.396H345.901V200.148H357.657C357.217 199.707 356.776 199.119 356.335 198.678H346.048V188.978C345.607 188.537 345.02 188.243 344.579 187.802V198.678H316.658V173.84C316.217 173.693 315.629 173.693 315.188 173.546V198.678H287.268V171.782C286.827 171.782 286.239 171.782 285.798 171.929V198.825H257.877V184.422C257.436 184.863 256.849 185.304 256.408 185.745V198.678H244.799C244.358 199.119 244.064 199.707 243.623 200.148H256.408V229.396H228.487V221.459C228.046 222.194 227.458 222.929 227.017 223.664V229.396H223.491C223.197 229.837 222.903 230.425 222.609 230.866H227.164V260.113H206.297C206.003 260.554 205.856 261.142 205.563 261.583H227.164V290.831H199.244V277.015C198.803 278.485 198.215 279.808 197.774 281.277V290.831H194.835C194.688 291.272 194.541 291.859 194.394 292.3H197.627V321.548H188.957C188.957 321.989 188.81 322.577 188.81 323.018H197.627V352.266H187.194C187.194 352.706 187.194 353.294 187.194 353.735H197.627V377.986C198.068 377.986 198.509 377.986 199.097 377.986V353.735H227.017V377.839C227.458 377.839 228.046 377.839 228.487 377.839V353.735H256.408V376.516C256.849 376.516 257.436 376.516 257.877 376.369V353.588H285.798V373.871C286.239 373.871 286.827 373.724 287.268 373.724V353.588H315.188V369.755C315.629 369.608 316.217 369.608 316.658 369.461V353.588H344.579V363.729C345.02 363.582 345.607 363.436 346.048 363.436V353.735H371.765C373.087 353 374.263 352.266 375.439 351.531V323.018H374.998ZM226.871 352.266H198.95V323.018H226.871V352.266ZM226.871 321.548H198.95V292.3H226.871V321.548ZM256.114 352.266H228.193V323.018H256.114V352.266ZM256.114 321.548H228.193V292.3H256.114V321.548ZM256.114 290.831H228.193V261.583H256.114V290.831ZM256.114 260.113H228.193V230.866H256.114V260.113ZM285.504 352.266H257.583V323.018H285.504V352.266ZM285.504 321.548H257.583V292.3H285.504V321.548ZM285.504 290.831H257.583V261.583H285.504V290.831ZM285.504 260.113H257.583V230.866H285.504V260.113ZM285.504 229.396H257.583V200.148H285.504V229.396ZM314.895 352.266H286.974V323.018H314.895V352.266ZM314.895 321.548H286.974V292.3H314.895V321.548ZM314.895 290.831H286.974V261.583H314.895V290.831ZM314.895 260.113H286.974V230.866H314.895V260.113ZM314.895 229.396H286.974V200.148H314.895V229.396ZM344.138 352.266H316.217V323.018H344.138V352.266ZM344.138 321.548H316.217V292.3H344.138V321.548ZM344.138 290.831H316.217V261.583H344.138V290.831ZM344.138 260.113H316.217V230.866H344.138V260.113ZM344.138 229.396H316.217V200.148H344.138V229.396ZM373.528 352.266H345.607V323.018H373.528V352.266ZM373.528 321.548H345.607V292.3H373.528V321.548ZM373.528 290.831H345.607V261.583H373.528V290.831ZM373.528 260.113H345.607V230.866H373.528V260.113Z" fill="#FAFAFA"/>
<path d="M269.046 173.399C269.046 173.399 173.381 254.528 188.664 374.605" stroke="#263238" stroke-miterlimit="10"/>
<path d="M334.733 347.709L340.17 423.695L249.648 414.582C249.648 414.582 240.831 411.937 234.071 418.698C227.165 425.458 227.311 429.133 226.724 431.337C226.136 433.689 224.225 442.213 220.111 446.769C215.996 451.326 212.763 451.179 209.824 448.239C206.885 445.3 206.885 445.3 206.885 445.3C206.885 445.3 205.71 444.712 204.24 446.182C202.771 447.651 198.656 449.415 196.452 446.476C194.247 443.389 194.1 443.83 194.1 443.83C194.1 443.83 193.366 442.507 192.19 443.83C190.867 445.006 185.43 447.21 182.638 443.83C179.846 440.45 178.671 438.098 178.671 438.098C178.671 438.098 177.789 437.804 176.172 438.539C174.409 439.274 167.502 440.891 163.681 432.66C159.861 424.43 162.212 411.937 163.681 403.706C165.151 395.476 172.205 377.692 178.671 370.49C184.989 363.289 197.039 354.911 209.677 352.854C222.315 350.796 257.29 349.326 272.132 349.032C286.974 348.444 334.733 347.709 334.733 347.709Z" fill="white"/>
<path d="M220.111 392.389C220.111 392.389 206.885 415.758 204.387 428.692C202.036 441.625 209.237 450.738 213.498 450.444C217.76 450.15 223.638 445.888 226.283 433.395C228.928 420.902 237.304 414.582 243.623 414.435C249.795 414.288 345.02 424.43 345.02 424.43" stroke="#263238" stroke-miterlimit="10"/>
<path d="M203.505 389.156C203.505 389.156 192.484 414.288 191.455 427.369C190.427 440.45 196.305 447.798 199.244 448.092C202.183 448.533 206.445 444.271 206.445 444.271" stroke="#263238" stroke-miterlimit="10"/>
<path d="M188.957 379.897C188.957 379.897 177.054 403.559 176.319 417.228C175.585 430.896 178.23 440.597 183.52 444.124C188.81 447.651 193.954 442.507 193.954 442.507" stroke="#263238" stroke-miterlimit="10"/>
<path d="M337.231 347.709C337.231 347.709 246.709 348.444 217.466 351.531C188.222 354.617 175.585 370.637 168.972 386.951C162.359 403.265 160.155 424.723 163.975 432.072C170.588 444.712 178.23 437.216 178.23 437.216" stroke="#263238" stroke-miterlimit="10"/>
<path d="M344.285 244.681C344.285 244.681 395.131 289.361 388.077 318.315C381.023 347.268 264.784 344.476 264.784 344.476V426.781C264.784 426.781 315.777 425.605 359.421 431.337C410.56 438.098 490.943 419.138 499.025 358.585C507.108 298.032 457.585 188.537 323.271 170.313L344.285 244.681Z" fill="#651FFF"/>
<g opacity="0.3">
<path d="M344.285 244.681C344.285 244.681 395.131 289.361 388.077 318.315C381.023 347.268 264.784 344.476 264.784 344.476V426.781C264.784 426.781 315.777 425.605 359.421 431.337C410.56 438.098 490.943 419.138 499.025 358.585C507.108 298.032 457.585 188.537 323.271 170.313L344.285 244.681Z" fill="white"/>
</g>
<path d="M492.412 352.266V323.018H497.85C497.703 322.577 497.703 321.989 497.556 321.548H492.412V301.413C491.971 299.943 491.384 298.62 490.943 297.151V321.548H463.022V292.3H489.179C489.032 291.86 488.739 291.272 488.592 290.831H463.022V261.583H473.456C473.162 261.142 472.868 260.554 472.574 260.113H463.022V246.592C462.581 246.004 461.993 245.269 461.552 244.681V259.966H433.632V230.719H449.355C448.915 230.278 448.327 229.69 447.886 229.249H433.779V216.315C433.338 215.874 432.75 215.58 432.309 215.139V229.249H404.388V200.001H410.56C409.679 199.56 408.944 198.972 408.062 198.531H404.388V196.474C403.947 196.18 403.36 195.886 402.919 195.739V198.678H374.998V183.099C374.557 182.952 373.969 182.805 373.528 182.511V198.678H345.608V174.428C345.167 174.281 344.579 174.281 344.138 174.134V198.678H331.206L331.647 200.148H344.138V229.396H339.877L340.317 230.866H344.138V244.24L344.285 244.681C344.285 244.681 344.726 245.122 345.608 245.857V230.719H373.528V259.966H359.715C360.156 260.407 360.597 260.995 361.038 261.436H373.382V276.574C373.822 277.309 374.41 277.897 374.851 278.632V261.436H402.772V290.684H382.346C382.639 291.125 382.786 291.713 383.08 292.153H402.772V321.401H386.754C386.46 321.842 386.166 322.43 385.725 322.871H402.772V352.119H374.851V330.954C374.41 331.248 373.822 331.395 373.382 331.689V352.266H345.461V339.332C345.02 339.479 344.432 339.479 343.991 339.626V352.266H316.07V343.006C315.63 343.006 315.042 343.153 314.601 343.153V352.413H286.68V344.623C286.239 344.623 285.651 344.623 285.211 344.623V352.413H264.49V353.882H285.211V382.983H264.49V384.453H285.211V413.7H264.49V415.17H285.211V426.781C285.651 426.781 286.239 426.781 286.68 426.781V415.17H314.601V427.516C315.042 427.516 315.63 427.516 316.07 427.516V415.023H343.991V429.574C344.432 429.574 345.02 429.72 345.461 429.72V415.023H373.382V432.366C373.822 432.366 374.41 432.366 374.851 432.366V414.876H402.772V430.896C403.213 430.896 403.8 430.749 404.241 430.749V414.876H432.162V424.723C432.603 424.576 433.191 424.429 433.632 424.282V415.023H455.968C456.85 414.582 457.732 413.994 458.613 413.553H433.632V384.453H461.552V412.084C461.993 411.79 462.581 411.496 463.022 411.202V384.453H490.061C490.943 383.13 491.678 381.66 492.412 380.337V353.735H499.613C499.613 353.294 499.76 352.706 499.76 352.266H492.412ZM373.528 229.396H345.608V200.148H373.528V229.396ZM314.895 413.7H286.974V384.453H314.895V413.7ZM314.895 382.983H286.974V353.735H314.895V382.983ZM344.138 413.7H316.217V384.453H344.138V413.7ZM344.138 382.983H316.217V353.735H344.138V382.983ZM373.528 413.7H345.608V384.453H373.528V413.7ZM373.528 382.983H345.608V353.735H373.528V382.983ZM402.919 413.7H374.998V384.453H402.919V413.7ZM402.919 382.983H374.998V353.735H402.919V382.983ZM402.919 260.113H374.998V230.866H402.919V260.113ZM402.919 229.396H374.998V200.148H402.919V229.396ZM432.162 413.7H404.241V384.453H432.162V413.7ZM432.162 382.983H404.241V353.735H432.162V382.983ZM432.162 352.266H404.241V323.018H432.162V352.266ZM432.162 321.548H404.241V292.3H432.162V321.548ZM432.162 290.831H404.241V261.583H432.162V290.831ZM432.162 260.113H404.241V230.866H432.162V260.113ZM461.552 382.983H433.632V353.735H461.552V382.983ZM461.552 352.266H433.632V323.018H461.552V352.266ZM461.552 321.548H433.632V292.3H461.552V321.548ZM461.552 290.831H433.632V261.583H461.552V290.831ZM490.943 382.983H463.022V353.735H490.943V382.983ZM490.943 352.266H463.022V323.018H490.943V352.266Z" fill="#FAFAFA"/>
<path d="M344.285 244.681C344.285 244.681 395.131 289.361 388.077 318.315C381.023 347.268 264.784 344.476 264.784 344.476V426.781C264.784 426.781 315.777 425.605 359.421 431.337C410.56 438.098 490.943 419.138 499.025 358.585C507.108 298.032 457.585 188.537 323.271 170.313" stroke="#263238" stroke-miterlimit="10"/>
<path d="M286.239 411.055C286.239 414.435 283.594 417.081 280.214 417.081C276.834 417.081 274.189 414.435 274.189 411.055C274.189 407.675 276.834 405.029 280.214 405.029C283.447 405.029 286.239 407.821 286.239 411.055Z" fill="#263238"/>
<path d="M294.468 344.182V426.634" stroke="#263238" stroke-miterlimit="10"/>
<path d="M340.905 103.146C340.905 112.846 332.97 120.636 323.271 120.636C313.572 120.636 305.637 112.846 305.637 103.146C305.637 93.4456 313.572 85.6561 323.271 85.6561C332.97 85.6561 340.905 93.5926 340.905 103.146Z" stroke="black" stroke-width="2" stroke-miterlimit="10"/>
<path d="M264.197 49.0597H286.24C300.935 49.0597 312.985 62.7282 312.985 79.4831V113.728C312.985 114.757 312.985 115.639 312.838 116.52C313.132 117.549 313.279 118.578 313.279 119.607V140.477V141.653V162.523C313.279 170.166 307.107 176.339 299.465 176.339H290.648C283.007 176.339 276.835 170.166 276.835 162.523V144.004H264.197C249.502 144.004 237.452 130.336 237.452 113.581V79.3362C237.452 62.7282 249.502 49.0597 264.197 49.0597Z" fill="white" stroke="#263238" stroke-miterlimit="10"/>
<path d="M307.254 102.558L303.139 75.6618C303.139 75.6618 228.928 84.9211 204.828 48.9127C180.728 12.9042 206.004 -1.49916 218.348 0.558471C230.545 2.6161 244.946 20.1059 244.946 20.1059C244.946 20.1059 233.484 4.52675 244.946 2.17517C256.408 -0.323371 268.899 11.5815 275.512 23.7802C275.512 23.7802 324.447 19.2241 341.053 48.9127C357.658 78.6013 344.139 99.6185 313.867 130.189L311.809 113.14L307.254 102.558Z" fill="#263238"/>
<path d="M300.493 107.849C300.493 114.904 294.762 120.489 287.855 120.489C280.802 120.489 275.218 114.757 275.218 107.849C275.218 100.794 280.949 95.2093 287.855 95.2093C294.909 95.2093 300.493 100.794 300.493 107.849Z" fill="#651FFF"/>
<path d="M240.537 97.7078C239.802 97.7078 239.068 97.8548 238.333 98.0018V111.229C238.333 113.14 238.186 115.051 238.48 116.961C239.068 117.108 239.949 117.108 240.537 117.108C245.827 117.108 250.236 112.846 250.236 107.408C250.236 102.117 245.827 97.7078 240.537 97.7078Z" fill="#651FFF"/>
<path d="M277.569 90.2122C277.569 92.7107 275.512 94.7683 273.014 94.7683C270.515 94.7683 268.458 92.7107 268.458 90.2122C268.458 87.7136 270.515 85.656 273.014 85.656C275.659 85.656 277.569 87.7136 277.569 90.2122Z" fill="#263238"/>
<path d="M248.032 89.4773C248.032 91.5349 246.268 93.2986 244.211 93.2986C242.154 93.2986 240.39 91.5349 240.39 89.4773C240.39 87.4197 242.154 85.656 244.211 85.656C246.415 85.656 248.032 87.4197 248.032 89.4773Z" fill="#263238"/>
<path d="M252.44 107.996C252.44 107.996 254.645 114.61 259.494 115.051C264.343 115.492 268.017 110.201 268.311 106.085L252.44 107.996Z" fill="white"/>
<path d="M251.853 108.143C252.587 110.348 254.057 112.699 255.967 114.169C259.347 116.814 263.609 115.492 266.107 112.405C267.576 110.642 268.458 108.437 268.752 106.085C268.752 105.791 268.458 105.497 268.311 105.644C263.609 106.232 259.053 106.82 254.351 107.408C253.763 107.555 253.028 107.555 252.44 107.702C251.853 107.849 251.853 108.731 252.44 108.731C257.143 108.143 261.698 107.555 266.401 106.967C266.989 106.82 267.723 106.82 268.311 106.673C268.164 106.526 268.017 106.379 267.87 106.232C267.576 109.76 265.078 113.728 261.551 114.61C258.171 115.492 255.526 112.993 254.057 110.348C253.616 109.613 253.322 108.878 253.028 108.143C252.734 107.261 251.706 107.555 251.853 108.143Z" fill="#263238"/>
<path d="M295.938 87.5667C295.938 97.2669 288.884 105.203 280.214 105.203C271.544 105.203 264.49 97.2669 264.49 87.5667C264.49 77.8664 271.544 69.9299 280.214 69.9299C288.884 69.9299 295.938 77.7195 295.938 87.5667Z" stroke="#4D5A64" stroke-miterlimit="10"/>
<path d="M253.91 85.362C253.91 94.0335 248.032 101.088 240.978 101.088C233.777 101.088 228.046 94.0335 228.046 85.362C228.046 76.6906 233.924 69.6359 240.978 69.6359C248.179 69.4889 253.91 76.5436 253.91 85.362Z" stroke="#4D5A64" stroke-miterlimit="10"/>
<path d="M258.465 85.656V100.941L250.53 96.0911L258.465 85.656Z" fill="#651FFF"/>
<path d="M253.469 90.0652C253.469 90.0652 260.229 87.5667 264.784 91.388" stroke="#4D5A64" stroke-miterlimit="10"/>
<path d="M295.938 88.1546L317.393 92.5638" stroke="#4D5A64" stroke-miterlimit="10"/>
<path d="M340.905 103.146C340.905 112.846 332.97 120.636 323.271 120.636C313.572 120.636 305.637 112.846 305.637 103.146C305.637 93.4456 313.572 85.6561 323.271 85.6561C332.97 85.6561 340.905 93.5926 340.905 103.146Z" fill="white"/>
<path d="M314.307 105.497C314.013 101.97 315.63 97.8548 319.01 96.2381C320.92 95.3562 322.977 95.3562 325.035 95.5032C325.769 95.6502 325.769 94.3274 325.035 94.3274C321.508 94.0335 317.834 94.6214 315.483 97.4139C314.013 99.1775 313.278 101.529 313.132 103.881C313.132 104.322 312.985 104.91 313.132 105.497C313.132 106.232 314.454 106.232 314.307 105.497Z" fill="#263238"/>
<path d="M328.121 183.687H264.784C262.433 183.687 260.67 181.777 260.67 179.572V168.696C260.67 166.344 262.58 164.581 264.784 164.581H328.121C330.472 164.581 332.235 166.491 332.235 168.696V179.572C332.235 181.923 330.325 183.687 328.121 183.687Z" fill="#651FFF"/>
<path opacity="0.3" d="M328.121 183.687H264.784C262.433 183.687 260.67 181.777 260.67 179.572V168.696C260.67 166.344 262.58 164.581 264.784 164.581H328.121C330.472 164.581 332.235 166.491 332.235 168.696V179.572C332.235 181.923 330.325 183.687 328.121 183.687Z" fill="white"/>
<path d="M275.365 173.693C275.365 175.604 273.895 177.073 271.985 177.073C270.074 177.073 268.605 175.604 268.605 173.693C268.605 171.782 270.074 170.313 271.985 170.313C273.895 170.313 275.365 171.929 275.365 173.693Z" fill="#263238"/>
<path d="M316.365 183.687V169.284H332.236V168.549C332.236 168.255 332.236 167.961 332.089 167.814H316.218V164.434H314.748V167.814H286.827V164.434H285.358V167.814H260.376C260.376 168.108 260.229 168.255 260.229 168.549V169.284H285.211V183.687H286.681V169.284H314.601V183.687H316.365Z" fill="#FAFAFA"/>
<path d="M328.121 183.687H264.784C262.433 183.687 260.67 181.777 260.67 179.572V168.696C260.67 166.344 262.58 164.581 264.784 164.581H328.121C330.472 164.581 332.235 166.491 332.235 168.696V179.572C332.235 181.923 330.325 183.687 328.121 183.687Z" stroke="#263238" stroke-miterlimit="10"/>
</svg>
