<svg width="36" height="36" viewBox="0 0 36 36" fill="none" xmlns="http://www.w3.org/2000/svg">
<circle cx="18" cy="18" r="18" fill="#651FFF"/>
<g clip-path="url(#clip0_444_805)">
<path d="M22.7063 15.7063C23.0966 15.3159 23.0966 14.6828 22.7063 14.2922L18.7063 10.2922C18.5125 10.0977 18.2563 10 18 10C17.7438 10 17.4881 10.0977 17.2931 10.293L13.2931 14.293C12.9028 14.6833 12.9028 15.3164 13.2931 15.707C13.6838 16.0973 14.3169 16.0977 14.7072 15.7071L17 13.4156V21C17 21.5522 17.4478 22 18 22C18.5522 22 19 21.5522 19 21V13.4156L21.2938 15.7063C21.6844 16.0969 22.3156 16.0969 22.7063 15.7063Z" fill="white"/>
<path opacity="0.4" d="M11 21H16C16 22.1047 16.8953 23 18 23C19.1047 23 20 22.1047 20 21H25C25.5522 21 26 21.4478 26 22V25C26 25.5522 25.5522 26 25 26H11C10.4478 26 10 25.5522 10 25V22C10 21.4469 10.4469 21 11 21ZM12.5 24.25C12.9125 24.25 13.25 23.9125 13.25 23.5C13.25 23.0875 12.9125 22.75 12.5 22.75C12.0875 22.75 11.75 23.0875 11.75 23.5C11.75 23.9125 12.0875 24.25 12.5 24.25Z" fill="white"/>
</g>
<defs>
<clipPath id="clip0_444_805">
<rect width="16" height="16" fill="white" transform="matrix(-1 0 0 1 26 10)"/>
</clipPath>
</defs>
</svg>
